<?xml version="1.0" standalone="no"?>
<!DOCTYPE svg PUBLIC "-//W3C//DTD SVG 1.1//EN" "http://www.w3.org/Graphics/SVG/1.1/DTD/svg11.dtd" >
<svg xmlns="http://www.w3.org/2000/svg">
<metadata></metadata>
<defs>
<font id="alterego_bbregular" horiz-adv-x="1357" >
<font-face units-per-em="2048" ascent="1638" descent="-410" />
<missing-glyph horiz-adv-x="798" />
<glyph horiz-adv-x="2048" />
<glyph horiz-adv-x="2048" />
<glyph unicode="&#xd;" horiz-adv-x="798" />
<glyph unicode=" "  horiz-adv-x="798" />
<glyph unicode="&#x09;" horiz-adv-x="798" />
<glyph unicode="&#xa0;" horiz-adv-x="798" />
<glyph unicode="!" horiz-adv-x="811" d="M86 125q0 76 70 102q47 18 237 52q31 4 148 40q106 31 131 31q76 0 76 -123q0 -106 -89 -135q-16 -4 -244.5 -55t-232.5 -51q-47 0 -73 49q-23 39 -23 90zM289 668q0 424 86 762q25 104 106 104q109 0 109 -90q0 -16 -4 -41q-66 -371 -84 -770q-8 -145 -144 -146 q-53 0 -65 70q-4 16 -4 111z" />
<glyph unicode="&#x22;" horiz-adv-x="972" d="M158 883q0 145 57 567q14 111 102 111q49 0 79 -37t30 -88q0 -84 -28.5 -254t-28.5 -256q0 -57 -25 -99q-29 -51 -80 -51q-45 0 -75.5 32t-30.5 75zM592 883q0 145 57 567q14 111 103 111q49 0 78.5 -37t29.5 -88q0 -84 -28.5 -254t-28.5 -256q0 -57 -25 -99 q-29 -51 -80 -51q-45 0 -75.5 32t-30.5 75z" />
<glyph unicode="#" horiz-adv-x="1574" d="M68 397q0 92 98 117q39 10 176 10q39 0 39 105q0 47 0 45q-2 25 -27 24q-16 0 -51 -4t-53 -4q-88 0 -88 129q0 76 45 103q27 16 92.5 19t83.5 17q12 8 16 123l9 164q6 109 90 109q121 0 120 -137q0 -31 -4 -95.5t-4 -97.5q0 -25 4 -47q4 -2 21 -2q63 0 196 8 q168 12 175 25q10 162 22 372q8 111 96 111q49 0 82 -38t31 -87v-10q0 -115 -6 -213q-2 -12 -7 -48t-5 -53q0 -18 45 -18q25 0 72.5 6t72.5 6q94 0 94 -127q0 -86 -63 -114q-33 -16 -125 -21q-80 -4 -98 -26q-10 -12 -11 -58q0 -45 6 -86q16 0 47 4t48 4q47 0 77 -39 q25 -35 25 -84q0 -74 -45 -106q-31 -23 -87 -30t-60.5 -13t-4.5 -31q0 -31 5.5 -92t5.5 -92q0 -141 -131 -141q-63 0 -80 86q-2 12 -8 135q-4 117 -23 117q-182 0 -367 -29q-4 0 -9 -3t-5 -32q0 -25 4 -75t4 -74q0 -125 -129 -125q-63 0 -80 75q-6 25 -10 142q-2 76 -29 75 q-31 0 -95 -8t-97 -8q-100 0 -100 137zM592 549q135 8 405 29q0 27 2 84v81q-100 -8 -403 -26q-4 -86 -4 -168z" />
<glyph unicode="$" horiz-adv-x="1378" d="M39 195q0 49 42 96t89 47q39 0 57 -51q27 -72 47 -92q49 -51 160 -52q45 0 70 13q41 16 43 116q-2 90 4 271q-182 0 -275 24q-168 45 -167 176q0 176 112 304q72 80 217 161q127 70 137 99q10 23 11.5 94.5t11.5 99.5q20 47 78 47q68 0 94 -43q20 -51 41 -100 q6 -12 47 -12q14 0 41 2t41 2q86 0 138 -47t52 -129q0 -55 -38.5 -92t-94.5 -37q-33 0 -55 18t-45 18q-4 0 -113 -22q-12 -135 -12 -227q0 -41 2 -48q6 -18 37 -18q61 0 213 46t193 46q55 0 88 -61q28 -52 28 -111q0 -49 -16 -110q-43 -162 -90 -254q-57 -115 -164 -211 q-111 -102 -240 -170q-29 -14 -61 -41q0 2 0 -103q0 -119 -133 -118q-55 0 -70 67q-16 84 -26.5 92.5t-129.5 16.5q-129 8 -204 49q-117 59 -154 203q-6 20 -6 41zM334 815q88 -33 223 -35q2 80 10 240q-96 -51 -137 -84q-78 -57 -96 -121zM758 225q141 86 211 160 q92 100 123 233q-188 -45 -330 -63q-6 -86 -4 -199v-131z" />
<glyph unicode="%" horiz-adv-x="1703" d="M55 1042q0 205 164 340q154 129 363 129q117 0 209 -49q55 -31 118 -94q49 -49 64 -49q33 0 67 72q63 129 68 133q45 74 100 73q45 0 75 -32.5t30 -75.5q0 -45 -129 -295t-129 -272q0 -35 129 -39q166 -6 303 -78q174 -91 174 -234q0 -219 -135 -364q-139 -152 -357 -152 q-184 0 -350 109l-41 31q-31 25 -39 24q-25 0 -127 -252q-25 -61 -47 -123q-39 -78 -90 -77q-45 0 -82 33.5t-37 76.5q0 72 148.5 389.5t148.5 362.5q0 27 -51 35l-78 4q-469 39 -469 374zM266 1083q0 -86 82 -131q68 -37 160 -37q100 0 188 41q111 54 111 142q0 82 -90 121 q-68 31 -160 30q-98 0 -182 -35q-109 -45 -109 -131zM899 473q0 -86 82 -131q68 -37 160 -37q100 0 188 41q111 51 111 141q0 80 -90 121q-68 31 -160 31q-98 0 -182 -35q-109 -45 -109 -131z" />
<glyph unicode="&#x26;" horiz-adv-x="1609" d="M68 311q0 168 139 324q-111 76 -111 219q0 188 186.5 377.5t376.5 189.5q113 0 194 -67.5t81 -179.5q0 -63 -39 -104.5t-102 -41.5q-53 0 -65.5 75t-51.5 75q-72 0 -223.5 -113t-151.5 -178q0 -55 164 -56q31 0 89 6.5t87 6.5q102 0 102 -135q0 -100 -92 -117 q-125 -23 -182 -47q-94 -41 -143 -119q-39 -61 -39 -117q0 -57 96 -86q66 -18 145 -18q131 0 281 67q180 80 180 193q0 63 -76 145q-66 20 -65 109q0 49 25.5 89t70.5 46q111 4 221 8q172 6 190.5 32t35.5 52q25 27 55 27q43 0 81 -34t38 -77q0 -27 -15 -61 q-37 -92 -114 -127q-82 -25 -166 -49q-20 -8 -53 -174q-43 -227 -259 -369q-199 -131 -440 -131q-180 0 -307 88q-143 100 -143 272z" />
<glyph unicode="'" horiz-adv-x="530" d="M158 883q0 145 57 567q14 111 102 111q49 0 79 -37t30 -88q0 -84 -28.5 -254t-28.5 -256q0 -57 -25 -99q-29 -51 -80 -51q-45 0 -75.5 32t-30.5 75z" />
<glyph unicode="(" horiz-adv-x="768" d="M61 659q0 299 129 541q150 279 416 348q18 6 37 6q76 1 76 -124q0 -98 -88 -134q-98 -39 -152 -84q-59 -49 -106 -137q-104 -190 -105 -411q0 -176 70 -326q43 -92 102 -141q51 -43 154 -82q84 -33 84 -119q0 -135 -82 -135q-16 0 -33 4q-252 66 -385 305 q-117 207 -117 489z" />
<glyph unicode=")" horiz-adv-x="790" d="M78 -16q0 96 88 131q98 39 149 84q59 47 107 135q104 190 104 411q0 176 -69 328q-43 90 -103 141q-51 45 -151 82q-86 33 -86 119q0 137 84 137q16 0 35 -4q248 -63 382 -311q119 -216 119 -492q0 -289 -135 -534q-152 -276 -409 -346q-20 -6 -37 -6q-78 0 -78 125z" />
<glyph unicode="*" horiz-adv-x="1318" d="M117 1255q0 51 24 97q27 55 74 55q39 0 138.5 -55.5t123.5 -55.5q29 0 29 70q0 55 34.5 100t88.5 45q57 0 78 -61q6 -23 16 -117q6 -61 31 -61q47 0 166.5 79t150.5 79q43 0 66 -44q18 -35 18 -79q0 -63 -43 -111q-29 -29 -100.5 -72t-100.5 -69q-4 -4 -4 -11 q0 -33 205 -155q90 -55 94 -58q49 -39 49 -92q0 -49 -22 -96q-27 -57 -70 -57q-35 0 -191.5 99t-180.5 99q-14 0 -15 -159q0 -170 -137 -170q-61 0 -76 84q-2 18 -2 131q0 143 -37 143q-39 0 -145.5 -108.5t-151.5 -108.5q-39 0 -67 51q-25 43 -25 86q0 78 120 177.5 t120 123.5l-2 10q-20 18 -158 95q-98 53 -98 116z" />
<glyph unicode="+" horiz-adv-x="968" d="M78 715q0 78 49 104q27 14 119 25q123 12 123 28q0 23 -2 68t-2 68q0 225 106 225q111 0 111 -176q0 -25 -2 -69t-2 -60q0 -39 5 -46.5t42 -7.5q31 0 91 9.5t91 9.5q88 0 88 -129q0 -104 -92 -123q-102 -18 -180 -18q-27 0 -31 -76q-6 -106 -17 -139q-25 -74 -98 -74 q-63 0 -86 63q-14 37 -16 119q0 70 -12.5 77t-30.5 7q-27 0 -75 -9t-75 -9q-104 0 -104 133z" />
<glyph unicode="," horiz-adv-x="577" d="M72 -100q0 59 41 100q74 74 116 195q63 182 78 208q39 76 105 76q43 0 72.5 -32.5t29.5 -77.5q0 -25 -12 -58q-37 -88 -107 -268q-29 -84 -88 -166q-74 -102 -139 -102q-45 0 -72 43q-25 37 -24 82z" />
<glyph unicode="-" horiz-adv-x="946" d="M80 713q0 111 92 123q61 8 152 8q78 2 153 2q57 2 171 25.5t159 23.5q90 0 90 -131q0 -109 -92 -123q-45 -8 -303 -16q-51 -2 -168 -25q-109 -18 -160 -18q-94 0 -94 131z" />
<glyph unicode="." horiz-adv-x="858" d="M117 125q0 78 69 102q16 6 240 47q12 2 240 70q23 6 36 6q78 0 78 -125q0 -106 -88 -133q-53 -16 -213 -39q-74 -10 -213 -57q-29 -10 -51 -10q-49 0 -76 47q-23 41 -22 92z" />
<glyph unicode="/" horiz-adv-x="968" d="M16 -98q0 25 13 61q10 29 110 246q170 352 502 1061q37 94 123 274q41 76 92 76q43 0 81 -30.5t38 -71.5q0 -27 -17 -66q-2 -4 -122 -240q-367 -713 -517 -1093q-29 -84 -96 -250q-37 -80 -86 -80q-43 0 -82 34t-39 79z" />
<glyph unicode="0" horiz-adv-x="1523" d="M53 567q0 326 271 570q264 236 594 235q244 0 407.5 -164.5t163.5 -408.5q0 -262 -164 -451q-119 -139 -299 -235q-195 -109 -360 -109q-254 0 -430 154q-182 160 -183 409zM266 590q0 -160 127 -252q111 -80 279 -80q190 0 428 180q178 133 178 346q0 145 -107 242 q-102 90 -249 90q-184 0 -400 -121q-256 -145 -256 -405z" />
<glyph unicode="1" horiz-adv-x="757" d="M59 1061q0 102 93 125q119 29 183 58.5t161 103.5q37 29 67 28q49 0 78 -49q25 -41 25 -92q0 -113 -14.5 -340t-14.5 -340q0 -70 9 -211t9 -211q0 -51 -34.5 -92t-85.5 -41q-78 0 -93 102q-16 115 -16 361q0 68 4 205t4 206q0 117 -28 117q-43 0 -126 -29.5t-126 -29.5 q-94 0 -95 129z" />
<glyph unicode="2" horiz-adv-x="1366" d="M86 1106q0 86 59 129q96 70 304 123q190 49 327 49q432 0 432 -326q0 -156 -155 -295q-137 -106 -277 -213q-166 -135 -248 -260q-6 -10 -6 -16q0 -43 283 -43q223 0 385 96q35 20 57 21q37 0 60 -54q18 -43 18 -88q0 -125 -209 -182q-137 -37 -311 -37q-53 0 -158.5 4 t-159.5 4q-109 0 -258 -41q-23 -6 -36 -6q-78 0 -78 133q0 41 20 72q254 424 707 739q39 27 78 70q51 53 51 86q0 74 -238 74q-137 0 -309 -51q-27 -8 -141 -62q-102 -47 -115 -47q-41 0 -64 41q-18 35 -18 80z" />
<glyph unicode="3" horiz-adv-x="1335" d="M82 274q0 43 38 92.5t79 49.5q25 0 73 -54q68 -68 119 -98q90 -53 211 -53q135 0 256 63q133 70 184 185q6 16 7 30q0 84 -228 119q-150 12 -299 27q-92 14 -92 98q0 119 74 146q29 10 172 10q236 0 305 123q14 29 14 47q0 51 -141 76q-94 18 -195 18q-246 0 -374 -119 q-41 -37 -74 -37q-43 0 -68 47q-23 39 -22 86q0 141 231 224q174 63 348 63q186 0 332 -67q186 -88 187 -256q0 -176 -138 -314q82 -37 136 -98q61 -72 61 -154t-51 -184q-92 -176 -268.5 -279.5t-376.5 -103.5q-326 0 -476 242q-25 39 -24 71z" />
<glyph unicode="4" horiz-adv-x="1284" d="M59 698q0 117 39 275l74 270q27 106 111 107q102 0 102 -93q0 -70 -51 -216t-51 -224q0 -41 10 -69q18 -59 131 -72q16 -2 166 -2q268 0 278 45q27 111 29 311v72q0 100 4 164q8 111 96 110q53 0 84 -41t31 -96q0 -76 -11 -228.5t-11 -230.5q0 -43 4 -46t88 -52 q45 -25 45 -88q0 -147 -125 -148q-14 0 -15 -73q0 -39 7.5 -113t7.5 -110q0 -145 -127 -146q-72 0 -88 109q-2 14 -8 204q-4 109 -43 109q-49 0 -148.5 -2t-148.5 -2q-225 0 -291 14q-166 39 -185 187q-4 31 -4 75z" />
<glyph unicode="5" horiz-adv-x="1236" d="M72 250q0 49 27.5 95t72.5 46q23 0 74 -35q68 -47 108 -65q80 -35 168 -35q123 0 250 61q70 33 127 80q82 66 82 117q0 66 -129 102q-94 29 -182 29q-168 0 -451 -80q-18 -4 -29 -4q-39 0 -64.5 41t-25.5 82t11 115q12 86 14 114q8 111 8 254q0 39 37 97q29 47 41 55 q20 18 65 18h17q78 0 211 13q150 14 209 16q184 6 205 6q92 0 92 -119q0 -123 -95 -133q-68 -8 -184 -8q-133 0 -182 -4q-190 -12 -174 -12q-16 0 -27 -72q-8 -55 -8 -92t14.5 -48.5t53.5 -11.5t114.5 7.5t114.5 7.5q242 0 367 -58q178 -81 178 -290q0 -242 -217 -396 q-195 -137 -447 -137q-137 0 -274 55q-172 74 -172 189z" />
<glyph unicode="6" d="M76 446q0 299 195.5 591t471.5 403q33 12 54 12q45 0 71 -49q20 -43 21 -92q0 -66 -68 -103q-305 -168 -397 -338q-4 -6 -4 -10q0 -8 14 -8q23 0 103 33q244 96 399 96q172 0 270.5 -107.5t98.5 -281.5q0 -291 -226 -481q-213 -180 -508 -181q-496 0 -495 516zM289 418 q0 -242 291 -242q152 0 291 81t210 214q33 64 33 125q0 59 -49 99t-113 40q-100 0 -309 -82q-197 -76 -293 -141q-61 -43 -61 -94z" />
<glyph unicode="7" horiz-adv-x="1134" d="M6 1167q0 66 47 111t115 55q113 16 530 27q51 2 172 12q111 8 172 8q109 0 109 -139q0 -68 -68 -102q-115 -59 -190 -240q-86 -197 -170 -391q-96 -227 -145 -402q-33 -109 -107 -108q-55 0 -86 51q-25 43 -25 103q0 117 89 303q72 143 145 288q27 76 96 222q33 59 33 90 q0 51 -158 51q-180 0 -293.5 -24.5t-158.5 -24.5q-47 0 -77 31.5t-30 78.5z" />
<glyph unicode="8" horiz-adv-x="1331" d="M72 309q0 190 166 330q-166 88 -166 264q0 233 231 381q201 129 447 129q184 0 299 -61q129 -68 194 -226q25 -57 25 -98q0 -63 -58 -164q-51 -92 -106 -141q63 -45 120.5 -146.5t57.5 -177.5q0 -162 -207 -299q-182 -121 -358 -131q-35 -2 -80 -2q-225 0 -367 62 q-199 88 -198 280zM281 354q0 -10 4 -18q55 -123 295 -123q133 0 274 45q187 60 193 160q-51 135 -279 135q-82 0 -174 -19.5t-182 -60.5q-131 -59 -131 -119zM281 948q0 -8 4 -16q59 -123 268 -123q143 0 289 43q199 58 205 162q-51 135 -275 135q-76 0 -160 -16 q-94 -18 -192 -62q-139 -61 -139 -123z" />
<glyph unicode="9" horiz-adv-x="1298" d="M72 895q0 258 225 412q201 137 469 137q223 0 354 -119t131 -340q0 -330 -182 -620q-186 -299 -483 -420q-31 -12 -56 -13q-47 0 -71 50q-23 41 -23 92q0 66 70 102q182 100 276 189q119 111 191 276q31 74 31 98q0 20 -19 21q-23 0 -113 -51q-131 -74 -229 -105 q-145 -47 -254 -47q-147 0 -232 94t-85 244zM266 909q0 -92 174 -92q109 0 316 105q225 114 223 204q-70 78 -207 78q-162 0 -313 -67q-193 -84 -193 -228z" />
<glyph unicode=":" horiz-adv-x="759" d="M98 664q0 76 70 100q43 16 94 18q72 4 98.5 9.5t163.5 46.5q23 6 37 6q78 0 78 -125q0 -106 -88 -133q-27 -8 -70 -11q-55 -2 -67 -4q-86 -12 -166 -39q-31 -10 -51 -10q-49 0 -76 49q-23 39 -23 93zM102 143q0 78 70 103q43 14 94 18q72 4 98.5 9.5t163.5 45.5 q20 6 37 7q78 0 78 -125q0 -106 -88 -133q-27 -8 -70 -11q-55 -2 -67 -4q-86 -12 -166 -39q-31 -10 -51 -10q-49 0 -76 47q-23 41 -23 92z" />
<glyph unicode=";" horiz-adv-x="733" d="M72 -100q0 59 41 100q74 74 116 195q63 182 78 208q39 76 105 76q43 0 72.5 -32.5t29.5 -77.5q0 -25 -12 -58q-37 -88 -107 -268q-29 -84 -88 -166q-74 -102 -139 -102q-45 0 -72 43q-25 37 -24 82zM98 725q0 76 70 100q43 16 94 19q72 4 98.5 9t163.5 46q23 6 37 6 q78 0 78 -125q0 -106 -88 -133q-27 -8 -70 -10q-55 -2 -67 -4q-86 -12 -166 -39q-31 -10 -51 -10q-49 0 -76 49q-23 39 -23 92z" />
<glyph unicode="&#x3c;" horiz-adv-x="1099" d="M61 557q0 74 43 117q123 109 363 334q98 96 211 190q172 141 223 141q78 0 78 -118q0 -86 -55 -131q-162 -129 -211 -168q-115 -96 -199 -183q-92 -94 -92 -110q0 -33 108 -109q231 -160 422 -231q70 -27 70 -88q0 -55 -29 -103q-35 -53 -86 -53q-80 0 -217 74 q-113 61 -196 131q-129 104 -369 207q-63 27 -64 100z" />
<glyph unicode="=" horiz-adv-x="1308" d="M74 463q0 102 89 116.5t224 18.5q113 4 223 8q74 2 248 35q164 31 227 31q91 0 91 -131q0 -102 -91 -121q-119 -25 -448 -39q-72 -2 -238 -29q-154 -25 -231 -24q-94 0 -94 135zM145 885q0 104 91.5 119.5t224.5 21.5q113 4 223 10q72 2 246 33q162 29 229 29 q90 0 90 -131q0 -102 -90 -121q-119 -25 -448 -39q-72 -2 -238 -29q-154 -25 -233 -24q-94 0 -95 131z" />
<glyph unicode="&#x3e;" horiz-adv-x="1099" d="M80 1184q0 57 30.5 107t84.5 50q80 0 217 -75q111 -59 196 -129q117 -98 371 -207q61 -27 61 -103t-41 -114q-125 -109 -364 -334q-340 -338 -436 -338q-39 0 -62 55q-18 41 -18 88q0 68 59 113q143 111 211 168q115 94 199 182q92 96 92 111q0 33 -109 108 q-225 158 -421 232q-70 27 -70 86z" />
<glyph unicode="?" horiz-adv-x="1214" d="M94 1110q0 178 248 299q166 82 406 127q47 8 90 8q143 0 231 -90t88 -231q0 -211 -156 -359q-96 -90 -339 -211q-31 -14 -95 -55q4 -14 4 -29q0 -53 -38.5 -105t-88.5 -52q-86 0 -86 176q0 119 111 207q41 33 231 135q150 82 201 157q47 68 47 111q0 78 -166 78 q-102 0 -260 -53q-186 -61 -207 -136q-12 -45 -53 -82.5t-84 -37.5q-84 0 -84 143zM184 80q0 78 70 102q35 12 240 47q8 0 239 70q23 6 39 6q76 0 76 -125q0 -104 -88 -133q-16 -6 -243.5 -56t-233.5 -50q-47 0 -76 47q-23 41 -23 92z" />
<glyph unicode="@" horiz-adv-x="1910" d="M68 500q0 164 59 331q211 606 817 607q481 0 768 -434q148 -226 148 -447q0 -266 -218 -410q-119 -78 -215 -77q-74 0 -139 43q-33 20 -94 80q-45 43 -66 43q-8 0 -14 -7q-80 -78 -227 -77q-352 0 -352 333q0 207 104 342q113 152 313 152q109 0 215 -45 q100 -43 129 -166q14 -113 27 -227q25 -131 119 -185q29 -16 55 -16q74 0 115 98q31 78 30 164q0 72 -28 139q-84 197 -286 322t-419 125q-250 0 -445.5 -209t-195.5 -461q0 -152 80 -229q31 -31 146 -84q80 -37 79 -92q0 -59 -33.5 -105.5t-90.5 -46.5q-74 0 -170 70 q-88 63 -129 135q-82 145 -82 334zM735 475q0 -92 146 -92q225 0 225 195q0 162 -105 161q-80 0 -173 -93t-93 -171z" />
<glyph unicode="A" d="M23 94q0 41 98 213q66 111 129 221q125 223 248 445q197 344 250 395q47 43 126 43q80 0 113 -55q35 -61 57 -201q27 -172 39 -213q43 -143 134 -352q131 -311 145 -348q10 -24 10 -47q0 -55 -44 -99.5t-97 -44.5q-80 0 -103 88q-14 72 -30 144q-53 108 -128 108h-1 q-92 0 -334 -61q-256 -66 -301 -111q-31 -35 -70 -110q-18 -51 -37 -103q-29 -63 -77 -63q-45 0 -86 52t-41 99zM520 555q195 55 428 90q-61 162 -76 207q-41 117 -59 211q-51 -100 -143 -256q-121 -203 -150 -252z" />
<glyph unicode="B" horiz-adv-x="1501" d="M61 1155q0 82 66 115q297 153 610 153h4q213 0 310 -41q149 -66 149 -247q0 -139 -106 -250q147 -8 243 -56q133 -63 133 -188q0 -61 -22 -131q-47 -135 -274 -285q-174 -115 -367 -190q-209 -82 -391 -82q-186 0 -248 127q-41 84 -41 293q0 102 10 192q-8 23 -8 53 q-31 37 -31 97q0 88 66 114q0 20 6 64.5t6 67.5q0 25 -8 24q-18 0 -74 74q-33 43 -33 96zM342 360q0 -70 8 -131q14 -14 60 -14q154 0 477 119q362 131 362 246q0 61 -170 61q-371 0 -729 -117q-8 -94 -8 -164zM387 811q10 -8 35 -8q86 0 313 121q238 124 254 194 q-53 63 -192 64q-131 0 -387 -70q0 -106 -23 -301z" />
<glyph unicode="C" horiz-adv-x="1378" d="M51 543q0 223 96 389q123 211 379 350q248 135 500 135q115 0 193 -35q104 -47 104 -147q0 -160 -129 -160q-59 0 -72.5 46t-97.5 46q-96 0 -229 -41q-535 -164 -535 -587q0 -315 391 -316q178 0 279 37q127 49 207 180q37 59 77 60q45 0 74 -49.5t29 -96.5 q0 -33 -14 -63q-70 -156 -283 -248q-182 -78 -377 -78q-592 0 -592 578z" />
<glyph unicode="D" horiz-adv-x="1503" d="M47 1071q0 63 49 115q115 117 375 174q197 45 420 45q203 0 313 -43q145 -55 228 -209q57 -107 57 -211q0 -238 -293 -491q-221 -193 -510 -322q-350 -160 -475 -160q-57 0 -82 39q-39 57 -39 199q0 74 12 186q20 170 21 187q25 297 24 286q0 51 -50 86t-50 119zM307 248 q348 92 780 428q175 135 175 280q0 201 -371 201q-285 0 -506 -92q-10 -94 -43 -430q-35 -360 -35 -387z" />
<glyph unicode="E" horiz-adv-x="1306" d="M35 109q0 80 18 192q16 94 35 191q23 137 72 411q14 84 14 107q0 8 -6 14h-1q-24 0 -44 68q-16 57 -17 92q0 68 66 100q152 78 547 148q76 16 151 32q92 18 152 19q182 0 182 -125q0 -51 -24 -96q-27 -55 -74 -56q-14 0 -43 8.5t-45 8.5q-94 0 -246 -31 q-123 -29 -246 -57q-45 -10 -67 -19q-41 -18 -51.5 -42.5t-21.5 -98.5t-11 -103q0 -25 31 -24q31 0 106 20q403 106 670 107q88 0 88 -94q0 -152 -121 -162q-197 -14 -420 -55q-299 -55 -387 -119q-27 -20 -47 -109q-16 -76 -16 -125q0 -75 46 -75h1q20 0 63 12l356 114 q233 68 363 68q100 0 100 -135q0 -104 -92 -119q-387 -57 -889 -264q-31 -12 -59 -12q-133 0 -133 209z" />
<glyph unicode="F" horiz-adv-x="1224" d="M74 139q0 80 43 350q-4 18 -4 37q0 35 16 64q29 365 29 371q0 39 -24.5 82.5t-24.5 107.5q0 80 63 113q125 66 369 116q195 35 389 72q51 10 94 10q180 0 180 -123q0 -51 -22 -98q-29 -55 -74 -55q-18 0 -50 10t-50 10q-61 0 -304 -52t-276 -73.5t-53 -148.5 q-16 -102 -17 -168q0 -37 33 -37t117 23q334 92 575 92q90 0 91 -97q0 -152 -121 -159q-188 -12 -299 -35q-135 -29 -215 -51q-158 -43 -192 -84t-34 -250q0 -109 -14 -154q-25 -90 -104 -90q-121 0 -121 217z" />
<glyph unicode="G" horiz-adv-x="1699" d="M33 391q0 211 133 430q125 209 309 332q45 31 189 109q326 178 532 178q76 0 124 -43t48 -119q0 -57 -36 -95t-93 -38q-29 0 -70 16.5t-49 16.5q-25 0 -123 -35q-201 -70 -343 -158t-275 -254q-152 -188 -152 -330q0 -113 174 -168q122 -40 264 -40h7q397 0 663 317 q66 80 66 123q0 72 -137 72q-92 0 -228 -39q-152 -41 -207 -95q-45 -43 -71 -43q-37 0 -66 58q-27 49 -26 90q0 133 237 213q182 63 350 63q150 0 254 -47q135 -63 135 -196q0 -33 -6 -70q-63 -315 -372 -518q-285 -184 -623 -184q-195 0 -352 69q-195 84 -238 246 q-18 66 -18 139z" />
<glyph unicode="H" horiz-adv-x="1191" d="M68 158q0 381 96 1063q14 110 104 110h2q47 -1 77 -35q28 -32 28 -78v-6v-16q-4 -57 -25 -197q-18 -127 -18 -198q0 -76 28 -76q66 0 193 33q184 47 197 49q112 23 112 45q0 6 -20 211q-4 51 -23 123q-16 55 -16 88q0 49 24 94q31 53 76 53q35 0 68 -35q74 -80 96 -258 q6 -57 10 -284q72 -27 72 -121q0 -86 -64 -117q8 -311 9 -389q0 -55 -40 -102t-93 -47q-63 0 -76 71q-4 18 -4 119q0 281 -37 295q-16 6 -37 6q-53 0 -199 -39q-100 -29 -202 -57q-61 -16 -90 -44t-35 -134v-152q0 -172 -142 -172q-57 0 -69 76q-2 16 -2 121z" />
<glyph unicode="I" horiz-adv-x="1191" d="M74 1112q0 74 67 105q150 70 420 137q277 69 430 69h4q100 0 101 -131q0 -86 -72 -114q-35 -14 -158 -25q-109 -8 -153 -41q-33 -25 -39 -137q-18 -307 -19 -438q0 -172 11 -228q4 -35 55 -35q47 0 142 18.5t143 18.5q159 0 159 -127q0 -55 -30 -100q-33 -53 -86 -53 q-14 0 -44 8t-47 8q-31 0 -86 -8q-152 -25 -301 -51q-180 -29 -303 -29q-186 0 -186 139q0 49 25.5 86t72.5 37q23 0 67 -7t66 -7q137 0 138 145q0 18 -2.5 58.5t-2.5 60.5q0 80 7.5 240.5t7.5 240.5q0 94 -35 95q-45 0 -135 -37t-125 -37q-47 0 -72 49q-20 39 -20 90z" />
<glyph unicode="J" horiz-adv-x="1409" d="M39 397q0 143 88 144q86 0 109 -58q2 -4 16 -127q12 -82 63 -118q70 -49 170 -50q102 0 203 48q252 119 252 524q0 295 -47 344q-12 14 -51 14q-57 0 -171 -18.5t-173 -18.5q-184 0 -185 131q0 137 95 138q29 0 83 -7.5t80 -7.5q72 0 152 17q256 55 487 86q27 4 47 4 q61 0 102.5 -36t41.5 -95q0 -41 -23 -80q-33 -57 -80 -68q-10 -2 -104 -2q-66 0 -66 -80q0 -47 8.5 -140t8.5 -140q0 -305 -60 -465q-84 -225 -317 -332q-137 -63 -272 -63q-207 0 -332 123.5t-125 332.5z" />
<glyph unicode="K" horiz-adv-x="1292" d="M61 449q0 39 21 75q31 485 90 736q25 108 113 108h2q45 0 70.5 -30.5t25.5 -75.5q0 -70 -29.5 -215.5t-29.5 -221.5q0 -16 12 -16q41 0 350 272q229 203 363 332q39 39 69 39q37 0 65.5 -52t28.5 -95q0 -47 -36 -91q-119 -137 -514 -458q-35 -27 -99 -86q-6 -8 -6 -17 q0 -31 113 -82q168 -76 342 -186q250 -160 250 -248q0 -45 -33 -98t-74 -53q-31 0 -68 30q-317 248 -585 353q-166 63 -189 63q-37 0 -37 -326q0 -174 -143 -174q-47 0 -61 48q-6 25 -6 88q0 94 10 313q-14 33 -15 68z" />
<glyph unicode="L" horiz-adv-x="1265" d="M78 231q0 47 6 105q20 172 35 479q14 336 28 479q10 113 99 113q53 0 82.5 -41t29.5 -96q0 -139 -20.5 -418t-20.5 -420q0 -110 38 -110h1q29 0 82 30q41 23 80 45q334 162 602 162q117 0 117 -141q0 -100 -92 -111q-381 -43 -674 -207q-61 -39 -123 -80 q-72 -43 -135 -43q-135 0 -135 254z" />
<glyph unicode="M" horiz-adv-x="1464" d="M23 27q0 53 34 137q29 68 58 135q145 410 227 899q20 121 137 121q70 0 94 -43q18 -31 19 -107q0 -111 31 -213q102 -350 133 -350q41 0 116 217q55 162 78 267q23 96 86 213q80 145 152 145q39 0 83 -44t44 -85q0 -23 -27.5 -85.5t-27.5 -109.5q0 -49 18 -131 q25 -113 27 -131q33 -217 155 -639q6 -23 6 -43q0 -49 -34.5 -94t-83.5 -45q-55 0 -86 76q-76 201 -138 501q-25 121 -45 121q-6 0 -14 -10q-12 -16 -27 -61q-20 -61 -24 -68q-29 -66 -78 -223q-47 -143 -85 -221t-101 -78q-131 0 -136 139q-4 133 -90 354l-20 50 q-18 35 -31 38q-10 -4 -39 -90q-82 -248 -139 -438q-66 -219 -199 -219q-37 0 -57 41q-16 33 -16 74z" />
<glyph unicode="N" horiz-adv-x="1228" d="M59 98q0 70 41 269q31 141 62 280q51 248 51 535q0 51 39 101t88 50q51 0 78 -78q141 -436 377 -729q70 -86 100 -86q41 0 41 279q0 164 -6 274q-2 35 -19 125q-14 80 -14 125q0 51 32 101.5t81 50.5q147 -1 147 -353q0 -51 -4 -150t-4 -149v-161q2 -109 2 -162 q0 -225 -6 -314q-4 -47 -35 -79.5t-78 -32.5q-86 0 -282 219q-143 158 -242 301q-86 125 -113 125q-6 0 -10 -6q-39 -66 -55 -260q-18 -242 -27 -279q-27 -110 -129 -110h-2q-49 0 -81 31.5t-32 82.5z" />
<glyph unicode="O" horiz-adv-x="1523" d="M53 567q0 326 271 570q263 235 591 235h3q244 0 407.5 -164.5t163.5 -408.5q0 -262 -164 -451q-119 -139 -299 -235q-195 -109 -360 -109q-254 0 -430 154q-182 160 -183 409zM266 590q0 -160 127 -252q111 -80 279 -80q190 0 428 180q178 133 178 346q0 145 -107 242 q-102 90 -249 90q-184 0 -400 -121q-256 -145 -256 -405z" />
<glyph unicode="P" horiz-adv-x="1275" d="M39 1120q0 68 61 105q143 84 420 131q227 37 445 37q152 0 213 -33q88 -50 88 -191q0 -111 -88 -202q-315 -336 -830 -463q-51 -14 -51 -365q0 -61 -37 -112.5t-96 -51.5q-55 0 -72 60q-8 27 -8 102q0 397 49 705q12 70 12 90q0 27 -10 24q-12 -2 -14 -2q-33 0 -60 68 q-23 57 -22 98zM336 762q115 16 228.5 64t252.5 132q172 105 217 177q-12 0 -42.5 5t-49.5 5q-233 0 -559 -82q-31 -168 -47 -301z" />
<glyph unicode="Q" horiz-adv-x="1527" d="M43 555q0 330 270 575q262 242 596 242q244 0 408 -165t164 -408q0 -166 -74 -307q-53 -106 -53 -101q0 -23 73.5 -71.5t73.5 -114.5q0 -49 -20 -94q-29 -57 -70 -58q-39 0 -132 65.5t-130 65.5q-6 0 -10 -2q-25 -16 -76 -47q-213 -127 -404 -127q-252 0 -428 146 q-188 156 -188 401zM258 590q0 -162 127 -252q113 -80 283 -80q39 0 102 14q78 18 82 43l-6 11q-25 18 -75 36.5t-66 34.5q-29 27 -29 78q0 145 94 146q59 0 184 -51.5t162 -51.5q72 0 117 103q37 83 37 165q0 145 -105.5 237.5t-253.5 92.5q-182 0 -397 -121 q-256 -143 -256 -405z" />
<glyph unicode="R" horiz-adv-x="1468" d="M100 106q0 213 9 441q2 57 24 186q18 119 19 185q0 27 -18.5 75.5t-18.5 79.5q0 76 70.5 155t144.5 79q20 0 39 -9q373 104 835 105q102 0 169 -61.5t67 -165.5q0 -127 -209 -289q-143 -111 -328 -201q356 -238 424 -532q4 -23 4 -41q0 -51 -41 -97.5t-90 -46.5 q-45 0 -70 78q-63 201 -225 330q-170 137 -379 137q-10 0 -67 2q-22 1 -39.5 1t-30.5 -1q-35 -4 -63 -16q-2 -43 -2 -86q0 -39 5 -114t5 -112q0 -182 -156 -182q-78 0 -78 100zM352 780q178 4 439 123q246 113 385 244q-51 8 -105 8q-229 0 -680 -113q-29 -162 -39 -262z " />
<glyph unicode="S" horiz-adv-x="1386" d="M27 231q0 51 39.5 101.5t93.5 50.5q35 0 55 -51q29 -72 53 -96q53 -51 168 -52q168 0 295 76q109 66 199 143q129 113 129 189q0 43 -70 43q-25 0 -63 -6q-252 -43 -396 -43q-434 0 -434 198q0 160 101 291q90 119 337.5 242t395.5 123q188 0 188 -174q0 -51 -32.5 -90 t-84.5 -39q-49 0 -73.5 18.5t-46.5 18.5q-59 0 -189 -52q-106 -41 -184 -84q-51 -29 -107 -71q-78 -59 -77 -90q0 -51 233 -52q125 0 352.5 61.5t296.5 61.5q53 0 88 -61q27 -52 27 -111q0 -47 -14 -110q-39 -150 -78 -230q-100 -209 -329.5 -354t-461.5 -145 q-150 0 -268 71q-143 82 -143 223z" />
<glyph unicode="T" horiz-adv-x="1165" d="M2 1180q0 104 94 120q168 27 455 39q74 2 248 27q164 23 233 23q92 0 92 -129q0 -102 -92 -123q-57 -12 -192 -27q-113 -12 -113 -25q0 -31 5 -91t5 -91q0 -45 -4 -136t-4 -136t5 -135t5 -136q0 -370 -156 -370h-1q-49 0 -78 45q-25 39 -25 90q0 25 8 53q31 102 31 352 q0 532 -39 549h-12q-61 0 -183 -15t-184 -15q-98 0 -98 131z" />
<glyph unicode="U" horiz-adv-x="1439" d="M70 547q0 401 104 702q31 84 88 84q49 0 81 -44t32 -93q0 -18 -6 -39q-90 -389 -90 -723q0 -111 28 -162q40 -73 143 -73h3q29 0 67 8q332 59 496 182q143 106 143 402q0 88 -13 181t-77 271q-10 29 -10 51q0 49 33.5 88t81.5 39q102 0 161 -266q43 -194 43 -356 q0 -375 -202 -580q-184 -186 -560 -246q-74 -12 -137 -12q-260 0 -348 176q-61 121 -61 410z" />
<glyph unicode="V" horiz-adv-x="1161" d="M43 1159q0 49 34 88t81 39q55 0 94 -72q10 -18 143 -311q76 -168 127 -323q39 -117 53 -117q6 0 9 2q18 10 168 383q166 414 182 448q41 78 100 78q45 0 76 -35t31 -82q0 -25 -11 -53q-49 -135 -190 -475q-125 -301 -184 -479q-33 -94 -88 -160q-72 -84 -156 -84 q-70 0 -106 137q-23 100 -44 199q-43 158 -145 387q-143 328 -164 379q-10 27 -10 51z" />
<glyph unicode="W" horiz-adv-x="1452" d="M33 1198q0 49 33.5 92t80.5 43q57 0 91 -76q43 -102 92 -276q61 -219 82 -279q4 -14 10 -14q33 0 115 236q47 143 96 286q35 80 131 80t104 -98q23 -299 138 -471q4 -6 8 -6q20 0 51 112l33 125q33 150 67 299q63 205 172 205q39 0 71 -31.5t32 -72.5q0 -45 -37 -144 q-51 -141 -53 -147q-111 -383 -140 -608q-8 -100 -28 -299q-14 -109 -148 -109q-113 0 -112 105q0 180 -125 495q-18 47 -31 68q-25 49 -41 53l-10 -6q-106 -147 -195 -717q-18 -117 -125 -117q-82 0 -108 62q-16 37 -17 129q0 256 -63 497q-6 29 -96 312q-78 252 -78 272z " />
<glyph unicode="X" horiz-adv-x="1212" d="M43 1159q0 49 25 94q29 55 73 56q31 0 64 -35q10 -10 174 -217q145 -180 162 -180q29 0 131 141q209 291 397 381q33 16 57 16q43 0 68 -53q18 -41 18 -90q0 -66 -63 -105q-244 -143 -436 -481q-2 -6 -2 -12q0 -66 178 -298.5t178 -277.5q0 -43 -39 -90t-80 -47 q-51 0 -203.5 224.5t-201.5 224.5q-10 0 -21 -11q-164 -184 -194 -305q-27 -104 -111 -104q-104 0 -104 90q0 94 69 221q23 43 127 205q70 106 70 145q0 35 -135 205q-86 106 -172 213q-29 37 -29 90z" />
<glyph unicode="Y" horiz-adv-x="1204" d="M37 1237q0 47 29.5 85t76.5 38q51 0 80 -47q43 -78 142 -230q127 -166 270 -290q6 -6 14 -7q35 0 99 107q94 174 303 508q39 57 82 57q45 0 73.5 -44t28.5 -91q0 -37 -18 -72q-129 -211 -381 -637q-90 -160 -183 -321q-106 -184 -192 -313q-41 -61 -80 -62q-41 0 -76 45 t-35 88q0 47 120 233.5t120 243.5q0 43 -123 183q-188 213 -227 262q-123 162 -123 264z" />
<glyph unicode="Z" horiz-adv-x="1110" d="M53 113q0 63 37 104q160 178 320 358q180 209 274 394q33 66 33 96q0 31 -64 31q-43 0 -116 -13q-86 -12 -116 -13t-110 -13q-72 -10 -108 -10q-92 0 -92 127q0 104 94 124q119 27 332 41q53 2 188 27q125 23 168 23t69.5 -43t26.5 -91q0 -166 -121 -397 q-80 -152 -223 -350q-121 -166 -121 -172q0 -12 62 -12q57 0 171.5 11t174.5 11q72 0 113.5 -41t41.5 -115q0 -116 -124 -116h-2q-20 0 -60.5 8t-62.5 8q-119 0 -354.5 -49t-346.5 -49q-84 0 -84 121z" />
<glyph unicode="[" horiz-adv-x="686" d="M70 1174q0 193 6 288q6 109 121 115q41 2 155 14q98 10 154 11q92 0 92 -132q0 -104 -102 -127q-90 -12 -183 -22q-29 -10 -28.5 -100.5t-1.5 -266.5v-266q0 -100 16 -297.5t16 -296.5q0 -45 107 -45h30.5h30.5q166 0 166 -98q0 -117 -63 -141q-25 -12 -160 -13 q-98 0 -170 -16q-31 -6 -45 -6q-94 0 -100 100q-8 264 -29 793q-12 307 -12 506z" />
<glyph unicode="\" horiz-adv-x="964" d="M12 1509q0 43 39 77t82 34q49 0 86 -80q31 -84 96 -250q150 -381 516 -1091q45 -78 123 -240q17 -41 17 -68q0 -41 -38 -71.5t-81 -30.5q-51 0 -92 76q-41 90 -123 272q-170 352 -502 1063q-41 82 -110 248q-12 37 -13 61z" />
<glyph unicode="]" horiz-adv-x="651" d="M18 1425q0 115 64 142q25 10 158 10q94 0 170 16q27 6 43 6q96 0 102 -100q12 -156 18 -397q8 -358 11 -397q12 -332 12 -525q0 -195 -6 -268q-2 -47 -37 -81t-85 -34t-154.5 -12t-155.5 -12q-92 0 -92 129q0 78 51 106q33 20 114 27q90 6 121 16t31 115q2 37 2 180 q2 113 2 180q0 362 -33 621q-6 51 -6 129q0 37 -76 45q-14 2 -108 2q-72 0 -103 16q-43 23 -43 86z" />
<glyph unicode="^" horiz-adv-x="1067" d="M68 1038q0 70 59 113q111 80 180 178q49 72 158 203q27 27 63 27q39 0 68 -23q39 -29 125 -121q27 -29 149 -133q96 -82 136 -143q20 -31 20 -70q0 -49 -31.5 -96t-79.5 -47q-43 0 -81.5 51t-145.5 145q-121 104 -160 105q-16 0 -163.5 -165t-217.5 -165q-39 0 -61 53 q-18 43 -18 88z" />
<glyph unicode="_" horiz-adv-x="1363" d="M80 -29q0 111 92 123q61 8 152 8q78 2 155.5 3t352 28t348.5 41q14 2 24 2q90 0 90 -131q0 -109 -90 -123q-98 -16 -702 -41q-51 0 -168 -22q-109 -18 -160 -19q-94 0 -94 131z" />
<glyph unicode="`" horiz-adv-x="843" d="M53 1540q0 70 99 70q23 0 47 -6q82 -23 239.5 -87.5t241.5 -86.5q143 -39 123 -117q-14 -55 -88 -56q-18 0 -35 5q-139 39 -537 190q-90 33 -90 88z" />
<glyph unicode="a" horiz-adv-x="1394" d="M23 82q0 27 16 63q23 53 83 144.5t83 136.5q117 236 166 342q90 193 151 350q51 127 123 205q43 47 125 78q8 3 32 3q12 0 27 -1l65 -4h-1h3q36 0 72 -45q38 -47 38 -90q0 -25 -15.5 -70t-15.5 -66q0 -70 145 -385q86 -162 252 -485q17 -30 16 -59q0 -49 -49 -106.5 t-96 -57.5q-61 0 -120.5 177t-121.5 177q-66 0 -311.5 -68.5t-314.5 -101.5q-41 -23 -101 -147q-51 -109 -112 -109q-49 0 -94 36t-45 83zM498 537q197 63 424 100q-59 127 -164 442q-170 -340 -260 -542z" />
<glyph unicode="b" horiz-adv-x="1525" d="M72 1145v18v8q0 64 65 93q358 157 749 157h5q483 0 483 -299q0 -145 -131 -260q252 -49 252 -231q0 -61 -25 -127q-47 -137 -272 -287q-176 -115 -369 -188q-211 -82 -395 -82q-256 0 -274 256q0 16 -8 88q-6 53 -7 88q0 63 15 180q-45 109 -45 156q0 70 59 104 q27 16 27 162q0 35 -13.5 36t-42.5 7q-68 29 -73 121zM371 487q0 -35 4 -102.5t4 -97.5q0 -6 8 -54q22 -26 42 -26h1q150 0 479 121q367 132 367 245q0 61 -184 62q-154 0 -362 -35t-359 -82v-31zM406 778q182 18 399 111q242 100 342 225q-106 68 -279 68q-182 0 -436 -78 q0 -76 -26 -326z" />
<glyph unicode="c" horiz-adv-x="1499" d="M70 541q0 449 446 698q305 170 617 170q121 0 200 -39q107 -51 107 -160q0 -55 -21 -98q-25 -55 -71 -55q-43 0 -89.5 53t-113.5 53q-281 0 -553 -159q-311 -182 -311 -439q0 -348 432 -348q203 0 307 31q147 47 235 184q39 61 72 62q41 0 76 -48.5t35 -91.5 q0 -76 -74 -157q-59 -63 -139 -111q-219 -129 -502 -129q-653 0 -653 584z" />
<glyph unicode="d" horiz-adv-x="1579" d="M68 1083q0 72 63 117q111 78 391 133q244 47 418 47q233 0 385 -61q215 -86 215 -283q0 -246 -205 -458q-233 -242 -485 -398q-315 -194 -581 -194h-3q-39 0 -63 2q-74 8 -90 102q-4 25 -4 158q0 106 28.5 318t28.5 319q0 47 -49 90t-49 108zM367 494q0 -111 4 -240 q270 31 559 235q305 215 381 461q6 17 6 35q0 121 -299 121q-291 0 -621 -78q-30 -232 -30 -516v-18z" />
<glyph unicode="e" horiz-adv-x="1327" d="M49 119q0 53 23 139q12 76 37 225q23 125 47 252q30 172 30 236q0 20 -27.5 65t-27.5 113q0 125 78 164q94 47 258 71q135 20 270 39q76 16 152 33q92 18 153 19q180 0 181 -123q0 -51 -23 -97q-29 -55 -74 -55q-14 0 -39.5 7t-39.5 7q-104 0 -306 -36q-211 -41 -301 -82 q-23 -10 -41 -113q-16 -88 -16 -131q0 -23 31 -23q27 0 94 19q432 125 678 125q94 0 94 -115q0 -147 -111 -156q-385 -29 -712 -131q-113 -35 -148 -172q-16 -68 -16 -147q0 -27 37 -27q35 0 114 29q457 168 680 168q104 0 105 -143q0 -113 -94 -127q-76 0 -224 -13 q-311 -47 -546 -182q-74 -41 -129 -41q-82 0 -134.5 59.5t-52.5 143.5z" />
<glyph unicode="f" horiz-adv-x="1306" d="M80 139q0 78 22 209q27 158 31 209q0 4 23 193q12 117 12 190q0 37 -26.5 98.5t-26.5 100.5q0 31 12 59q39 100 602 205q76 16 154 33q90 18 151 18q180 0 180 -123q0 -49 -22 -96q-29 -55 -76 -55q-16 0 -48 10t-50 10q-41 0 -498 -96q-43 -8 -67 -17q-49 -16 -56 -32 q-16 -47 -16 -168q0 -37 22 -56q14 -12 52 -14q33 -2 51 4q424 129 686 129q90 0 90 -96q0 -154 -123 -160q-330 -18 -674 -137q-90 -31 -117.5 -62.5t-35.5 -117.5q-12 -141 -13 -262q0 -201 -112 -201q-127 0 -127 225z" />
<glyph unicode="g" horiz-adv-x="1763" d="M49 375q0 215 137 440q129 217 318 338q47 31 196 111q340 184 553 184q78 0 128.5 -44t50.5 -120q0 -59 -37 -97t-97 -38q-29 0 -70.5 16.5t-51.5 16.5q-31 0 -127 -33q-209 -72 -360.5 -162t-289.5 -258q-157 -192 -157 -340q0 -119 184 -176q131 -41 285 -41 q412 0 688 320q76 86 76 133q0 75 -146 75h-4q-96 0 -240 -38q-160 -43 -217 -97q-45 -43 -71 -43q-35 0 -66 58q-27 49 -26 90q0 135 256 217q193 61 366 61q156 0 256 -49q133 -66 133 -207q0 -31 -6 -61q-63 -326 -385 -529q-293 -186 -645 -186q-201 0 -365 70 q-205 86 -247 252q-18 63 -19 137z" />
<glyph unicode="h" horiz-adv-x="1296" d="M80 262q0 350 74 883q16 112 104 112h2q49 0 78 -35.5t29 -84.5q0 -59 -20.5 -180t-20.5 -183v-51q6 -31 30 -31q25 0 146 31q135 37 162 43q135 23 301 65q24 13 24 94v7q0 211 -37 262q-31 45 -30 78q0 41 41 87t81 46q39 0 80 -47q86 -96 86 -305q0 -150 11.5 -446.5 t11.5 -446.5q0 -43 -2 -51q0 -55 -39 -100.5t-92 -45.5q-66 0 -78 80q-2 10 -2 129q0 352 -35 375q-20 14 -49 14q-80 0 -336 -63q-272 -66 -297 -105q-10 -16 -10 -108q0 -20 3 -60.5t3 -58.5q0 -172 -137 -172q-66 0 -80 106q-2 20 -2 162z" />
<glyph unicode="i" horiz-adv-x="559" d="M164 123q0 33 4 84q6 68 8 84q18 328 19 547q0 123 -5 227q-2 20 -8 92q-6 57 -6 92q0 119 109 119q57 0 94 -39t37 -96q0 -111 -13.5 -333t-13.5 -335q0 -70 8.5 -212t8.5 -212q0 -61 -38 -103t-100 -42q-104 0 -104 127z" />
<glyph unicode="j" horiz-adv-x="1556" d="M49 385q0 154 92 154q86 0 109 -60q8 -66 16 -129q12 -86 74 -123q74 -45 188 -45q225 0 379 117q166 127 174 346q2 51 2 127q0 293 -41 328q-16 12 -55 12q-57 0 -168.5 -17.5t-169.5 -17.5q-180 0 -180 131q0 137 92 138q27 0 82 -8.5t82 -8.5q72 0 154 19 q256 55 485 86q27 4 47 4q61 0 101 -34t40 -95q0 -176 -241 -176q-31 0 -31 -54q0 -45 9 -138t9 -142q0 -311 -88 -488q-106 -215 -370 -323q-135 -55 -273 -56q-223 0 -364 113q-154 123 -154 340z" />
<glyph unicode="k" horiz-adv-x="1396" d="M70 31q0 406 57 913v20q0 105 18 293q23 106 119 107q123 0 123 -98q0 -14 -2 -35q-23 -125 -43 -250q-25 -154 -25 -252q0 -51 23 -51q25 0 199 174q104 106 209 213q96 96 286 321q45 53 84 54q39 0 75 -42t36 -81q0 -63 -154 -232q-72 -80 -284 -288 q-152 -150 -152 -170q0 -29 90 -68q391 -168 606 -352q45 -39 45 -86q0 -45 -33.5 -96.5t-76.5 -51.5q-29 0 -68 27q-389 274 -680 367q-51 16 -94 16q-106 0 -135 -98q-12 -43 -12 -185q0 -170 -142 -170q-70 0 -69 101z" />
<glyph unicode="l" horiz-adv-x="1191" d="M57 190q0 68 17 158q33 166 67 469q37 332 62 471q18 113 108 113q49 0 79 -36q26 -32 26 -72v-11v-20q-8 -135 -35 -338q-25 -168 -47 -336q-23 -184 -23 -207q0 -49 31 -49q29 0 107 28q381 141 598 142q118 -1 118 -142q0 -100 -92 -110q-365 -39 -633 -160 q-10 -4 -121 -74q-74 -45 -133 -45q-129 0 -129 219z" />
<glyph unicode="m" horiz-adv-x="1622" d="M12 53q0 45 43 117q59 100 66 115q172 424 262 907q23 123 137 123q72 0 96 -37q16 -27 17 -98q0 -172 121 -461q49 -123 71 -123q6 0 9 2q43 14 182 408q33 98 135 323q31 72 78 88q20 6 43 6q53 0 90 -38.5t37 -92.5q0 -20 -9.5 -54t-9.5 -52q0 -240 115 -645 q0 -6 64 -195q47 -147 47 -174q0 -47 -41 -89t-86 -42q-49 0 -80 78q-82 195 -152 512q-14 59 -22 86q-20 68 -37 69q-8 -2 -12 -10q-66 -104 -138 -319q-78 -229 -127 -324q-35 -63 -80 -63q-53 0 -100 49t-49 102q-8 123 -98 352q-43 106 -66 107q-8 0 -24 -35 q-53 -102 -185 -502q-72 -221 -196 -221q-45 0 -74 45q-27 39 -27 86z" />
<glyph unicode="n" horiz-adv-x="1273" d="M33 86q0 68 43 272q33 141 65 283q53 252 54 535q0 55 39.5 104t93.5 49q47 0 73 -80q143 -438 430 -755q86 -96 117 -97q29 0 29 133q0 309 -8 457q-2 27 -11 117q-6 74 -6 119q0 176 80 176q49 0 94 -58q39 -49 52 -102q20 -84 20 -203q0 -49 -5 -149.5t-5 -149.5 q0 -53 2 -162v-161q0 -223 -6 -314q-8 -110 -109 -110h-2q-31 0 -63 20q-266 170 -514 525q-90 129 -119 129q-8 0 -12 -13q-35 -106 -66 -280q-41 -229 -53 -283q-25 -108 -115 -108h-2q-43 0 -69.5 30.5t-26.5 75.5z" />
<glyph unicode="o" horiz-adv-x="1585" d="M51 569q0 285 215 518q199 219 486 299q82 20 166 21q258 0 440 -162q188 -170 188 -426q0 -356 -286 -604q-295 -254 -627 -254q-252 0 -417 177t-165 431zM260 602q0 -166 104.5 -277.5t272.5 -111.5q213 0 451.5 158.5t244.5 390.5v26v15q0 156 -121 252 q-115 94 -286 94q-221 0 -434 -160q-231 -174 -232 -387z" />
<glyph unicode="p" horiz-adv-x="1425" d="M70 1104q0 74 67 110q141 78 465 136q291 53 488 53q329 0 329 -223q0 -125 -104 -224q-193 -190 -430 -299q-135 -61 -494 -176q-51 -16 -51 -350q0 -70 -40 -121t-107 -51q-88 0 -89 102q0 193 27 394q16 113 33 225q20 145 20 221q0 45 -57 85t-57 118zM379 745 q195 27 428 142q248 119 367 256q-45 10 -107 10q-137 0 -322 -35q-158 -33 -317 -65q-31 -154 -49 -308z" />
<glyph unicode="q" horiz-adv-x="1550" d="M45 571q0 242 135 422q125 170 320 287q213 127 405 127q262 0 445 -160q188 -168 188 -426q0 -240 -149 -446q-8 -12 -9 -23q0 -12 69 -64t69 -120q0 -45 -23 -90q-27 -55 -68 -55q-35 0 -115.5 55t-119.5 55q-29 0 -160 -65q-211 -106 -414 -107q-250 0 -413 182 q-160 174 -160 428zM252 600q0 -170 105.5 -278.5t275.5 -108.5q53 0 133 16q106 23 106 56q0 25 -47 37q-70 20 -86 30q-47 31 -47 97q0 141 94 141q68 0 225.5 -66.5t149.5 -66.5q53 0 111 127q49 111 51 178l2 31v10q0 155 -121 254q-115 96 -282 96q-221 0 -437 -164 q-233 -176 -233 -389z" />
<glyph unicode="r" horiz-adv-x="1454" d="M76 612q0 88 63 125q0 12 15 103q12 72 12 92q0 27 -21 41q-59 39 -59 153q0 76 64 109q127 68 432 131q289 57 460 57h4q386 0 386 -206q0 -154 -168 -297q-98 -86 -303 -197q-16 -8 -17 -23q0 -29 68 -96q94 -96 188 -235q115 -172 115 -263q0 -43 -36 -78.5t-79 -35.5 q-45 0 -74 47q-106 172 -159 237q-90 115 -213 195q-106 68 -168 68q-63 0 -127 -17q-82 -20 -109.5 -59t-36.5 -182q-2 -100 -4 -201q-4 -55 -42 -99t-91 -44t-70 53q-8 27 -8 96q0 188 19 426q-41 35 -41 100zM358 760q533 114 816 399q-25 4 -62 4q-315 0 -706 -100 q-20 -100 -48 -303z" />
<glyph unicode="s" horiz-adv-x="1533" d="M37 225q0 49 42 95.5t91 46.5q41 0 70 -78q41 -115 229 -115q201 0 348 74q129 66 232 145q153 118 153 206q0 36 -51 36q-25 0 -74 -10q-313 -61 -489 -62q-463 0 -463 228q0 154 115 276q49 53 204 147q371 223 631 224q184 0 185 -178q0 -55 -34 -89t-89 -34 q-35 0 -72 17t-45 17q-94 0 -285 -73q-172 -66 -266 -129q-111 -74 -111 -103q0 -55 252 -55q154 0 351 43l344 78q68 12 68 14h-1q105 0 105 -180q0 -340 -334 -598q-311 -240 -660 -240q-381 0 -440 254q-6 23 -6 43z" />
<glyph unicode="t" horiz-adv-x="1277" d="M31 1165q0 104 92 121q180 31 522 45q82 2 285 29q183 26 257 26h5q92 0 92 -131q0 -104 -92 -122q-193 -18 -412 -56q-16 -12 -16 -178q0 -47 -4 -139t-4 -139q0 -49 5 -145.5t5 -143.5q0 -352 -162 -352q-47 0 -72.5 43t-25.5 92q0 23 10 53q20 68 25 168q6 133 6 256 q0 211 -19 383q-8 92 -49 92q-57 0 -174 -16.5t-174 -16.5q-100 0 -100 131z" />
<glyph unicode="u" horiz-adv-x="1265" d="M70 520q0 430 90 721q27 84 84 84q49 0 81.5 -46t32.5 -97q0 -14 -4 -33q-78 -420 -78 -655q0 -133 17 -191q31 -108 125 -108h2q51 0 162 34q233 74 319 188.5t86 358.5q0 80 -10 172q-10 102 -66 287q-6 25 -6 45q0 49 34 93t83 44q94 0 147 -276q35 -191 35 -361 q0 -692 -655 -815q-66 -12 -125 -12q-223 0 -303 186q-51 121 -51 381z" />
<glyph unicode="v" horiz-adv-x="1226" d="M27 1137q0 49 28 98q35 57 82 57q39 0 74 -55q6 -12 166 -322q33 -66 221 -489q4 -4 8 -4q20 0 68 94q31 68 176 389q106 240 188 385q41 76 105 76q43 0 72.5 -32t29.5 -77q0 -27 -12 -59q-23 -51 -156 -334q-180 -383 -270 -610q-98 -252 -270 -252q-68 0 -109 137 q-25 98 -47 197q-51 156 -162 375q-156 311 -178 364q-14 31 -14 62z" />
<glyph unicode="w" horiz-adv-x="1593" d="M27 1204q0 45 39.5 84t85.5 39q49 0 84 -76q121 -254 184 -503q31 -117 41 -117q20 0 67 117q61 158 199 462q39 76 129 76q92 0 100 -100q12 -135 117 -357q27 -55 37 -71q29 -53 47 -58l6 7q20 27 47 120q6 23 47 148q39 141 76 285q68 190 176 190q49 0 78 -40t29 -89 q0 -68 -47 -100q-16 -45 -51 -136q-184 -535 -244 -938q-18 -127 -166 -127q-80 0 -86 93q-12 186 -31 280q-29 145 -94 264q-55 102 -80 103q-25 0 -86 -148q-125 -307 -172 -577q-18 -113 -121 -113q-92 0 -119 51q-14 31 -14 131q0 252 -84 533q-33 106 -182 508 q-12 35 -12 59z" />
<glyph unicode="x" horiz-adv-x="1339" d="M39 1159q0 49 24 94q31 53 76 54q49 0 241.5 -223.5t217.5 -223.5q35 0 113 98q274 348 489 441q31 12 53 12q45 0 72 -51q23 -41 23 -90q0 -68 -68 -103q-154 -78 -246 -174q-252 -264 -252 -336q0 -57 191.5 -272t191.5 -276q0 -43 -30 -97q-33 -61 -72 -61 q-41 0 -223.5 229.5t-221.5 229.5q-4 0 -73 -37q-59 -66 -119 -129q-68 -78 -88 -150q-33 -108 -121 -108h-2q-90 0 -90 98q0 94 78 223q27 47 143 203q78 106 78 143q0 16 -8 31q-20 35 -78 92q-127 127 -266 291q-33 39 -33 92z" />
<glyph unicode="y" horiz-adv-x="1193" d="M59 1214q0 49 35 94.5t82 45.5q55 0 88 -76q35 -86 117 -254q186 -324 246 -324q37 0 90 86q115 207 360 609q39 55 84 55q43 0 72 -43t29 -90q0 -37 -19 -72q-66 -121 -186 -319q-143 -236 -191 -320q-92 -160 -182 -321q-106 -186 -195 -314q-41 -59 -79 -59 q-39 0 -73 44t-34 87q0 66 86 188.5t86 174.5q0 39 -43 106q-102 160 -205 319q-115 188 -161 343q-6 20 -7 40z" />
<glyph unicode="z" horiz-adv-x="1314" d="M68 109q0 59 41 98q184 172 366 346q205 201 328 381q65 93 65 122t-88 29h-6q-90 0 -266 -24.5t-262 -24.5q-94 0 -94 131q0 104 92 123q127 27 409 41q66 2 230 29q146 24 200 24h4q45 0 72 -45q20 -39 21 -88q0 -143 -150 -372q-94 -145 -274 -363 q-150 -176 -150 -190q0 -20 51 -21q66 0 200 21.5t202 21.5h3q232 0 232 -155q0 -55 -33.5 -89t-89.5 -34q-20 0 -60 9t-60 9q-35 0 -121 -8t-383 -57q-244 -41 -383 -41q-96 0 -96 127z" />
<glyph unicode="{" horiz-adv-x="1607" d="M96 639q0 160 121 160q82 0 243 -14.5t240 -14.5q74 0 211.5 20.5t196.5 20.5q92 0 92 -133q0 -104 -94 -118.5t-258 -14.5q-49 0 -148.5 3t-148.5 3q-59 0 -176 -3t-176 -3q-102 0 -103 94zM530 1225q0 143 97 143q18 0 159 -41q164 -49 185 -53q106 -18 309 -74 q66 -24 66 -98q0 -51 -23 -96q-29 -53 -78 -54q-20 0 -49 11q-156 57 -575 149q-90 20 -91 113zM698 80q0 147 122 153.5t212 85.5q188 162 250 162q41 0 64 -51q18 -41 18 -88q0 -76 -61 -111q-84 -45 -246 -149q-131 -102 -258 -102q-100 0 -101 100z" />
<glyph unicode="|" horiz-adv-x="479" d="M133 -127q0 248 15.5 745.5t15.5 745.5q0 125 2 145q16 88 88 88q123 0 123 -135q0 -12 -12 -248q-31 -676 -31 -884q0 -70 5 -208t5 -208q0 -57 -35 -98q-35 -47 -90 -47q-86 0 -86 104z" />
<glyph unicode="}" horiz-adv-x="1634" d="M281 1001q0 76 59 113q84 47 244 152q131 102 258 102q102 0 102 -104q0 -145 -121 -150q-94 -4 -190 -70q-6 -4 -146 -118q-78 -63 -127 -64q-41 0 -61 53q-18 41 -18 86zM297 242q0 53 22 98q31 53 78 53q20 0 49 -10q160 -59 576 -150q90 -18 90 -110q0 -143 -96 -143 q-18 0 -162 40q-166 47 -182 52q-106 18 -312 73q-63 25 -63 97zM442 666q0 106 95.5 120.5t257.5 14.5q49 0 145 -3t145 -3q57 0 170 3t170 3q63 0 88 -17q33 -21 33 -82q0 -156 -121 -155q-80 0 -242.5 13t-244.5 13q-72 0 -208 -19t-195 -19q-92 0 -93 131z" />
<glyph unicode="~" horiz-adv-x="1275" d="M80 729q0 143 118.5 262t262.5 119q51 0 94 -23q106 -55 135 -133q16 -49 16.5 -189t122.5 -140q39 0 93 26q61 31 61 66q0 18 -47 59t-47 96q0 49 22 95q29 55 72 55q76 0 143 -109q66 -100 66 -182q0 -141 -108.5 -256t-247.5 -115q-131 0 -233.5 97.5t-102.5 228.5 q0 88 -4 119q-6 49 -45 49q-55 0 -107.5 -42t-52.5 -95q0 -25 17.5 -71t17.5 -73q0 -43 -40 -97t-81 -54q-55 0 -94 129q-31 102 -31 178z" />
<glyph unicode="&#xa1;" horiz-adv-x="811" d="M72 1206q0 104 88 133q16 6 244.5 56.5t232.5 50.5q47 0 74 -47q22 -39 22 -92q0 -76 -69 -103q-47 -16 -238 -49q-31 -6 -147 -41q-106 -33 -132 -33q-76 0 -75 125zM229 -12q0 18 4 41q66 373 84 770q8 145 144 145q53 0 65 -67q4 -19 4 -113q0 -424 -86 -762 q-25 -104 -106 -104q-109 0 -109 90z" />
<glyph unicode="&#xa2;" horiz-adv-x="1116" d="M78 625q0 305 284 483q37 20 91 57q8 8 8 35q0 25 -5 75t-5 77q0 162 116 161q55 0 78 -59q14 -35 23 -117q4 -74 16 -84q6 -10 107 -14q109 -6 165 -33q86 -39 86 -133q0 -150 -114 -149q-66 0 -86 63q-18 2 -39 2q-164 0 -326 -90q-188 -106 -188 -256q0 -113 90 -151 q59 -27 188 -27q133 0 213 47q43 29 90 90q35 47 62 47q41 0 75.5 -49t34.5 -92q0 -72 -69 -143q-59 -61 -137 -95q-31 -10 -91 -37q-14 -10 -18 -106q-2 -121 -16 -172q-25 -88 -97 -88q-47 0 -77.5 33.5t-30.5 81.5q0 18 4 54t4 54q0 102 -35 113q-61 10 -184 49 q-217 96 -217 373z" />
<glyph unicode="&#xa3;" horiz-adv-x="1404" d="M84 664q0 70 63.5 117.5t63.5 56.5q0 -2 -33 68.5t-33 129.5q0 178 146 291q135 104 317 105q289 0 385 -250q12 -29 13 -56q0 -45 -42 -88t-87 -43q-31 0 -60 49q-41 70 -61 89q-49 47 -133 47q-80 0 -154 -27q-98 -37 -98 -102q0 -63 78 -136q139 -129 350 -129 q49 0 146 13.5t145 13.5q98 0 98 -133q0 -104 -92 -121q-57 -10 -174 -15t-174 -16q-29 -6 -70 -102q-37 -88 -37 -127t211 -39q59 0 145 12q125 18 142 21q6 109 92 108q123 0 123 -127q0 -274 -504 -274q-66 0 -194 9t-191 9q-82 0 -160 -18q-20 -6 -35 -6q-78 0 -77 125 q0 82 61 121q221 137 221 243q0 53 -131 64h-170q-90 0 -90 117z" />
<glyph unicode="&#xa4;" horiz-adv-x="1564" d="M33 438q0 82 73 103q12 4 138 12q0 61 14 147q-27 -6 -49 -6q-45 0 -75 28t-30 73q0 84 82 106q16 4 148 12q104 215 385 365q266 139 518 139q285 0 285 -184q0 -158 -131 -158q-61 0 -72.5 46t-95.5 46q-141 0 -317.5 -70.5t-280.5 -166.5q68 4 252 28q168 25 239 25 q43 0 70.5 -28.5t27.5 -71.5q0 -94 -94 -113q-121 -23 -315 -31q-287 -10 -318 -12q-29 -90 -28 -164q215 10 528 55q39 6 55 7q43 0 71 -29t28 -74q0 -92 -94 -110q-109 -20 -275 -27q-137 -6 -274 -10q76 -152 354 -152q174 0 276 39q131 49 205 178q35 63 70 64 q41 0 77 -51.5t36 -94.5q0 -31 -17 -67q-78 -160 -285 -250q-176 -76 -376 -76q-469 0 -570 387q-125 -16 -131 -16q-47 0 -75.5 28.5t-28.5 73.5z" />
<glyph unicode="&#xa5;" horiz-adv-x="1234" d="M37 1198q0 49 24 94q29 53 76 54q31 0 64 -33q51 -53 157.5 -159.5t266.5 -233.5q8 -6 16 -7q43 0 164 170q74 111 145 220q41 59 80 59t74 -45t35 -86q0 -53 -71 -151.5t-71 -129.5l4 -10q12 -10 56.5 -13t62.5 -16q31 -20 31 -75q0 -123 -74 -150q-14 -6 -176 -18 q-55 -4 -119 -13q-8 -6 -8 -49q0 -135 21 -141h12q47 0 140 5t138 5q91 0 91 -98q0 -117 -76 -144q-29 -10 -174 -10q-117 0 -146 -69q-8 -66 -17 -133.5t-83 -67.5q-88 0 -111 63q-6 16 -12 117q-4 63 -45 64q-45 0 -134 -11.5t-132 -11.5q-104 0 -105 133q0 104 92 117 q106 4 314 25q18 2 18 67q0 106 -30 107q-33 0 -141.5 -20.5t-155.5 -20.5q-102 0 -103 135q0 68 41 94q18 14 74 27q41 10 41 28q0 25 -127 140.5t-127 191.5z" />
<glyph unicode="&#xa9;" horiz-adv-x="1845" d="M47 600q0 279 160 490q147 197 381 335q254 154 481 154q166 0 325.5 -70.5t266.5 -193.5q145 -168 145 -418q0 -424 -342 -713q-158 -133 -346 -213q-205 -86 -395 -86q-297 0 -490 211q-186 205 -186 504zM256 629q0 -217 132 -355.5t349 -138.5q297 0 568 213 q288 225 288 514q0 213 -159 340q-145 119 -365 119q-182 0 -387 -115q-188 -106 -311 -260q-115 -141 -115 -317zM496 672q0 254 252 393q170 96 346 96q172 1 172 -112q0 -86 -52 -86q-23 0 -49 29.5t-65 29.5q-158 0 -309 -88q-176 -102 -177 -248q0 -197 244 -197 q115 0 172 19q84 27 133 102q23 35 41 35q23 0 42.5 -26.5t19.5 -51.5q0 -82 -122 -152.5t-282 -70.5q-367 0 -366 328z" />
<glyph unicode="&#xad;" horiz-adv-x="946" d="M80 713q0 111 92 123q61 8 152 8q78 2 153 2q57 2 171 25.5t159 23.5q90 0 90 -131q0 -109 -92 -123q-45 -8 -303 -16q-51 -2 -168 -25q-109 -18 -160 -18q-94 0 -94 131z" />
<glyph unicode="&#xae;" horiz-adv-x="1845" d="M47 600q0 279 160 490q147 197 381 335q254 154 481 154q166 0 325.5 -70.5t266.5 -193.5q145 -168 145 -418q0 -424 -342 -713q-158 -133 -346 -213q-205 -86 -395 -86q-297 0 -490 211q-186 205 -186 504zM256 629q0 -217 132 -355.5t349 -138.5q297 0 568 213 q288 225 288 514q0 213 -159 340q-145 119 -365 119q-182 0 -387 -115q-188 -106 -311 -260q-115 -141 -115 -317zM565 709q0 49 35 69q14 129 14 109q0 14 -10 22q-33 23 -33 86q0 43 35 62q72 39 242 73q162 33 258 33q217 1 217 -116q0 -133 -262 -277q-10 -6 -10 -14 q0 -14 39 -54q53 -53 104 -131q66 -96 66 -147q0 -25 -20.5 -44.5t-43.5 -19.5q-27 0 -43 27q-59 96 -88 133q-51 63 -121 109q-59 39 -94 39q-102 0 -131 -43q-16 -23 -21 -103q-2 -55 -2 -112q-2 -31 -23.5 -55.5t-51.5 -24.5q-43 0 -43 84q0 104 10 237q-23 20 -23 58z M723 791q297 63 457 223q-14 2 -35 2q-176 0 -395 -55q-12 -55 -27 -170z" />
<glyph unicode="&#xb8;" horiz-adv-x="526" d="M90 -420q0 59 53 60q31 0 39 -27v2q2 2 4 2q20 0 52 10q121 37 120 127q0 59 -77 60q-70 0 -98.5 -35t-43.5 -35q-47 0 -47 57q-10 127 0 215q4 35 53 35q47 0 43 -35q-4 -41 -4 -116q47 20 99 20q170 0 170 -166q0 -61 -27 -108q-35 -59 -103.5 -96t-136.5 -37 q-96 0 -96 67z" />
<glyph unicode="&#xbf;" horiz-adv-x="1214" d="M74 231q0 211 155 359q98 90 340 211q31 14 95 55q-2 14 -2 29q0 53 37.5 105t88.5 52q86 0 86 -176q0 -119 -110 -207q-41 -33 -234 -135q-150 -82 -200 -157q-45 -68 -45 -111q0 -78 164 -78q102 0 260 53q188 61 209 138q10 43 51 80.5t86 37.5q82 0 82 -143 q0 -178 -248 -299q-164 -82 -404 -127q-49 -8 -92 -8q-141 0 -230 90t-89 231zM383 1274q0 104 88 133q16 6 243.5 56t233.5 50q49 0 74 -44t25 -95q0 -78 -70 -102q-33 -12 -238 -45q-10 -2 -241 -72q-23 -6 -37 -6q-78 0 -78 125z" />
<glyph unicode="&#xc0;" d="M23 94q0 41 98 213q66 111 129 221q125 223 248 445q197 344 250 395q12 10 26 18q-31 10 -289 111q-90 33 -90 88q0 70 99 70q23 0 47 -6q82 -23 239.5 -87.5t241.5 -86.5q143 -39 123 -117q-14 -55 -88 -55q-18 0 -35 4l-14 4q23 -57 41 -185q20 -137 34 -184 q43 -143 134 -352q131 -311 145 -348q10 -24 10 -47q0 -55 -44 -99.5t-97 -44.5q-80 0 -103 88q-14 72 -30 144q-53 109 -129 108q-92 0 -334 -61q-256 -66 -301 -111q-31 -35 -70 -110q-18 -51 -37 -103q-29 -63 -77 -63q-45 0 -86 52t-41 99zM520 555q195 55 428 90 q-61 162 -76 207q-41 117 -59 211q-51 -100 -143 -256q-121 -203 -150 -252z" />
<glyph unicode="&#xc1;" d="M23 94q0 41 98 213q66 111 129 221q109 193 215 385q174 309 246 410q-70 -20 -93 -20q-74 0 -88 55q-20 78 123 117q84 23 242 87t240 87q25 6 47 6q98 0 98 -70q0 -55 -90 -88l-254 -98q33 -12 51 -43q35 -61 57 -201q27 -172 39 -213q43 -143 134 -352 q131 -311 145 -348q10 -24 10 -47q0 -55 -44 -99.5t-97 -44.5q-80 0 -103 88q-14 72 -30 144q-53 109 -129 108q-92 0 -334 -61q-256 -66 -301 -111q-31 -35 -70 -110q-18 -51 -37 -103q-29 -63 -77 -63q-45 0 -86 52t-41 99zM520 555q195 55 428 90q-61 162 -76 207 q-41 117 -59 211q-51 -100 -143 -256q-121 -203 -150 -252z" />
<glyph unicode="&#xc2;" d="M23 94q0 41 98 213q66 111 129 221q125 223 248 445q197 344 250 395q47 43 126 43q80 0 113 -55q35 -61 57 -201q27 -172 39 -213q43 -143 134 -352q131 -311 145 -348q10 -24 10 -47q0 -55 -44 -99.5t-97 -44.5q-80 0 -103 88q-14 72 -30 144q-53 109 -129 108 q-92 0 -334 -61q-256 -66 -301 -111q-31 -35 -70 -110q-18 -51 -37 -103q-29 -63 -77 -63q-45 0 -86 52t-41 99zM520 555q195 55 428 90q-61 162 -76 207q-41 117 -59 211q-51 -100 -143 -256q-121 -203 -150 -252zM545 1444q0 41 39 69q68 51 112 113q31 45 99 127 q16 16 41 16q35 0 120 -90q16 -18 95 -84q59 -51 84 -90q12 -18 12 -43q0 -31 -19.5 -60.5t-50.5 -29.5q-27 0 -51.5 32t-91.5 91q-74 66 -98 66q-10 0 -103.5 -103.5t-136.5 -103.5q-51 0 -51 90z" />
<glyph unicode="&#xc3;" d="M23 94q0 41 98 213q66 111 129 221q125 223 248 445q197 344 250 395q33 29 83 39q-66 53 -65 131q0 45 -2 61q-4 27 -25 27q-29 0 -56.5 -22.5t-27.5 -51.5q0 -12 9.5 -36.5t9.5 -36.5q0 -23 -21.5 -52.5t-42.5 -29.5q-31 0 -51 69q-14 53 -14 95q0 76 62.5 138 t137.5 62q27 0 50 -12q55 -29 71 -70q8 -27 8 -100.5t66 -73.5q20 0 51 15.5t31 31.5q0 10 -25.5 32t-25.5 52q0 25 13 51.5t36 26.5q41 0 75.5 -54t34.5 -99q0 -66 -45 -122.5t-108 -70.5q41 -47 65 -203q35 -201 41 -223q43 -143 134 -352q131 -311 145 -348 q10 -24 10 -47q0 -55 -44 -99.5t-97 -44.5q-80 0 -103 88q-14 72 -30 144q-53 109 -129 108q-92 0 -334 -61q-256 -66 -301 -111q-31 -35 -70 -110q-18 -51 -37 -103q-29 -63 -77 -63q-45 0 -86 52t-41 99zM520 555q195 55 428 90q-61 162 -76 207q-41 117 -59 211 q-51 -100 -143 -256q-121 -203 -150 -252z" />
<glyph unicode="&#xc4;" d="M23 94q0 41 98 213q66 111 129 221q125 223 248 445q197 344 250 395q47 43 126 43q80 0 113 -55q35 -61 57 -201q27 -172 39 -213q43 -143 134 -352q131 -311 145 -348q10 -24 10 -47q0 -55 -44 -99.5t-97 -44.5q-80 0 -103 88q-14 72 -30 144q-53 109 -129 108 q-92 0 -334 -61q-256 -66 -301 -111q-31 -35 -70 -110q-18 -51 -37 -103q-29 -63 -77 -63q-45 0 -86 52t-41 99zM512 1583q0 57 51 74q150 45 152 45q55 0 55 -92q0 -76 -63 -97q-96 -33 -123 -32q-72 0 -72 102zM520 555q195 55 428 90q-61 162 -76 207q-41 117 -59 211 q-51 -100 -143 -256q-121 -203 -150 -252zM872 1624q0 55 52 74q150 45 151 45q55 0 55 -92q0 -76 -63 -97q-96 -33 -123 -32q-72 0 -72 102z" />
<glyph unicode="&#xc5;" d="M23 94q0 41 98 213q66 111 129 221q125 223 248 445q197 344 250 395q8 6 18 14q-129 29 -129 140q0 80 62.5 131t142.5 51q121 0 155 -90q10 -33 11 -70q0 -98 -70 -145q33 -14 49 -43q35 -61 57 -201q27 -172 39 -213q43 -143 134 -352q131 -311 145 -348 q10 -24 10 -47q0 -55 -44 -99.5t-97 -44.5q-80 0 -103 88q-14 72 -30 144q-53 109 -129 108q-92 0 -334 -61q-256 -66 -301 -111q-31 -35 -70 -110q-18 -51 -37 -103q-29 -63 -77 -63q-45 0 -86 52t-41 99zM520 555q195 55 428 90q-61 162 -76 207q-41 117 -59 211 q-51 -100 -143 -256q-121 -203 -150 -252zM719 1536q0 -66 94 -66q41 0 74 17q45 20 45 55q0 59 -98 60q-115 0 -115 -66z" />
<glyph unicode="&#xc6;" horiz-adv-x="2220" d="M-88 72q0 12 2 22q10 41 145 213q90 111 181 221q174 223 346 445q272 344 338 395q55 43 135 43q92 0 108 -82q127 47 447 103q76 16 151 32q92 18 154 19q180 0 180 -125q0 -51 -22 -96q-29 -55 -74 -56q-16 0 -44 8.5t-44 8.5q-96 0 -248 -31q-123 -29 -246 -57 q-45 -10 -67 -19q-39 -18 -49.5 -42.5t-21.5 -98.5t-11 -103q0 -25 31 -24q29 0 104 20q406 106 670 107q90 0 90 -94q0 -152 -123 -162q-195 -14 -420 -55q-299 -55 -385 -119q-29 -20 -49 -109q-16 -76 -16 -125q0 -76 47 -75q20 0 63 12q178 57 358 114q231 68 361 68 q100 0 100 -135q0 -104 -92 -119q-385 -57 -889 -264q-29 -12 -59 -12q-133 0 -133 209q0 90 35 276q-16 6 -39 6q-92 0 -348 -61q-270 -66 -324 -111q-39 -35 -94 -110q-31 -51 -62 -103q-41 -63 -92 -63q-39 0 -66.5 42t-27.5 87zM514 555q207 55 449 90q-45 293 -41 418 q-137 -168 -408 -508z" />
<glyph unicode="&#xc7;" horiz-adv-x="1378" d="M51 543q0 223 96 389q123 211 379 350q248 135 500 135q115 0 193 -35q104 -47 104 -147q0 -160 -129 -160q-59 0 -72.5 46t-97.5 46q-96 0 -229 -41q-535 -164 -535 -587q0 -315 391 -316q178 0 279 37q127 49 207 180q37 59 77 60q45 0 74 -49.5t29 -96.5 q0 -33 -14 -63q-68 -154 -275 -246q-178 -78 -373 -80v-65q47 20 99 20q170 0 170 -166q0 -61 -27 -108q-35 -59 -103.5 -96t-136.5 -37q-96 0 -96 67q0 59 53 60q31 0 39 -27v2q2 2 4 2q20 0 52 10q121 37 120 127q0 59 -77 60q-70 0 -98.5 -35t-43.5 -35q-47 0 -47 57 q-6 78 -4 166q-508 43 -508 576z" />
<glyph unicode="&#xc8;" horiz-adv-x="1306" d="M35 109q0 80 18 192q16 94 35 191q23 137 72 411q14 84 14 107q0 8 -6 14q-25 -2 -45 68q-16 57 -17 92q0 68 66 100q145 76 428 127q-25 8 -278 107q-90 33 -91 88q0 70 99 69q23 0 47 -6q82 -23 239.5 -87t241.5 -87q31 -8 57 -22q61 10 107 10q182 0 182 -125 q0 -51 -24 -96q-27 -55 -74 -56q-14 0 -43 8.5t-45 8.5q-94 0 -246 -31q-123 -29 -246 -57q-45 -10 -67 -19q-41 -18 -51.5 -42.5t-21.5 -98.5t-11 -103q0 -25 31 -24q31 0 106 20q403 106 670 107q88 0 88 -94q0 -152 -121 -162q-197 -14 -420 -55q-299 -55 -387 -119 q-27 -20 -47 -109q-16 -76 -16 -125q0 -76 47 -75q20 0 63 12l356 114q233 68 363 68q100 0 100 -135q0 -104 -92 -119q-387 -57 -889 -264q-31 -12 -59 -12q-133 0 -133 209z" />
<glyph unicode="&#xc9;" horiz-adv-x="1306" d="M35 109q0 80 18 192q16 94 35 191q23 137 72 411q14 84 14 107q0 8 -6 14q-25 -2 -45 68q-16 57 -17 92q0 57 56 94q27 18 106 49q-29 72 101 133q78 39 220 133.5t218 130.5q39 18 76 19q80 0 80 -66q0 -47 -72 -92q-92 -57 -279 -172q37 6 110 20.5t148 30.5 q92 18 152 19q182 0 182 -125q0 -51 -24 -96q-27 -55 -74 -56q-14 0 -43 8.5t-45 8.5q-94 0 -246 -31q-123 -29 -246 -57q-45 -10 -67 -19q-41 -18 -51.5 -42.5t-21.5 -98.5t-11 -103q0 -25 31 -24q31 0 106 20q403 106 670 107q88 0 88 -94q0 -152 -121 -162 q-197 -14 -420 -55q-299 -55 -387 -119q-27 -20 -47 -109q-16 -76 -16 -125q0 -76 47 -75q20 0 63 12l356 114q233 68 363 68q100 0 100 -135q0 -104 -92 -119q-387 -57 -889 -264q-31 -12 -59 -12q-133 0 -133 209z" />
<glyph unicode="&#xca;" horiz-adv-x="1306" d="M35 109q0 80 18 192q16 94 35 191q23 137 72 411q14 84 14 107q0 8 -6 14q-25 -2 -45 68q-16 57 -17 92q0 68 66 100q123 63 315 105q166 33 330 63l-2 2q-25 33 -92 90q-74 66 -98 66q-10 0 -103.5 -103.5t-136.5 -103.5q-51 0 -51 90q0 43 39 70q68 51 112 112 q31 45 99 127q16 16 41 17q35 0 120 -90q16 -18 95 -84q59 -51 84 -91q12 -18 12 -43q0 -18 -8 -36q53 8 94 8q182 0 182 -125q0 -51 -24 -96q-27 -55 -74 -56q-14 0 -43 8.5t-45 8.5q-94 0 -246 -31q-123 -29 -246 -57q-45 -10 -67 -19q-41 -18 -51.5 -42.5t-21.5 -98.5 t-11 -103q0 -25 31 -24q31 0 106 20q403 106 670 107q88 0 88 -94q0 -152 -121 -162q-197 -14 -420 -55q-299 -55 -387 -119q-27 -20 -47 -109q-16 -76 -16 -125q0 -76 47 -75q20 0 63 12l356 114q233 68 363 68q100 0 100 -135q0 -104 -92 -119q-387 -57 -889 -264 q-31 -12 -59 -12q-133 0 -133 209z" />
<glyph unicode="&#xcb;" horiz-adv-x="1306" d="M35 109q0 80 18 192q16 94 35 191q23 137 72 411q14 84 14 107q0 8 -6 14q-25 -2 -45 68q-16 57 -17 92q0 68 66 100q152 78 547 148q76 16 151 32q92 18 152 19q182 0 182 -125q0 -51 -24 -96q-27 -55 -74 -56q-14 0 -43 8.5t-45 8.5q-94 0 -246 -31q-123 -29 -246 -57 q-45 -10 -67 -19q-41 -18 -51.5 -42.5t-21.5 -98.5t-11 -103q0 -25 31 -24q31 0 106 20q403 106 670 107q88 0 88 -94q0 -152 -121 -162q-197 -14 -420 -55q-299 -55 -387 -119q-27 -20 -47 -109q-16 -76 -16 -125q0 -76 47 -75q20 0 63 12l356 114q233 68 363 68 q100 0 100 -135q0 -104 -92 -119q-387 -57 -889 -264q-31 -12 -59 -12q-133 0 -133 209zM328 1589q0 57 51 74q150 45 151 45q56 0 56 -92q0 -76 -64 -96q-96 -33 -123 -33q-72 0 -71 102zM688 1630q0 55 51 74q150 45 152 45q55 0 55 -92q0 -76 -63 -96q-96 -33 -123 -33 q-72 0 -72 102z" />
<glyph unicode="&#xcc;" horiz-adv-x="1191" d="M74 1112q0 74 67 105q158 74 443 143q-72 25 -365 137q-90 33 -90 88q0 70 98 70q23 0 47 -6q82 -23 240 -87.5t242 -86.5q76 -20 108 -62q78 10 131 10q100 0 101 -131q0 -86 -72 -114q-35 -14 -158 -25q-109 -8 -153 -41q-33 -25 -39 -137q-18 -307 -19 -438 q0 -172 11 -228q4 -35 55 -35q47 0 142 18.5t143 18.5q159 0 159 -127q0 -55 -30 -100q-33 -53 -86 -53q-14 0 -44 8t-47 8q-31 0 -86 -8q-152 -25 -301 -51q-180 -29 -303 -29q-186 0 -186 139q0 49 25.5 86t72.5 37q23 0 67 -7t66 -7q137 0 138 145q0 18 -2.5 58.5 t-2.5 60.5q0 80 7.5 240.5t7.5 240.5q0 94 -35 95q-45 0 -135 -37t-125 -37q-47 0 -72 49q-20 39 -20 90z" />
<glyph unicode="&#xcd;" horiz-adv-x="1191" d="M74 1112q0 57 45 92q23 14 96 43q4 59 96 111q76 43 214.5 144.5t211.5 142.5q41 23 80 22q78 0 78 -63q0 -47 -68 -95l-198 -139q236 53 366 53q100 0 101 -131q0 -86 -72 -114q-35 -14 -158 -25q-109 -8 -153 -41q-33 -25 -39 -137q-18 -307 -19 -438q0 -172 11 -228 q4 -35 55 -35q47 0 142 18.5t143 18.5q159 0 159 -127q0 -55 -30 -100q-33 -53 -86 -53q-14 0 -44 8t-47 8q-31 0 -86 -8q-152 -25 -301 -51q-180 -29 -303 -29q-186 0 -186 139q0 49 25.5 86t72.5 37q23 0 67 -7t66 -7q137 0 138 145q0 18 -2.5 58.5t-2.5 60.5 q0 80 7.5 240.5t7.5 240.5q0 94 -35 95q-45 0 -135 -37t-125 -37q-47 0 -72 49q-20 39 -20 90z" />
<glyph unicode="&#xce;" horiz-adv-x="1191" d="M74 1112q0 74 67 105q227 109 607 178l-3 2q-25 33 -92 90q-74 66 -98 65q-10 0 -103.5 -103t-136.5 -103q-51 0 -51 90q0 43 39 69q68 51 113 113q31 45 98 127q16 16 41 16q35 0 121 -90q16 -18 94 -84q59 -51 84 -90q12 -18 12 -43q0 -20 -8 -41q80 10 137 10 q100 0 101 -131q0 -86 -72 -114q-35 -14 -158 -25q-109 -8 -153 -41q-33 -25 -39 -137q-18 -307 -19 -438q0 -172 11 -228q4 -35 55 -35q47 0 142 18.5t143 18.5q159 0 159 -127q0 -55 -30 -100q-33 -53 -86 -53q-14 0 -44 8t-47 8q-31 0 -86 -8q-152 -25 -301 -51 q-180 -29 -303 -29q-186 0 -186 139q0 49 25.5 86t72.5 37q23 0 67 -7t66 -7q137 0 138 145q0 18 -2.5 58.5t-2.5 60.5q0 80 7.5 240.5t7.5 240.5q0 94 -35 95q-45 0 -135 -37t-125 -37q-47 0 -72 49q-20 39 -20 90z" />
<glyph unicode="&#xcf;" horiz-adv-x="1191" d="M74 1112q0 74 67 105q150 70 420 137q281 70 434 69q100 0 101 -131q0 -86 -72 -114q-35 -14 -158 -25q-109 -8 -153 -41q-33 -25 -39 -137q-18 -307 -19 -438q0 -172 11 -228q4 -35 55 -35q47 0 142 18.5t143 18.5q159 0 159 -127q0 -55 -30 -100q-33 -53 -86 -53 q-14 0 -44 8t-47 8q-31 0 -86 -8q-152 -25 -301 -51q-180 -29 -303 -29q-186 0 -186 139q0 49 25.5 86t72.5 37q23 0 67 -7t66 -7q137 0 138 145q0 18 -2.5 58.5t-2.5 60.5q0 80 7.5 240.5t7.5 240.5q0 94 -35 95q-45 0 -135 -37t-125 -37q-47 0 -72 49q-20 39 -20 90z M266 1534q0 55 51 74q147 45 150 45q57 0 57 -92q0 -76 -63 -97q-96 -33 -123 -32q-72 0 -72 102zM627 1575q0 55 51 74q150 45 149 45q58 0 58 -92q0 -78 -64 -97q-96 -33 -123 -32q-72 0 -71 102z" />
<glyph unicode="&#xd0;" horiz-adv-x="1611" d="M51 676q0 111 92 125q39 4 84 6v14q2 31 2 45q0 51 -50 86t-50 119q0 63 49 115q115 117 375 174q197 45 420 45q203 0 313 -43q145 -55 227 -209q58 -107 58 -211q0 -238 -293 -491q-221 -193 -510 -322q-350 -160 -475 -160q-57 0 -82 39q-39 57 -39 199q0 27 31 346 l-33 -4q-14 -2 -27 -2q-92 0 -92 129zM389 248q348 92 780 428q174 135 174 280q0 201 -370 201q-285 0 -506 -92q-10 -102 -27 -254h9q57 2 170.5 25.5t158.5 23.5q90 0 90 -131q0 -109 -92 -123q-68 -12 -178 -14q-137 -4 -178 -8q-31 -262 -31 -336z" />
<glyph unicode="&#xd1;" horiz-adv-x="1228" d="M59 98q0 70 41 269q31 141 62 280q51 248 51 535q0 51 39 101t88 50q51 0 78 -78q141 -436 377 -729q70 -86 100 -86q41 0 41 279q0 164 -6 274q-2 35 -19 125q-14 80 -14 125q0 51 32 101.5t81 50.5q147 -1 147 -353q0 -51 -4 -150t-4 -149v-161q2 -109 2 -162 q0 -225 -6 -314q-4 -47 -35 -79.5t-78 -32.5q-86 0 -282 219q-143 158 -242 301q-86 125 -113 125q-6 0 -10 -6q-39 -66 -55 -260q-18 -242 -27 -279q-27 -111 -131 -110q-49 0 -81 31.5t-32 82.5zM371 1544q0 74 62.5 137.5t137.5 63.5q27 0 50 -12q57 -31 71 -72 q10 -25 10 -99.5t64 -74.5q20 0 51 15.5t31 33.5q0 10 -24.5 31.5t-24.5 50.5q0 27 12 53.5t37 26.5q39 0 73.5 -55.5t34.5 -98.5q0 -76 -56 -136t-130 -60q-70 0 -124 51t-54 121q0 47 -2 63q-4 25 -25 25q-29 0 -56.5 -21.5t-27.5 -50.5q0 -12 9.5 -36.5t9.5 -39.5 q0 -23 -21.5 -51.5t-42.5 -28.5q-29 0 -49 70q-16 53 -16 94z" />
<glyph unicode="&#xd2;" horiz-adv-x="1523" d="M53 567q0 303 240 539q229 227 538 260q-63 23 -346 131q-90 33 -90 88q0 70 99 70q23 0 47 -6q82 -23 239.5 -87.5t241.5 -86.5q143 -39 123 -117q-4 -14 -15 -25q162 -63 260.5 -206.5t98.5 -327.5q0 -262 -164 -451q-119 -139 -299 -235q-195 -109 -360 -109 q-254 0 -430 154q-182 160 -183 409zM266 590q0 -160 127 -252q111 -80 279 -80q190 0 428 180q178 133 178 346q0 145 -107 242q-102 90 -249 90q-184 0 -400 -121q-256 -145 -256 -405z" />
<glyph unicode="&#xd3;" horiz-adv-x="1523" d="M53 567q0 225 142 424q133 186 348 291q-78 -4 -94 55q-20 78 122 117q84 23 242 87.5t240 86.5q25 6 47 6q98 0 98 -69q0 -55 -90 -88q-96 -39 -293 -113q51 8 103 8q244 0 407.5 -164.5t163.5 -408.5q0 -262 -164 -451q-119 -139 -299 -235q-195 -109 -360 -109 q-254 0 -430 154q-182 160 -183 409zM266 590q0 -160 127 -252q111 -80 279 -80q190 0 428 180q178 133 178 346q0 145 -107 242q-102 90 -249 90q-184 0 -400 -121q-256 -145 -256 -405z" />
<glyph unicode="&#xd4;" horiz-adv-x="1523" d="M53 567q0 326 271 570q264 236 594 235q244 0 407.5 -164.5t163.5 -408.5q0 -262 -164 -451q-119 -139 -299 -235q-195 -109 -360 -109q-254 0 -430 154q-182 160 -183 409zM266 590q0 -160 127 -252q111 -80 279 -80q190 0 428 180q178 133 178 346q0 145 -107 242 q-102 90 -249 90q-184 0 -400 -121q-256 -145 -256 -405zM582 1481q0 41 39 69q68 51 112 113q31 45 98 127q16 16 41 16q35 0 121 -90q16 -18 94 -84q59 -51 84 -90q13 -18 13 -43q0 -31 -19.5 -60.5t-50.5 -29.5q-27 0 -51.5 32t-91.5 91q-74 66 -99 65q-10 0 -103 -103 t-136 -103q-51 0 -51 90z" />
<glyph unicode="&#xd5;" horiz-adv-x="1523" d="M53 567q0 307 246 545q236 227 549 256q-72 53 -72 135q0 47 -2 64q-2 25 -24 24q-29 0 -56.5 -22.5t-27.5 -48.5q0 -12 9 -37t9 -39q0 -23 -20.5 -51.5t-42.5 -28.5q-29 0 -50 68q-16 55 -16 94q0 76 62.5 138t138.5 62q27 0 51 -10q55 -31 70 -71q10 -25 10 -100 t63 -75q20 0 51 15.5t31 34.5q0 8 -24.5 30.5t-24.5 51.5q0 27 12 49q14 31 37 30q39 0 75 -55t36 -100q0 -106 -99 -168q197 -41 321 -195.5t124 -363.5q0 -262 -164 -451q-119 -139 -299 -235q-195 -109 -360 -109q-254 0 -430 154q-182 160 -183 409zM266 590 q0 -160 127 -252q111 -80 279 -80q190 0 428 180q178 133 178 346q0 145 -107 242q-102 90 -249 90q-184 0 -400 -121q-256 -145 -256 -405z" />
<glyph unicode="&#xd6;" horiz-adv-x="1523" d="M53 567q0 326 271 570q264 236 594 235q244 0 407.5 -164.5t163.5 -408.5q0 -262 -164 -451q-119 -139 -299 -235q-195 -109 -360 -109q-254 0 -430 154q-182 160 -183 409zM266 590q0 -160 127 -252q111 -80 279 -80q190 0 428 180q178 133 178 346q0 145 -107 242 q-102 90 -249 90q-184 0 -400 -121q-256 -145 -256 -405zM469 1509q0 55 51 74q147 45 150 45q57 0 57 -92q0 -76 -63 -96q-96 -33 -123 -33q-72 0 -72 102zM829 1550q0 55 52 74q150 45 149 45q57 0 57 -92q0 -78 -63 -96q-96 -33 -123 -33q-72 0 -72 102z" />
<glyph unicode="&#xd7;" horiz-adv-x="1079" d="M72 973q0 39 20 76q27 45 70 45q41 0 176 -153t139 -153q14 0 62 60q193 244 344 309q27 10 47 10q39 0 63 -43q21 -34 21 -75q0 -59 -58 -88q-102 -53 -163 -117q-168 -176 -168 -217q0 -29 132 -178.5t132 -198.5q0 -33 -25 -76q-27 -53 -65 -53q-37 0 -165 157.5 t-142 157.5q-4 -2 -37 -20q-39 -43 -78 -84q-45 -51 -60 -99q-27 -88 -104 -88q-82 0 -82 88q0 90 103.5 233.5t103.5 158.5q0 16 -53 69q-88 88 -185 203q-29 31 -28 76z" />
<glyph unicode="&#xd8;" horiz-adv-x="1523" d="M53 567q0 326 271 570q264 236 594 235q33 0 63 -4q39 90 68 145q41 76 92 76q41 0 80 -30.5t39 -71.5q0 -27 -17 -66q-20 -47 -55 -114q139 -72 220 -206t81 -302q0 -262 -164 -451q-119 -139 -299 -235q-195 -109 -360 -109q-45 0 -93 6q-20 -57 -65 -172 q-37 -80 -86 -80q-45 0 -83 34t-38 79q0 25 12 61q18 55 58 138q-145 70 -230 194q-88 133 -88 303zM266 590q0 -213 211 -297q131 272 391 821q-164 -16 -346 -119q-256 -145 -256 -405zM672 258q190 0 428 180q178 133 178 346q0 219 -207 303q-139 -272 -207 -411 q-113 -229 -192 -418z" />
<glyph unicode="&#xd9;" horiz-adv-x="1439" d="M70 547q0 401 104 702q31 84 88 84q49 0 81 -44t32 -93q0 -18 -6 -39q-90 -389 -90 -723q0 -111 28 -162q41 -74 146 -73q29 0 67 8q332 59 496 182q143 106 143 402q0 88 -13 181t-77 271q-10 29 -10 51q0 49 33.5 88t81.5 39q102 0 161 -266q43 -194 43 -356 q0 -375 -202 -580q-184 -186 -560 -246q-74 -12 -137 -12q-260 0 -348 176q-61 121 -61 410zM233 1563q0 72 99 71q23 0 47 -6q82 -23 205 -74t207 -73q142 -37 122 -115q-14 -55 -88 -55q-18 0 -34 4q-158 43 -467 160q-90 35 -91 88z" />
<glyph unicode="&#xda;" horiz-adv-x="1439" d="M70 547q0 401 104 702q31 84 88 84q49 0 81 -44t32 -93q0 -18 -6 -39q-90 -389 -90 -723q0 -111 28 -162q41 -74 146 -73q29 0 67 8q332 59 496 182q143 106 143 402q0 88 -13 181t-77 271q-10 29 -10 51q0 49 33.5 88t81.5 39q102 0 161 -266q43 -194 43 -356 q0 -375 -202 -580q-184 -186 -560 -246q-74 -12 -137 -12q-260 0 -348 176q-61 121 -61 410zM465 1348q-20 78 123 116q84 23 241.5 88.5t239.5 85.5q25 8 47 9q98 0 98 -72q0 -53 -90 -88q-252 -96 -266 -103q-154 -55 -270 -86q-16 -6 -35 -6q-74 0 -88 56z" />
<glyph unicode="&#xdb;" horiz-adv-x="1439" d="M70 547q0 401 104 702q31 84 88 84q49 0 81 -44t32 -93q0 -18 -6 -39q-90 -389 -90 -723q0 -111 28 -162q41 -74 146 -73q29 0 67 8q332 59 496 182q143 106 143 402q0 88 -13 181t-77 271q-10 29 -10 51q0 49 33.5 88t81.5 39q102 0 161 -266q43 -194 43 -356 q0 -375 -202 -580q-184 -186 -560 -246q-74 -12 -137 -12q-260 0 -348 176q-61 121 -61 410zM408 1427q0 43 36 70q70 51 113 113q31 45 100 127q16 16 39 16q37 0 121 -90q16 -16 94 -84q61 -49 86 -88q13 -20 13 -45q0 -31 -19 -57q-23 -33 -51 -33q-27 0 -51.5 32.5 t-91.5 90.5q-76 66 -101 65q-8 0 -101 -102.5t-136 -102.5q-51 0 -51 88z" />
<glyph unicode="&#xdc;" horiz-adv-x="1439" d="M70 547q0 401 104 702q31 84 88 84q49 0 81 -44t32 -93q0 -18 -6 -39q-90 -389 -90 -723q0 -111 28 -162q41 -74 146 -73q29 0 67 8q332 59 496 182q143 106 143 402q0 88 -13 181t-77 271q-10 29 -10 51q0 49 33.5 88t81.5 39q102 0 161 -266q43 -194 43 -356 q0 -375 -202 -580q-184 -186 -560 -246q-74 -12 -137 -12q-260 0 -348 176q-61 121 -61 410zM403 1452q0 57 52 74q150 45 151 45q56 0 56 -92q0 -76 -64 -97q-96 -33 -123 -32q-72 0 -72 102zM764 1493q0 55 51 74q150 45 152 45q55 0 55 -92q0 -76 -64 -97 q-96 -33 -122 -32q-72 0 -72 102z" />
<glyph unicode="&#xdd;" horiz-adv-x="1193" d="M59 1214q0 49 35 94.5t82 45.5q55 0 88 -76q35 -86 117 -254q186 -324 246 -324q37 0 90 86q115 207 360 609q39 55 84 55q43 0 72 -43t29 -90q0 -37 -19 -72q-66 -121 -186 -319q-143 -236 -191 -320q-92 -160 -182 -321q-106 -186 -195 -314q-41 -59 -79 -59 q-39 0 -73 44t-34 87q0 66 86 188.5t86 174.5q0 39 -43 106q-102 160 -205 319q-115 188 -161 343q-6 20 -7 40zM408 1255q-31 74 104 134q78 35 224.5 124t224.5 123q35 16 69 17q84 0 84 -66q0 -49 -76 -92q-233 -135 -245 -141q-143 -80 -254 -129q-27 -12 -54 -13 q-57 0 -77 43z" />
<glyph unicode="&#xde;" horiz-adv-x="1157" d="M78 446q0 360 31 799q8 109 88 109q82 0 106 -54q12 -29 12 -120q0 -45 4 -56q8 -23 43 -22q23 0 80 12q207 47 299 47q109 0 201 -61q100 -66 129 -193q14 -65 14 -237q0 -236 -86 -351q-100 -133 -327 -133q-57 0 -170 10.5t-170 10.5q-25 0 -27 -37q2 33 2 -57 q0 -129 -131 -129q-68 0 -80 100q-18 152 -18 362zM293 578q0 -51 4 -66q10 -35 164 -57q111 -14 190 -15q123 0 160 19q63 29 63 133q0 174 -28 250q-25 66 -117 65q-113 0 -391 -82q-45 -14 -45 -247z" />
<glyph unicode="&#xdf;" horiz-adv-x="1579" d="M78 68q0 35 18 82q18 39 35 77q10 31 10 146q0 133 -14 362q-16 262 -18 363v12q-4 98 94 137q391 160 715 160q170 0 292 -61q158 -80 158 -234q0 -113 -65 -209q92 -35 154.5 -110.5t62.5 -169.5q0 -207 -295 -426q-279 -211 -506 -211q-92 0 -156.5 64.5t-64.5 156.5 q0 55 34.5 87t88.5 32q47 0 67.5 -42t46.5 -42q170 0 457 204q111 78 111 166q0 70 -142 70q-104 0 -261 -34t-261 -77q-29 -10 -49 -10q-55 0 -94 46t-39 102q0 23 6 41q16 45 86 53q127 16 340 100q260 102 260 184q0 49 -217 50q-125 0 -287 -25q-195 -29 -274 -72 q-31 -16 -31 -84q0 -72 11 -222t11 -226q0 -549 -176 -549q-109 0 -108 109z" />
<glyph unicode="&#xe0;" horiz-adv-x="1394" d="M23 82q0 27 16 63q23 53 83 144.5t83 136.5q117 236 166 342q90 193 151 350q51 127 123 205q41 45 109 72q-16 6 -269 102q-90 33 -90 88q0 70 99 70q23 0 47 -6q82 -23 239.5 -87.5t241.5 -86.5q143 -39 123 -117q-14 -55 -88 -55q-18 0 -35 4l-29 8q12 -29 13 -51 q0 -25 -15.5 -70t-15.5 -66q0 -70 145 -385q86 -162 252 -485q17 -30 17 -59q0 -49 -49.5 -106.5t-96.5 -57.5q-61 0 -120.5 177t-121.5 177q-66 0 -311.5 -68.5t-314.5 -101.5q-41 -23 -101 -147q-51 -109 -112 -109q-49 0 -94 36t-45 83zM498 537q197 63 424 100 q-59 127 -164 442q-170 -340 -260 -542z" />
<glyph unicode="&#xe1;" horiz-adv-x="1394" d="M23 82q0 27 16 63q23 53 83 144.5t83 136.5q117 236 166 342q90 193 151 350q47 117 113 193q-61 -18 -82 -19q-74 0 -88 56q-20 78 123 116q84 23 241.5 88.5t239.5 85.5q25 8 47 9q98 0 98 -72q0 -53 -90 -88l-227 -88q35 0 72 -46t37 -89q0 -25 -15.5 -70t-15.5 -66 q0 -70 145 -385q86 -162 252 -485q17 -30 17 -59q0 -49 -49.5 -106.5t-96.5 -57.5q-61 0 -120.5 177t-121.5 177q-66 0 -311.5 -68.5t-314.5 -101.5q-41 -23 -101 -147q-51 -109 -112 -109q-49 0 -94 36t-45 83zM498 537q197 63 424 100q-59 127 -164 442 q-170 -340 -260 -542z" />
<glyph unicode="&#xe2;" horiz-adv-x="1394" d="M23 82q0 27 16 63q23 53 83 144.5t83 136.5q117 236 166 342q90 193 151 350q51 127 123 205q43 47 125 78q12 4 59 2q72 -4 64 -4q37 2 75 -45t38 -90q0 -25 -15.5 -70t-15.5 -66q0 -70 145 -385q86 -162 252 -485q17 -30 17 -59q0 -49 -49.5 -106.5t-96.5 -57.5 q-61 0 -120.5 177t-121.5 177q-66 0 -311.5 -68.5t-314.5 -101.5q-41 -23 -101 -147q-51 -109 -112 -109q-49 0 -94 36t-45 83zM498 537q197 63 424 100q-59 127 -164 442q-170 -340 -260 -542zM502 1456q0 43 39 70q68 51 112 112q31 45 99 127q16 16 41 17q35 0 120 -90 q16 -18 95 -84q59 -51 84 -90q12 -18 12 -43q0 -31 -20.5 -61t-49.5 -30q-27 0 -51.5 33t-91.5 90q-74 66 -98 66q-10 0 -103.5 -103.5t-136.5 -103.5q-51 0 -51 90z" />
<glyph unicode="&#xe3;" horiz-adv-x="1394" d="M23 82q0 27 16 63q23 53 83 144.5t83 136.5q117 236 166 342q90 193 151 350q51 127 123 205q41 45 109 72q-43 49 -43 110q0 45 -2 62q-4 27 -25 26q-29 0 -56.5 -22.5t-27.5 -50.5q0 -12 9 -37t9 -37q0 -23 -21.5 -52.5t-41.5 -29.5q-31 0 -51 70q-14 53 -15 94 q0 76 62.5 138.5t138.5 62.5q27 0 49 -13q55 -29 72 -69q8 -27 8 -100.5t66 -73.5q20 0 51 15t31 32q0 10 -26 31.5t-26 52.5q0 25 13.5 51t36.5 26q41 0 75.5 -54t34.5 -99q0 -115 -106 -174q37 -47 37 -90q0 -25 -15.5 -70t-15.5 -66q0 -70 145 -385q86 -162 252 -485 q17 -30 17 -59q0 -49 -49.5 -106.5t-96.5 -57.5q-61 0 -120.5 177t-121.5 177q-66 0 -311.5 -68.5t-314.5 -101.5q-41 -23 -101 -147q-51 -109 -112 -109q-49 0 -94 36t-45 83zM498 537q197 63 424 100q-59 127 -164 442q-170 -340 -260 -542z" />
<glyph unicode="&#xe4;" horiz-adv-x="1394" d="M23 82q0 27 16 63q23 53 83 144.5t83 136.5q117 236 166 342q90 193 151 350q51 127 123 205q43 47 125 78q12 4 59 2q72 -4 64 -4q37 2 75 -45t38 -90q0 -25 -15.5 -70t-15.5 -66q0 -70 145 -385q86 -162 252 -485q17 -30 17 -59q0 -49 -49.5 -106.5t-96.5 -57.5 q-61 0 -120.5 177t-121.5 177q-66 0 -311.5 -68.5t-314.5 -101.5q-41 -23 -101 -147q-51 -109 -112 -109q-49 0 -94 36t-45 83zM498 537q197 63 424 100q-59 127 -164 442q-170 -340 -260 -542zM504 1552q0 55 51 74q147 45 150 45q57 0 57 -92q0 -76 -64 -96 q-96 -33 -123 -33q-72 0 -71 102zM864 1593q0 55 51 74l150 45q57 0 57 -92q0 -78 -63 -96q-96 -33 -123 -33q-72 0 -72 102z" />
<glyph unicode="&#xe5;" horiz-adv-x="1394" d="M23 82q0 27 16 63q23 53 83 144.5t83 136.5q117 236 166 342q90 193 151 350q51 127 123 205q39 43 96 66q-104 35 -104 133q0 80 62.5 131t142.5 51q121 0 155 -90q10 -33 11 -70q0 -47 -21 -88q-25 -49 -63 -63q31 -16 56.5 -55.5t25.5 -73.5q0 -25 -15.5 -70 t-15.5 -66q0 -70 145 -385q86 -162 252 -485q17 -30 17 -59q0 -49 -49.5 -106.5t-96.5 -57.5q-61 0 -120.5 177t-121.5 177q-66 0 -311.5 -68.5t-314.5 -101.5q-41 -23 -101 -147q-51 -109 -112 -109q-49 0 -94 36t-45 83zM498 537q197 63 424 100q-59 127 -164 442 q-170 -340 -260 -542zM719 1536q0 -66 94 -66q41 0 74 17q45 20 45 55q0 59 -98 60q-115 0 -115 -66z" />
<glyph unicode="&#xe6;" horiz-adv-x="2207" d="M-88 57q0 35 39 88.5t128 144.5t124 136q188 236 272 342q150 193 258 350q90 127 185 205q57 47 149 78q49 0 123 -2q29 2 51 -29q123 16 356 53q76 16 152 33q92 18 154 19q180 0 180 -123q0 -51 -23 -97q-29 -55 -73 -55q-14 0 -40 7t-40 7q-104 0 -305 -36 q-211 -41 -302 -82q-23 -10 -40 -113q-16 -88 -17 -131q0 -23 31 -23q27 0 94 19q432 125 678 125q94 0 94 -115q0 -147 -110 -156q-385 -29 -713 -131q-113 -35 -148 -172q-16 -68 -16 -147q0 -27 37 -27q35 0 115 29q457 168 680 168q104 0 104 -143q0 -113 -94 -127 q-76 0 -223 -13q-311 -47 -547 -182q-74 -41 -129 -41q-82 0 -134.5 59.5t-52.5 143.5q0 53 23 139q10 47 22 129q-106 -14 -339.5 -76.5t-303.5 -91.5q-49 -23 -147 -147q-84 -109 -146 -109q-41 0 -73.5 27.5t-32.5 66.5zM530 537q215 63 455 100q-20 127 -29 442 q-274 -340 -426 -542z" />
<glyph unicode="&#xe7;" horiz-adv-x="1499" d="M70 541q0 449 446 698q305 170 617 170q121 0 200 -39q107 -51 107 -160q0 -55 -21 -98q-25 -55 -71 -55q-43 0 -89.5 53t-113.5 53q-281 0 -553 -159q-311 -182 -311 -439q0 -348 432 -348q203 0 307 31q147 47 235 184q39 61 72 62q41 0 76 -48.5t35 -91.5 q0 -76 -74 -157q-59 -63 -139 -111q-219 -129 -502 -129h-6v-51q49 18 98 18q170 0 170 -166q0 -61 -27 -108q-35 -57 -103.5 -95t-135.5 -38q-96 0 -96 67q0 61 53 62q31 0 39 -27q2 2 4 2q23 0 53 10q119 37 119 129q0 57 -78 58q-70 0 -97.5 -35t-43.5 -35q-47 0 -47 57 q-6 70 -4 156q-551 43 -551 580z" />
<glyph unicode="&#xe8;" horiz-adv-x="1327" d="M49 119q0 53 23 139q12 76 37 225q23 125 47 252q31 178 30 240q0 16 -27.5 61t-27.5 113q0 125 78 164q111 55 369 88l-250 96q-90 33 -90 88q0 70 98 70q23 0 47 -6q82 -23 239.5 -87.5t241.5 -86.5q23 -6 43 -15q78 14 135 15q180 0 181 -123q0 -51 -23 -97 q-29 -55 -74 -55q-14 0 -39.5 7t-39.5 7q-104 0 -306 -36q-211 -41 -301 -82q-23 -10 -41 -113q-16 -88 -16 -131q0 -23 31 -23q27 0 94 19q432 125 678 125q94 0 94 -115q0 -147 -111 -156q-385 -29 -712 -131q-113 -35 -148 -172q-16 -68 -16 -147q0 -27 37 -27 q35 0 114 29q457 168 680 168q104 0 105 -143q0 -113 -94 -127q-76 0 -224 -13q-311 -47 -546 -182q-74 -41 -129 -41q-82 0 -134.5 59.5t-52.5 143.5z" />
<glyph unicode="&#xe9;" horiz-adv-x="1327" d="M49 119q0 53 23 139q12 76 37 225q23 125 47 252q31 178 30 240q0 16 -27.5 61t-27.5 113q0 125 78 164q33 16 74 30q18 51 96 91.5t219 136.5t217 135q39 20 78 20q78 0 78 -65q0 -47 -70 -92q-80 -53 -244 -158q45 6 80 12q76 16 152 33q92 18 153 19q180 0 181 -123 q0 -51 -23 -97q-29 -55 -74 -55q-14 0 -39.5 7t-39.5 7q-104 0 -306 -36q-211 -41 -301 -82q-23 -10 -41 -113q-16 -88 -16 -131q0 -23 31 -23q27 0 94 19q432 125 678 125q94 0 94 -115q0 -147 -111 -156q-385 -29 -712 -131q-113 -35 -148 -172q-16 -68 -16 -147 q0 -27 37 -27q35 0 114 29q457 168 680 168q104 0 105 -143q0 -113 -94 -127q-76 0 -224 -13q-311 -47 -546 -182q-74 -41 -129 -41q-82 0 -134.5 59.5t-52.5 143.5z" />
<glyph unicode="&#xea;" horiz-adv-x="1327" d="M49 119q0 53 23 139q12 76 37 225q23 125 47 252q31 178 30 240q0 16 -27.5 61t-27.5 113q0 125 78 164q94 47 258 71q135 20 270 39q12 2 129 29q-6 6 -12 14q-25 33 -92 90q-74 66 -98 66q-10 0 -103.5 -103.5t-136.5 -103.5q-51 0 -51 90q0 43 39 70q68 51 112 113 q31 45 99 127q16 16 41 16q35 0 120 -90q16 -18 95 -84q59 -51 84 -90q12 -18 12 -43q0 -29 -17 -56q45 6 84 7q180 0 181 -123q0 -51 -23 -97q-29 -55 -74 -55q-14 0 -39.5 7t-39.5 7q-104 0 -306 -36q-211 -41 -301 -82q-23 -10 -41 -113q-16 -88 -16 -131q0 -23 31 -23 q27 0 94 19q432 125 678 125q94 0 94 -115q0 -147 -111 -156q-385 -29 -712 -131q-113 -35 -148 -172q-16 -68 -16 -147q0 -27 37 -27q35 0 114 29q457 168 680 168q104 0 105 -143q0 -113 -94 -127q-76 0 -224 -13q-311 -47 -546 -182q-74 -41 -129 -41q-82 0 -134.5 59.5 t-52.5 143.5z" />
<glyph unicode="&#xeb;" horiz-adv-x="1327" d="M49 119q0 53 23 139q12 76 37 225q23 125 47 252q31 178 30 240q0 16 -27.5 61t-27.5 113q0 125 78 164q94 47 258 71q135 20 270 39q76 16 152 33q92 18 153 19q180 0 181 -123q0 -51 -23 -97q-29 -55 -74 -55q-14 0 -39.5 7t-39.5 7q-104 0 -306 -36q-211 -41 -301 -82 q-23 -10 -41 -113q-16 -88 -16 -131q0 -23 31 -23q27 0 94 19q432 125 678 125q94 0 94 -115q0 -147 -111 -156q-385 -29 -712 -131q-113 -35 -148 -172q-16 -68 -16 -147q0 -27 37 -27q35 0 114 29q457 168 680 168q104 0 105 -143q0 -113 -94 -127q-76 0 -224 -13 q-311 -47 -546 -182q-74 -41 -129 -41q-82 0 -134.5 59.5t-52.5 143.5zM373 1581q0 55 51 74q147 45 149 45q58 0 58 -92q0 -76 -64 -97q-96 -33 -123 -32q-72 0 -71 102zM733 1622q0 55 51 74l150 45q57 0 57 -92q0 -78 -63 -97q-96 -33 -123 -32q-72 0 -72 102z" />
<glyph unicode="&#xec;" horiz-adv-x="559" d="M-180 1585q0 70 98 70q23 0 47 -6q82 -23 239.5 -87.5t241.5 -86.5q143 -39 123 -117q-14 -55 -88 -55q-23 0 -98 22q33 -39 33 -92q0 -111 -13.5 -333t-13.5 -335q0 -70 8.5 -212t8.5 -212q0 -61 -38 -103t-100 -42q-104 0 -104 127q0 33 4 84q6 68 8 84q18 328 19 547 q0 123 -5 227q-2 20 -8 92q-6 57 -6 92q0 98 82 117q-63 20 -348 131q-90 33 -90 88z" />
<glyph unicode="&#xed;" horiz-adv-x="559" d="M16 1354q-20 78 123 114q84 23 242 88.5t240 88.5q25 6 47 6q98 0 98 -72q0 -53 -90 -88q-115 -45 -346 -129q86 -31 86 -129q0 -111 -13.5 -333t-13.5 -335q0 -70 8.5 -212t8.5 -212q0 -61 -38 -103t-100 -42q-104 0 -104 127q0 33 4 84q6 68 8 84q18 328 19 547 q0 123 -5 227q-2 20 -8 92q-6 57 -6 92q0 39 17 68q-68 -18 -89 -19q-74 0 -88 56z" />
<glyph unicode="&#xee;" horiz-adv-x="559" d="M-18 1448q0 43 38 70q68 51 113 112q31 45 98 127q16 16 41 17q35 0 121 -91q16 -18 94 -84q59 -51 84 -90q13 -18 13 -43q0 -31 -20.5 -60.5t-49.5 -29.5q-27 0 -51.5 33t-91.5 90q-74 66 -99 66q-10 0 -103 -103.5t-136 -103.5q-51 0 -51 90zM164 123q0 33 4 84 q6 68 8 84q18 328 19 547q0 123 -5 227q-2 20 -8 92q-6 57 -6 92q0 119 109 119q57 0 94 -39t37 -96q0 -111 -13.5 -333t-13.5 -335q0 -70 8.5 -212t8.5 -212q0 -61 -38 -103t-100 -42q-104 0 -104 127z" />
<glyph unicode="&#xef;" horiz-adv-x="559" d="M-23 1524q0 55 52 73q150 45 151 45q56 0 56 -92q0 -76 -64 -96q-96 -33 -123 -33q-72 0 -72 103zM164 123q0 33 4 84q6 68 8 84q18 328 19 547q0 123 -5 227q-2 20 -8 92q-6 57 -6 92q0 119 109 119q57 0 94 -39t37 -96q0 -111 -13.5 -333t-13.5 -335q0 -70 8.5 -212 t8.5 -212q0 -61 -38 -103t-100 -42q-104 0 -104 127zM340 1565q0 55 49 73q150 45 152 45q55 0 55 -92q0 -78 -64 -96q-94 -33 -122 -33q-70 0 -70 103z" />
<glyph unicode="&#xf0;" horiz-adv-x="1638" d="M66 659q0 111 94 123q20 2 43 4q4 53 4 99q0 47 -49 90t-49 108q0 72 63 117q111 78 391 133q244 47 418 47q233 0 385 -61q215 -86 215 -283q0 -246 -205 -458q-233 -242 -485 -398q-317 -195 -584 -194q-39 0 -63 2q-74 8 -90 102q-4 25 -4 158q0 102 22 280h-12 q-94 0 -94 131zM408 494q0 -111 4 -240q270 31 559 235q305 215 381 461q6 17 6 35q0 121 -299 121q-291 0 -621 -78q-14 -113 -20 -237q90 2 350 49q14 2 25 2q90 0 90 -131q0 -109 -90 -123q-70 -12 -193 -15q-137 -4 -190 -10q-2 -33 -2 -69z" />
<glyph unicode="&#xf1;" horiz-adv-x="1273" d="M33 86q0 68 43 272q33 141 65 283q53 252 54 535q0 55 39.5 104t93.5 49q47 0 73 -80q143 -438 430 -755q86 -96 117 -97q29 0 29 133q0 309 -8 457q-2 27 -11 117q-6 74 -6 119q0 176 80 176q49 0 94 -58q39 -49 52 -102q20 -84 20 -203q0 -49 -5 -149.5t-5 -149.5 q0 -53 2 -162v-161q0 -223 -6 -314q-8 -111 -111 -110q-31 0 -63 20q-266 170 -514 525q-90 129 -119 129q-8 0 -12 -13q-35 -106 -66 -280q-41 -229 -53 -283q-25 -109 -117 -108q-43 0 -69.5 30.5t-26.5 75.5zM375 1518q0 76 62.5 138t137.5 62q27 0 52 -10q55 -31 69 -72 q10 -25 10.5 -99.5t63.5 -74.5q20 0 51 15.5t31 33.5q0 8 -24.5 31t-24.5 51q0 27 12 49q14 31 37 31q39 0 75 -55t36 -100q0 -74 -57.5 -134.5t-131.5 -60.5q-70 0 -124 51t-54 121q0 47 -2 64q-2 25 -25 24q-29 0 -56.5 -22.5t-27.5 -49.5q0 -12 9.5 -36.5t9.5 -38.5 q0 -23 -20.5 -51.5t-43.5 -28.5q-29 0 -49 67q-16 55 -16 95z" />
<glyph unicode="&#xf2;" horiz-adv-x="1585" d="M51 569q0 285 215 521q201 221 486 296l14 3q-25 10 -281 108q-90 33 -90 88q0 70 99 70q23 0 47 -6q82 -23 239.5 -87.5t241.5 -86.5q129 -35 125 -107q178 -61 285 -205q114 -149 114 -344q0 -356 -286 -604q-295 -254 -627 -254q-252 0 -417 177t-165 431zM260 602 q0 -166 104.5 -277.5t272.5 -111.5q213 0 451.5 158.5t244.5 390.5v26q6 166 -121 267q-115 94 -286 94q-221 0 -434 -160q-231 -174 -232 -387z" />
<glyph unicode="&#xf3;" horiz-adv-x="1585" d="M51 569q0 215 127 406q117 178 314 297q16 53 90.5 97t208 150.5t206.5 149.5q41 27 84 27q76 0 76 -64q0 -45 -65 -94l-172 -131q258 0 438 -164q188 -168 188 -424q0 -356 -286 -604q-295 -254 -627 -254q-252 0 -417 177t-165 431zM260 602q0 -166 104.5 -277.5 t272.5 -111.5q213 0 451.5 158.5t244.5 390.5v26q6 166 -121 267q-115 94 -286 94q-221 0 -434 -160q-231 -174 -232 -387z" />
<glyph unicode="&#xf4;" horiz-adv-x="1585" d="M51 569q0 285 215 518q199 219 486 299q82 20 166 21q37 0 71 -2q-6 6 -12 14q-25 33 -92 90q-74 66 -99 66q-10 0 -103 -103.5t-136 -103.5q-51 0 -51 90q0 43 39 70q68 51 112 112q31 45 98 127q16 16 41 17q35 0 121 -90q16 -18 94 -84q59 -51 84 -90q12 -18 13 -43 q0 -57 -43 -82q213 -43 348 -197q143 -160 143 -379q0 -356 -286 -604q-295 -254 -627 -254q-252 0 -417 177t-165 431zM260 602q0 -166 104.5 -277.5t272.5 -111.5q213 0 451.5 158.5t244.5 390.5v26q6 166 -121 267q-115 94 -286 94q-221 0 -434 -160q-231 -174 -232 -387 z" />
<glyph unicode="&#xf5;" horiz-adv-x="1585" d="M51 569q0 299 246 551q236 242 537 283q-47 49 -48 115q0 45 -2 61q-4 27 -24 27q-29 0 -56.5 -22.5t-27.5 -51.5q0 -12 9 -37t9 -37q0 -23 -21.5 -52.5t-41.5 -29.5q-31 0 -51 70q-14 53 -15 94q0 76 62.5 138.5t138.5 62.5q27 0 49 -12q55 -29 72 -70q8 -27 8 -100.5 t66 -73.5q20 0 50.5 15.5t30.5 31.5q0 10 -25.5 31.5t-25.5 52.5q0 25 13.5 51.5t35.5 26.5q41 0 76 -54.5t35 -99.5q0 -88 -74 -151q205 -47 334 -199q135 -158 135 -371q0 -356 -286 -604q-295 -254 -627 -254q-252 0 -417 177t-165 431zM260 602q0 -166 104.5 -277.5 t272.5 -111.5q213 0 451.5 158.5t244.5 390.5v26q6 166 -121 267q-115 94 -286 94q-221 0 -434 -160q-231 -174 -232 -387z" />
<glyph unicode="&#xf6;" horiz-adv-x="1585" d="M51 569q0 285 215 518q199 219 486 299q82 20 166 21q258 0 440 -162q188 -170 188 -426q0 -356 -286 -604q-295 -254 -627 -254q-252 0 -417 177t-165 431zM260 602q0 -166 104.5 -277.5t272.5 -111.5q213 0 451.5 158.5t244.5 390.5v26q6 166 -121 267q-115 94 -286 94 q-221 0 -434 -160q-231 -174 -232 -387zM541 1556q0 57 51 74q150 45 151 45q56 0 56 -92q0 -76 -64 -96q-96 -33 -123 -33q-72 0 -71 102zM901 1597q0 55 51 74q150 45 152 45q55 0 55 -92q0 -76 -63 -96q-96 -33 -123 -33q-72 0 -72 102z" />
<glyph unicode="&#xf7;" horiz-adv-x="946" d="M80 713q0 111 92 123q61 8 152 8q78 2 153 2q57 2 171 25.5t159 23.5q90 0 90 -131q0 -109 -92 -123q-45 -8 -303 -16q-51 -2 -168 -25q-109 -18 -160 -18q-94 0 -94 131zM350 1040q0 55 51 74q147 45 150 45q57 0 57 -92q0 -76 -63 -96q-96 -33 -123 -33q-72 0 -72 102z M393 385q0 55 51 74q150 45 152 45q55 0 55 -92q0 -76 -63 -97q-96 -33 -123 -32q-72 0 -72 102z" />
<glyph unicode="&#xf8;" horiz-adv-x="1585" d="M51 569q0 285 215 518q199 219 486 299q82 20 166 21q31 0 63 -2q29 68 55 115q41 76 90 75q43 0 82 -30.5t39 -71.5q0 -27 -16.5 -64.5t-36.5 -78.5q160 -70 252 -207q100 -144 100 -324q0 -356 -286 -604q-295 -254 -627 -254q-45 0 -90 6q-27 -78 -47 -125 q-37 -80 -86 -80q-45 0 -84 35t-39 78q0 25 14 62q14 45 39 102q-133 78 -211 219t-78 311zM260 602q0 -236 186 -342q141 295 420 887q-215 -27 -403 -180q-203 -166 -203 -365zM639 213q213 0 446 158q242 160 248 391v26q4 127 -67.5 215.5t-188.5 122.5 q-156 -301 -229 -452q-123 -252 -209 -461z" />
<glyph unicode="&#xf9;" horiz-adv-x="1265" d="M70 520q0 430 90 721q27 84 84 84q49 0 81.5 -46t32.5 -97q0 -14 -4 -33q-78 -420 -78 -655q0 -133 17 -191q31 -109 127 -108q51 0 162 34q233 74 319 188.5t86 358.5q0 80 -10 172q-10 102 -66 287q-6 25 -6 45q0 49 34 93t83 44q94 0 147 -276q35 -191 35 -361 q0 -692 -655 -815q-66 -12 -125 -12q-223 0 -303 186q-51 121 -51 381zM88 1585q0 70 98 70q23 0 47 -6q82 -23 240 -87.5t242 -86.5q143 -39 123 -117q-14 -55 -88 -55q-18 0 -35 4q-139 39 -537 190q-90 33 -90 88z" />
<glyph unicode="&#xfa;" horiz-adv-x="1265" d="M70 520q0 430 90 721q27 84 84 84q49 0 81.5 -46t32.5 -97q0 -14 -4 -33q-78 -420 -78 -655q0 -133 17 -191q31 -109 127 -108q51 0 162 34q233 74 319 188.5t86 358.5q0 80 -10 172q-10 102 -66 287q-6 25 -6 45q0 49 34 93t83 44q94 0 147 -276q35 -191 35 -361 q0 -692 -655 -815q-66 -12 -125 -12q-223 0 -303 186q-51 121 -51 381zM434 1262q-39 72 90 143q76 41 213 143.5t213 143.5q39 23 80 22q78 0 78 -63q0 -47 -68 -95q-221 -154 -233 -161q-135 -92 -242 -152q-29 -16 -61 -16q-51 0 -70 35z" />
<glyph unicode="&#xfb;" horiz-adv-x="1265" d="M70 520q0 430 90 721q27 84 84 84q49 0 81.5 -46t32.5 -97q0 -14 -4 -33q-78 -420 -78 -655q0 -133 17 -191q31 -109 127 -108q51 0 162 34q233 74 319 188.5t86 358.5q0 80 -10 172q-10 102 -66 287q-6 25 -6 45q0 49 34 93t83 44q94 0 147 -276q35 -191 35 -361 q0 -692 -655 -815q-66 -12 -125 -12q-223 0 -303 186q-51 121 -51 381zM324 1452q0 41 38 70q68 51 113 112q31 45 98 127q16 16 41 17q35 0 121 -90q16 -18 94 -84q59 -51 84 -91q13 -18 13 -43q0 -31 -19.5 -60.5t-50.5 -29.5q-27 0 -51.5 32t-91.5 91q-74 66 -99 66 q-10 0 -103 -103.5t-136 -103.5q-51 0 -51 90z" />
<glyph unicode="&#xfc;" horiz-adv-x="1265" d="M70 520q0 430 90 721q27 84 84 84q49 0 81.5 -46t32.5 -97q0 -14 -4 -33q-78 -420 -78 -655q0 -133 17 -191q31 -109 127 -108q51 0 162 34q233 74 319 188.5t86 358.5q0 80 -10 172q-10 102 -66 287q-6 25 -6 45q0 49 34 93t83 44q94 0 147 -276q35 -191 35 -361 q0 -692 -655 -815q-66 -12 -125 -12q-223 0 -303 186q-51 121 -51 381zM328 1475q0 55 51 73q147 45 149 45q58 0 58 -92q0 -76 -64 -96q-96 -33 -123 -33q-72 0 -71 103zM688 1516q0 55 51 73l150 45q57 0 57 -92q0 -78 -63 -96q-96 -33 -123 -33q-72 0 -72 103z" />
<glyph unicode="&#xfd;" horiz-adv-x="1193" d="M59 1214q0 49 35 94.5t82 45.5q55 0 88 -76q35 -86 117 -254q186 -324 246 -324q37 0 90 86q115 207 360 609q39 55 84 55q43 0 72 -43t29 -90q0 -37 -19 -72q-66 -121 -186 -319q-143 -236 -191 -320q-92 -160 -182 -321q-106 -186 -195 -314q-41 -59 -79 -59 q-39 0 -73 44t-34 87q0 66 86 188.5t86 174.5q0 39 -43 106q-102 160 -205 319q-115 188 -161 343q-6 20 -7 40zM408 1255q-31 74 104 134q78 35 224.5 124t224.5 123q35 16 69 17q84 0 84 -66q0 -49 -76 -92q-233 -135 -245 -141q-143 -80 -254 -129q-27 -12 -54 -13 q-57 0 -77 43z" />
<glyph unicode="&#xfe;" horiz-adv-x="1157" d="M78 446q0 360 31 799q8 109 88 109q82 0 106 -54q12 -29 12 -120q0 -45 4 -56q8 -23 43 -22q23 0 80 12q207 47 299 47q109 0 201 -61q100 -66 129 -193q14 -65 14 -237q0 -236 -86 -351q-100 -133 -327 -133q-57 0 -170 10.5t-170 10.5q-25 0 -27 -37q2 33 2 -57 q0 -129 -131 -129q-68 0 -80 100q-18 152 -18 362zM293 578q0 -51 4 -66q10 -35 164 -57q111 -14 190 -15q123 0 160 19q63 29 63 133q0 174 -28 250q-25 66 -117 65q-113 0 -391 -82q-45 -14 -45 -247z" />
<glyph unicode="&#xff;" horiz-adv-x="1193" d="M59 1214q0 49 35 94.5t82 45.5q55 0 88 -76q35 -86 117 -254q186 -324 246 -324q37 0 90 86q115 207 360 609q39 55 84 55q43 0 72 -43t29 -90q0 -37 -19 -72q-66 -121 -186 -319q-143 -236 -191 -320q-92 -160 -182 -321q-106 -186 -195 -314q-41 -59 -79 -59 q-39 0 -73 44t-34 87q0 66 86 188.5t86 174.5q0 39 -43 106q-102 160 -205 319q-115 188 -161 343q-6 20 -7 40zM360 1468q0 55 52 74q147 45 149 45q57 0 57 -92q0 -76 -63 -96q-96 -33 -123 -33q-72 0 -72 102zM721 1509q0 55 51 74l150 45q57 0 57 -92q0 -78 -64 -96 q-96 -33 -122 -33q-72 0 -72 102z" />
<glyph unicode="&#x152;" horiz-adv-x="2476" d="M53 567q0 326 271 570q264 236 594 235q205 0 358 -121q16 18 43 33q152 78 547 148q76 16 151 32q92 18 152 19q182 0 182 -125q0 -51 -24 -96q-27 -55 -74 -56q-14 0 -43 8.5t-45 8.5q-94 0 -246 -31q-123 -29 -246 -57q-45 -10 -67 -19q-41 -18 -51.5 -42.5 t-21.5 -98.5t-11 -103q0 -25 30 -24q31 0 107 20q403 106 670 107q88 0 88 -94q0 -152 -121 -162q-197 -14 -420 -55q-299 -55 -387 -119q-27 -20 -47 -109q-16 -76 -17 -125q0 -76 48 -75q20 0 63 12l356 114q233 68 363 68q100 0 100 -135q0 -104 -92 -119 q-387 -57 -889 -264q-31 -12 -59 -12q-133 0 -133 209q0 51 6 110q-270 -215 -522 -215q-254 0 -430 154q-182 160 -183 409zM266 590q0 -160 127 -252q111 -80 279 -80q190 0 428 180q141 106 164 238l12 57q2 14 2 51q0 145 -107 242q-102 90 -249 90q-184 0 -400 -121 q-256 -145 -256 -405z" />
<glyph unicode="&#x153;" horiz-adv-x="2527" d="M51 569q0 285 215 518q199 219 486 299q82 20 166 21q246 0 423 -147q20 37 56 53q94 47 258 71q135 20 270 39q76 16 152 33q92 18 153 19q180 0 180 -123q0 -51 -22 -97q-29 -55 -74 -55q-14 0 -39.5 7t-40.5 7q-104 0 -305 -36q-211 -41 -301 -82q-23 -10 -41 -113 q-16 -88 -16 -131q0 -23 31 -23q27 0 94 19q432 125 678 125q94 0 94 -115q0 -147 -111 -156q-385 -29 -712 -131q-113 -35 -148 -172q-16 -68 -16 -147q0 -27 37 -27q35 0 114 29q457 168 680 168q104 0 105 -143q0 -113 -95 -127q-76 0 -223 -13q-311 -47 -547 -182 q-74 -41 -129 -41q-82 0 -134 59.5t-52 143.5q0 39 10 86q-293 -244 -614 -244q-252 0 -417 177t-165 431zM260 602q0 -166 104.5 -277.5t272.5 -111.5q213 0 451.5 158.5t244.5 390.5v26q6 166 -121 267q-115 94 -286 94q-221 0 -434 -160q-231 -174 -232 -387z" />
<glyph unicode="&#x178;" horiz-adv-x="1204" d="M37 1237q0 47 29.5 85t76.5 38q51 0 80 -47q43 -78 142 -230q127 -166 270 -290q6 -6 14 -7q35 0 99 107q94 174 303 508q39 57 82 57q45 0 73.5 -44t28.5 -91q0 -37 -18 -72q-129 -211 -381 -637q-90 -160 -183 -321q-106 -184 -192 -313q-41 -61 -80 -62q-41 0 -76 45 t-35 88q0 47 120 233.5t120 243.5q0 43 -123 183q-188 213 -227 262q-123 162 -123 264zM346 1454q0 55 51 74q147 45 150 45q57 0 57 -92q0 -76 -63 -97q-96 -33 -123 -32q-72 0 -72 102zM707 1495q0 55 51 74q150 45 149 45q58 0 58 -92q0 -78 -64 -97q-96 -33 -123 -32 q-72 0 -71 102z" />
<glyph unicode="&#x2000;" horiz-adv-x="915" />
<glyph unicode="&#x2001;" horiz-adv-x="1831" />
<glyph unicode="&#x2002;" horiz-adv-x="915" />
<glyph unicode="&#x2003;" horiz-adv-x="1831" />
<glyph unicode="&#x2004;" horiz-adv-x="610" />
<glyph unicode="&#x2005;" horiz-adv-x="457" />
<glyph unicode="&#x2006;" horiz-adv-x="305" />
<glyph unicode="&#x2007;" horiz-adv-x="305" />
<glyph unicode="&#x2008;" horiz-adv-x="228" />
<glyph unicode="&#x2009;" horiz-adv-x="366" />
<glyph unicode="&#x200a;" horiz-adv-x="101" />
<glyph unicode="&#x2010;" horiz-adv-x="946" d="M80 713q0 111 92 123q61 8 152 8q78 2 153 2q57 2 171 25.5t159 23.5q90 0 90 -131q0 -109 -92 -123q-45 -8 -303 -16q-51 -2 -168 -25q-109 -18 -160 -18q-94 0 -94 131z" />
<glyph unicode="&#x2011;" horiz-adv-x="946" d="M80 713q0 111 92 123q61 8 152 8q78 2 153 2q57 2 171 25.5t159 23.5q90 0 90 -131q0 -109 -92 -123q-45 -8 -303 -16q-51 -2 -168 -25q-109 -18 -160 -18q-94 0 -94 131z" />
<glyph unicode="&#x2012;" horiz-adv-x="946" d="M80 713q0 111 92 123q61 8 152 8q78 2 153 2q57 2 171 25.5t159 23.5q90 0 90 -131q0 -109 -92 -123q-45 -8 -303 -16q-51 -2 -168 -25q-109 -18 -160 -18q-94 0 -94 131z" />
<glyph unicode="&#x2013;" horiz-adv-x="1153" d="M80 713q0 111 115 123q77 8 191 8q98 2 192 2q71 2 214 25.5t199 23.5q113 0 113 -131q0 -109 -115 -123q-57 -8 -380 -16q-64 -2 -211 -25q-136 -18 -200 -18q-118 0 -118 131z" />
<glyph unicode="&#x2014;" horiz-adv-x="2177" d="M80 713q0 111 231 123q153 8 381 8q195 2 383 2q143 2 429 25.5t398 23.5q226 0 226 -131q0 -109 -231 -123q-112 -8 -759 -16q-128 -2 -421 -25q-274 -18 -401 -18q-236 0 -236 131z" />
<glyph unicode="&#x2018;" horiz-adv-x="681" d="M100 1194q0 143 72 244q80 113 219 112q162 0 162 -133q0 -51 -29.5 -89t-79.5 -38q-10 0 -29.5 2t-29.5 2q-18 0 -32.5 -3t-26.5 -17q-20 -37 -21 -76q0 -92 49 -117q31 -16 127 -16q117 0 117 -129q0 -131 -164 -131q-156 0 -248 121q-86 109 -86 268z" />
<glyph unicode="&#x2019;" horiz-adv-x="681" d="M92 1425q0 129 164 129q156 0 248 -118q86 -111 86 -271q0 -143 -72 -243q-80 -111 -219 -111q-162 0 -162 133q0 51 30 89t79 38q10 0 29.5 -3t27.5 -3q20 0 34.5 4t27.5 18q20 37 20 76q0 90 -49 117q-31 14 -129 14q-115 0 -115 131z" />
<glyph unicode="&#x201c;" horiz-adv-x="1253" d="M104 1202q0 143 72 244q80 113 219 113q158 0 158 -119q0 -96 -33 -121q-25 -16 -114 -16q-45 0 -76 -23q-23 -35 -23 -74q0 -92 51 -119q31 -14 131 -14q111 0 111 -129q0 -131 -162 -131q-156 0 -248 121q-86 109 -86 268zM686 1202q0 143 72 244q80 113 219 113 q162 0 162 -134q0 -51 -30 -89t-79 -38q-10 0 -29.5 2.5t-27.5 2.5q-20 0 -34.5 -3.5t-27.5 -19.5q-20 -35 -20 -76q0 -90 49 -114q31 -16 129 -17q115 0 115 -129q0 -131 -164 -131q-156 0 -248 121q-86 109 -86 268z" />
<glyph unicode="&#x201d;" horiz-adv-x="1253" d="M100 1425q0 129 164 129q156 0 248 -118q86 -111 86 -271q0 -143 -72 -243q-80 -111 -219 -111q-162 0 -162 133q0 51 30 89t79 38q10 0 29.5 -3t27.5 -3q20 0 34.5 4t27.5 18q20 37 20 76q0 90 -49 117q-31 14 -129 14q-115 0 -115 131zM684 1423q0 131 162 131 q156 0 248 -118q86 -111 86 -271q0 -143 -72 -243q-80 -111 -219 -111q-158 0 -158 119q0 94 33 119q25 18 115 18q45 0 75 20q23 35 23 76q0 90 -51 117q-31 14 -131 14q-111 0 -111 129z" />
<glyph unicode="&#x2026;" horiz-adv-x="2598" d="M117 125q0 78 69 102q16 6 240 47q12 2 240 70q23 6 36 6q78 0 78 -125q0 -106 -88 -133q-53 -16 -213 -39q-74 -10 -213 -57q-29 -10 -51 -10q-49 0 -76 47q-23 41 -22 92zM967 123q0 76 69 100q16 6 240 47q12 2 240 70q23 6 36 6q78 0 78 -125q0 -106 -88 -133 q-53 -16 -213 -39q-74 -10 -213 -57q-31 -10 -51 -10q-49 0 -76 49q-23 39 -22 92zM1817 119q0 78 69 100q16 6 238 47q14 2 241 70q20 8 37 8q78 0 78 -127q0 -106 -88 -133q-55 -16 -215 -39q-72 -10 -211 -57q-31 -10 -51 -11q-49 0 -76 50q-23 39 -22 92z" />
<glyph unicode="&#x202f;" horiz-adv-x="366" />
<glyph unicode="&#x205f;" horiz-adv-x="457" />
<glyph unicode="&#x20ac;" horiz-adv-x="1564" d="M33 438q0 82 73 103q12 4 138 12q0 61 14 147q-27 -6 -49 -6q-45 0 -75 28t-30 73q0 84 82 106q16 4 148 12q104 215 385 365q266 139 518 139q285 0 285 -184q0 -158 -131 -158q-61 0 -72.5 46t-95.5 46q-141 0 -317.5 -70.5t-280.5 -166.5q68 4 252 28q168 25 239 25 q43 0 70.5 -28.5t27.5 -71.5q0 -94 -94 -113q-121 -23 -315 -31q-287 -10 -318 -12q-29 -90 -28 -164q215 10 528 55q39 6 55 7q43 0 71 -29t28 -74q0 -92 -94 -110q-109 -20 -275 -27q-137 -6 -274 -10q76 -152 354 -152q174 0 276 39q131 49 205 178q35 63 70 64 q41 0 77 -51.5t36 -94.5q0 -31 -17 -67q-78 -160 -285 -250q-176 -76 -376 -76q-469 0 -570 387q-125 -16 -131 -16q-47 0 -75.5 28.5t-28.5 73.5z" />
<glyph unicode="&#x2122;" horiz-adv-x="1689" d="M96 1397q0 61 54 71q102 16 303 25q47 2 163 18q111 14 152 15q53 0 53 -76q0 -59 -51 -72q-113 -10 -240 -32q-10 -6 -10 -103q0 -27 -2 -81t-2 -81q0 -29 3 -84t3 -84q0 -205 -94 -204q-57 0 -57 79q0 12 6 31q12 39 14 99q4 76 4 147q0 123 -10 221q-6 53 -29 53 q-35 0 -102.5 -9t-99.5 -9q-57 0 -58 76zM678 754q0 25 27 67q33 57 36 66q100 246 152 526q14 72 80 72t65 -80q0 -98 70 -266q29 -72 43 -72q27 0 109 238q20 57 79 188q18 41 45 49q10 4 25 4q31 0 52.5 -21.5t21.5 -54.5q0 -10 -5 -29.5t-5 -31.5q0 -139 65 -375 q0 -2 37 -112q29 -87 29 -101q0 -27 -24 -51.5t-52 -24.5q-27 0 -45 46q-47 113 -88 296q-8 35 -13 52q-12 37 -22 39q-4 -2 -6 -7q-39 -59 -80 -184q-45 -133 -74 -188q-20 -37 -47 -37q-31 0 -57.5 28.5t-28.5 59.5q-4 72 -57 205q-25 61 -37 61q-6 0 -17 -20 q-31 -59 -106 -291q-41 -127 -113 -127q-27 0 -43 23.5t-16 52.5z" />
<glyph unicode="&#xe000;" horiz-adv-x="1413" d="M0 0v1413h1413v-1413h-1413z" />
</font>
</defs>
</svg>
