<?xml version="1.0" standalone="no"?>
<!DOCTYPE svg PUBLIC "-//W3C//DTD SVG 1.1//EN" "http://www.w3.org/Graphics/SVG/1.1/DTD/svg11.dtd" >
<svg xmlns="http://www.w3.org/2000/svg">
<metadata></metadata>
<defs>
<font id="alterego_bbbold" horiz-adv-x="1644" >
<font-face units-per-em="2048" ascent="1638" descent="-410" />
<missing-glyph horiz-adv-x="878" />
<glyph horiz-adv-x="2048" />
<glyph horiz-adv-x="2048" />
<glyph unicode="&#xd;" horiz-adv-x="878" />
<glyph unicode=" "  horiz-adv-x="878" />
<glyph unicode="&#x09;" horiz-adv-x="878" />
<glyph unicode="&#xa0;" horiz-adv-x="878" />
<glyph unicode="!" horiz-adv-x="952" d="M-168 -20q0 41 14 81q31 92 123 138q57 29 176 49q47 6 140 22q39 6 174 47q109 33 168 33q80 0 80 -90q-1 -39 -15 -86q-45 -137 -186 -188q-29 -10 -292 -63.5t-284 -53.5q-98 0 -98 111zM223 500q0 41 21 102q188 580 389 905q92 147 217 148q111 0 111 -99 q0 -35 -31 -96q-98 -207 -365 -842q-84 -199 -262 -198q-80 0 -80 80z" />
<glyph unicode="&#x22;" horiz-adv-x="1120" d="M188 803q0 25 9 51q94 289 268 629q82 160 203 159q115 0 114 -118q0 -31 -10 -62q-31 -94 -123 -280.5t-123 -280.5q-27 -82 -82 -139q-63 -63 -143 -64q-113 0 -113 105zM666 803q0 25 8 51q94 289 268 629q82 160 203 159q115 0 115 -118q-1 -31 -11 -62 q-31 -94 -123 -280.5t-122 -280.5q-27 -82 -82 -139q-63 -63 -144 -64q-113 0 -112 105z" />
<glyph unicode="#" horiz-adv-x="1806" d="M-66 266q0 39 21 96q39 125 172 162q63 18 229 19q16 45 39 110q-14 -2 -51 -5t-57 -3q-96 0 -97 88q0 39 19 94q33 100 96 140q41 25 120 29.5t103 17.5q2 6 7 22q33 96 98 262q63 158 188 158q129 0 129 -108q0 -37 -14 -82q-27 -70 -78 -209l-4 -17l135 -2 q209 -2 228 15q63 174 147 395q70 162 199 162q115 0 114 -123q0 -33 -12 -70q-37 -113 -123 -323q29 0 86.5 5t83.5 5q104 0 105 -82q-1 -35 -19 -96q-37 -111 -127 -154q-57 -29 -158 -33q-92 -6 -106 -18l-14 -37q-6 -20 -15 -51q51 6 70 6q109 0 108 -115q0 -31 -10 -63 q-55 -170 -235 -176l-45 -6q2 -29 -54 -193q-70 -219 -251 -219q-90 0 -91 98q0 53 27 133q10 35 34.5 78t27 50t2.5 14q-184 0 -388 -29q-14 -55 -47 -164q-27 -82 -92 -131t-147 -49q-86 0 -86 102q0 66 47 211q-35 0 -101.5 -4t-101.5 -4q-111 0 -111 94zM682 573 q125 6 373 25l35 102q-111 -8 -371 -24q-20 -51 -37 -103z" />
<glyph unicode="$" horiz-adv-x="1619" d="M-102 94q2 29 10 56q23 72 101.5 135t148.5 63q63 0 71 -55q10 -100 13 -103q27 -55 137 -55q61 0 82 23q10 12 33 80q27 84 86 256q-412 8 -412 194q0 31 12 66q68 209 242 352q127 104 383 225q72 33 82 41q23 18 43 76q45 121 69 156q53 78 146 77q88 0 110 -47 q8 -18 17 -125h18q16 0 48 3.5t46 3.5q84 0 136.5 -42t52.5 -114q0 -35 -12 -74q-29 -84 -98.5 -137t-151.5 -53q-45 0 -65.5 19.5t-41.5 19.5q-27 0 -84 -15q-29 -70 -78 -209l-14 -45l4 4q76 0 239 51.5t240 51.5q109 0 109 -137q0 -93 -76 -226q-104 -180 -198 -288 q-111 -131 -267 -244q-174 -123 -377 -209q-8 -4 -20 -12q-2 -10 -7 -33t-7 -33q-66 -199 -252 -199q-82 0 -82 82q0 25 8 68q8 33 4 37q-10 6 -61 6q-410 0 -387 309zM559 858q59 -18 141 -20l58 149q-139 -68 -199 -129zM815 258q252 137 365 303q-154 -33 -281 -51 q-29 -78 -59 -174z" />
<glyph unicode="%" horiz-adv-x="1980" d="M113 -246q0 20 8 43q33 106 304 437t290 391h-4q-8 0 -9.5 -2t-9.5 -2q-213 0 -348 71q-164 84 -164 252q0 61 25 133q78 242 321 404q233 156 478 155q158 0 260 -84q27 -23 55 -63q39 -53 49 -66q12 2 76 82q78 100 129 146q84 78 153 78q51 0 81 -31t30 -80 q0 -23 -8 -49q-23 -70 -250 -333t-238 -292q0 -2 5 -2q10 0 11 3t11 3q193 0 342 -65q188 -84 188 -236q0 -41 -16 -88q-82 -256 -299 -430q-223 -176 -477 -176q-236 0 -420 176q-25 -27 -178 -248q-96 -137 -115 -155q-78 -90 -155 -91q-53 0 -89 34t-36 85zM526 1087 q0 -109 193 -108q94 0 186 35q119 45 146 125q6 16 6 30q0 53 -74 80q-55 18 -127 19q-92 0 -180 -29q-119 -41 -144 -115q-6 -20 -6 -37zM1006 416q0 -106 192 -107q92 0 184 33q121 45 148 125q4 16 4 31q0 53 -74 80q-55 18 -127 18q-90 0 -178 -29q-119 -39 -143 -114 q-6 -20 -6 -37z" />
<glyph unicode="&#x26;" horiz-adv-x="1882" d="M-72 145q0 61 23 129q57 178 250 351q-45 61 -45 139q0 158 166 348q150 172 364.5 298t366.5 126q115 0 186.5 -59.5t71.5 -157.5q0 -45 -17 -96q-29 -86 -102.5 -143.5t-159.5 -57.5q-76 0 -76 63q0 14 3.5 43t3.5 43q2 14 -7 15q-59 0 -250.5 -112.5t-209.5 -166.5 q-8 -25 53 -24q43 0 98 5t98 5q121 0 121 -92q0 -37 -18 -96q-37 -113 -119 -152q-88 -23 -174 -47q-121 -35 -209 -127q-74 -76 -74 -121q0 -61 168 -61q147 0 316 53q221 70 258 188q8 20 8 43q0 41 -27 86q-53 27 -53 92q0 82 67.5 159t149.5 93q25 4 230 9q182 2 204 18 q37 35 75 69.5t89 34.5q53 0 90 -34.5t37 -85.5q0 -53 -53 -125q-63 -88 -137 -131q-57 -33 -170 -62q-45 -10 -97 -26q-37 -70 -84 -158q-147 -268 -438 -430q-274 -154 -559 -154q-178 0 -293 78q-125 84 -125 231z" />
<glyph unicode="'" horiz-adv-x="706" d="M201 803q0 25 8 51q94 289 268 629q82 160 203 159q115 0 115 -118q-1 -31 -11 -62q-31 -94 -123 -280.5t-122 -280.5q-27 -82 -82 -139q-63 -63 -144 -64q-113 0 -112 105z" />
<glyph unicode="(" horiz-adv-x="958" d="M6 274q0 178 66 381q111 342 354 619q274 311 606 397q27 8 53 8q84 0 84 -88q0 -39 -16 -90q-41 -127 -182 -184q-131 -53 -183 -84q-72 -45 -155 -141q-127 -143 -205 -320q-88 -195 -88 -371q0 -43 6 -84q16 -104 84 -163q59 -35 118.5 -71t59.5 -93q0 -29 -12 -66 q-23 -74 -70 -125q-55 -66 -123 -65q-25 0 -45 8q-352 104 -352 532z" />
<glyph unicode=")" horiz-adv-x="991" d="M-150 -176q0 39 17 88q41 125 182 182q131 53 180 84q70 43 152 137q174 199 250 435q45 137 45 258q0 45 -6 84q-16 102 -84 161q-59 39 -117.5 77t-58.5 93q0 82 65.5 169t145.5 87q23 0 43 -8q348 -106 348 -536q0 -182 -66 -385q-109 -336 -354 -613 q-274 -309 -602 -395q-31 -8 -56 -8q-84 0 -84 90z" />
<glyph unicode="*" horiz-adv-x="1515" d="M147 639q0 37 11 68q31 96 157 182q104 72 209 143q-6 6 -125 88q-82 53 -82 119q0 20 9 45q23 70 82 133q68 74 133 74q55 0 125 -49q88 -61 114 -72q4 10 13 35q25 78 95 139.5t146 61.5q92 0 92 -90q0 -31 -16 -103q-2 -23 -12 -63q18 0 30 2q47 0 179.5 80.5 t183.5 80.5q90 0 90 -102q0 -35 -12 -72q-35 -106 -152 -178q-106 -59 -213 -119q12 -16 162 -124q115 -84 115 -162q0 -20 -6 -41q-20 -66 -82 -133q-68 -78 -129 -78q-49 0 -169 101.5t-139 101.5q-4 6 -32 -66q-90 -279 -283 -279q-84 0 -84 84q0 45 27 129q8 27 30.5 77 t30.5 75q8 27 -4 27q-20 0 -179 -119t-224 -119q-90 0 -91 123z" />
<glyph unicode="+" horiz-adv-x="1185" d="M70 621q0 37 16 86q33 102 104 141q51 29 168 43q86 8 74 8q43 0 49 41q4 20 27 90q92 287 250 287q113 0 112 -105q0 -51 -26 -135q-20 -51 -58 -155q35 0 111 11t109 11q96 0 96 -88q-1 -39 -19 -94q-41 -127 -163 -174q-78 -29 -228 -29q-14 -31 -37 -84 q-45 -109 -84 -156q-59 -72 -153 -71q-102 0 -103 104q0 57 31 152q6 16 8 33q0 -2 -29.5 -2t-72.5 -7.5t-70 -7.5q-113 0 -112 101z" />
<glyph unicode="," horiz-adv-x="747" d="M-162 -188q0 33 10 65q25 74 103 139q106 88 190 213q119 176 158 222q90 104 184 104q51 0 81 -31.5t30 -79.5q0 -57 -51 -131q-72 -96 -211 -293q-72 -102 -178 -198q-133 -123 -217 -123q-98 0 -99 113z" />
<glyph unicode="-" horiz-adv-x="1124" d="M45 623q0 39 14 86q63 190 334 190q27 0 72 -2h65q82 0 412 51q25 4 39 4q94 0 94 -98q0 -39 -16 -88q-49 -150 -191 -174q-74 -14 -174 -17l-172 -4q-57 -2 -198 -24q-133 -23 -181 -23q-98 0 -98 99z" />
<glyph unicode="." horiz-adv-x="1032" d="M-49 41q0 39 14 80q27 84 109 131q63 33 168 51q82 10 161 21q35 6 177 49q121 37 163 37q84 0 84 -95q0 -39 -16 -84q-49 -156 -242 -202q-160 -27 -319 -54q-51 -14 -100 -30q-61 -18 -99 -19q-100 0 -100 115z" />
<glyph unicode="/" horiz-adv-x="1130" d="M-287 -223q0 23 8 43q18 59 111 180q72 88 143 176q313 387 930 1167q76 104 238 304q94 106 170 106q53 0 91 -32.5t38 -82.5q0 -19 -6 -39q-16 -53 -121 -178q-76 -90 -154 -178q-631 -743 -954 -1198q-82 -117 -162 -231q-121 -158 -203 -158q-55 0 -92 35t-37 86z " />
<glyph unicode="0" horiz-adv-x="1794" d="M4 350q0 96 35 205q123 377 524 655q387 270 768 271q225 0 356.5 -125t131.5 -328q0 -104 -37 -219q-96 -297 -361 -522q-182 -158 -428 -271q-264 -121 -452 -120q-240 0 -388.5 122.5t-148.5 331.5zM346 481q0 -111 96 -172q86 -53 222 -53q205 0 507 190 q225 140 291 347q18 53 19 102q0 102 -73 162.5t-191 60.5q-195 0 -459 -127q-309 -152 -393 -411q-18 -53 -19 -99z" />
<glyph unicode="1" horiz-adv-x="894" d="M168 1012q0 37 16 86q45 141 191 178q154 39 214 63.5t204 106.5q68 39 116 39q98 0 99 -117q-1 -39 -13 -78q-41 -125 -137 -373.5t-135 -373.5q-27 -78 -67 -232.5t-64.5 -230.5t-94 -133.5t-141.5 -57.5q-98 0 -98 107q0 88 96 383q31 98 101.5 301t101.5 299 q-47 0 -143.5 -32t-143.5 -32q-102 0 -102 97z" />
<glyph unicode="2" horiz-adv-x="1556" d="M-117 -47q0 109 74 192q360 418 1057 826q154 90 168 137q14 45 -103 45q-299 0 -518 -84q-256 -96 -264 -96q-86 0 -86 104q0 35 12 70q35 111 137 176q125 78 390 141q242 55 393 56q412 0 411 -263q1 -61 -24 -137q-43 -131 -164 -246q-90 -86 -254 -186l-266 -160 q-217 -139 -350 -274q4 -2 20 -2q14 0 41 2t39 2q31 0 88 -2t84 -2q213 0 430 100q63 29 94 29q74 0 74 -119q0 -193 -276 -291q-201 -72 -441 -71q-57 0 -172 5t-174 5q-100 0 -289 -43q-33 -8 -51 -8q-80 0 -80 94z" />
<glyph unicode="3" horiz-adv-x="1536" d="M-68 133q-14 53 2 100q20 66 95 131.5t137 65.5q41 0 80 -59q57 -82 92 -109q76 -57 201 -57q141 0 299 71q170 80 237 193q10 68 -213 94q-147 12 -295 27q-98 18 -98 90q0 25 10 57q51 156 164 195q55 18 240 18q205 0 313 113q18 20 25 33q18 63 -217 63 q-176 0 -256 -14q-131 -25 -263 -107q-78 -49 -127 -49q-88 0 -88 107q0 39 13 80q55 166 354 272q238 84 438 84q193 0 330 -66q170 -80 170 -231q0 -109 -84 -240q-70 -106 -168 -194q113 -82 113 -201q0 -133 -148 -309q-174 -205 -414.5 -324t-474.5 -119 q-172 0 -295 70q-135 76 -172 215z" />
<glyph unicode="4" horiz-adv-x="1482" d="M47 553q0 61 27 145q43 135 141 310q33 55 182 301q92 150 217 149q106 0 107 -98q0 -23 -8 -47q-27 -84 -133.5 -242t-135.5 -242q-8 -29 -8 -49q0 -47 49 -61q27 -6 111 -6q362 0 381 18q41 43 121 281q98 297 106 315q70 160 199 160q117 0 117 -123q-1 -35 -13 -70 q-25 -74 -102 -264q-68 -168 -94 -266l10 -10q18 -23 65 -47q31 -16 31 -50q0 -25 -14 -73q-61 -186 -207 -201l-12 -2q-20 -53 -41 -141q-25 -106 -37 -144q-29 -88 -94.5 -145t-151.5 -57t-86 110q0 76 86 342q2 8 0 12q-72 0 -215 -2t-215 -2q-188 0 -270 31 q-113 45 -113 168z" />
<glyph unicode="5" horiz-adv-x="1400" d="M-123 152q0 82 73 165.5t152 83.5q31 0 80 -39q72 -55 101 -71q70 -39 153 -39q125 0 281 65q268 111 268 195q0 88 -272 88q-152 0 -514 -86q-27 -8 -45 -8q-90 0 -91 117q0 45 21 90q111 236 197 501q25 72 125 166q45 41 81 54q27 10 86 10q86 0 234 12q174 16 235 19 q166 6 230 6q98 0 98 -103q0 -32 -12 -69q-66 -199 -346 -199h-74q-47 2 -68 2q-53 0 -161.5 -8t-159.5 -8l-10 -9q-10 -23 -19 -63q-8 -53 -12 -68q-8 -25 24 -24q43 0 130.5 8t128.5 8q526 0 526 -280q0 -63 -25 -144q-92 -283 -401 -465q-281 -164 -574 -163 q-141 0 -276 63q-164 76 -164 193z" />
<glyph unicode="6" horiz-adv-x="1593" d="M-39 162q0 113 47 260q113 342 441.5 673.5t687.5 456.5q41 14 73 15q98 0 99 -111q0 -39 -15 -84q-29 -86 -145 -147q-123 -66 -248 -131q-139 -78 -231 -166q352 123 530 123q158 0 242 -78t84 -215q0 -82 -31 -176q-109 -336 -440 -557q-315 -211 -658 -211 q-436 0 -436 348zM299 301q0 -135 221 -135q156 0 329 84t286 219q75 88 75 145q0 37 -31.5 60.5t-74.5 23.5q-104 0 -356 -88q-238 -82 -361 -151q-37 -20 -45 -27q-16 -14 -27 -41q-16 -51 -16 -90z" />
<glyph unicode="7" horiz-adv-x="1325" d="M160 1159q0 27 8 55q29 90 113 152q76 57 172 72q127 20 303 24q147 4 297 6q53 2 192 13q123 10 193 10q113 0 112 -113q0 -37 -14 -82q-31 -90 -145 -149q-139 -70 -271 -244q-264 -346 -323 -428q-180 -244 -303 -438q-94 -147 -203 -148q-111 0 -111 119q0 41 17 90 q45 137 206 342q135 164 269 326q59 84 188 246q25 25 58 78q4 16 -95 16q-221 0 -358 -27q-143 -27 -193 -26q-113 0 -112 106z" />
<glyph unicode="8" horiz-adv-x="1554" d="M-74 154q0 55 21 118q66 201 270 355q-80 70 -80 178q0 55 21 119q90 274 411 448q283 154 572 154q442 0 471 -340q4 -72 -13 -125q-47 -147 -268 -332q76 -106 76 -254q0 -233 -313 -430q-272 -170 -529 -188q-47 -4 -102 -4q-217 0 -357 59q-180 78 -180 242zM274 319 q16 -115 271 -114q127 0 270 39q195 49 240 141q-16 111 -238 111q-113 0 -289 -41q-227 -55 -254 -136zM487 975q18 -113 222 -113q154 0 297 31q213 47 262 147q-14 111 -236 111q-111 0 -289 -43q-229 -55 -256 -133z" />
<glyph unicode="9" horiz-adv-x="1542" d="M141 762q0 70 27 153q98 301 418 484q283 162 598 162q205 0 317.5 -89.5t112.5 -254.5q0 -92 -35 -203q-123 -375 -434 -705q-324 -338 -709 -477q-45 -16 -80 -16q-92 0 -92 118q0 39 12 78q27 86 144 150q299 158 393 223q180 131 309 332q-317 -133 -348 -146 q-193 -68 -350 -67q-137 0 -210 68.5t-73 189.5zM467 913q0 -45 90 -45q127 0 363 88q268 97 321 199q-45 59 -190 59q-154 0 -324 -65q-213 -84 -256 -217q-4 -10 -4 -19z" />
<glyph unicode=":" horiz-adv-x="866" d="M-82 35q0 39 14 82q49 154 275 172q92 8 299 59q35 8 55 8q82 0 82 -94q0 -39 -14 -84q-47 -145 -187 -186q-33 -8 -82 -10q-70 -4 -81 -7q-33 -4 -132 -30q-86 -23 -129 -23q-100 0 -100 113zM98 606q0 39 15 80q51 156 276 174q92 6 297 60q35 8 55 8q82 0 82 -94 q0 -39 -14 -86q-47 -145 -184 -185q-35 -10 -84 -12q-70 -4 -80 -4q-35 -4 -133 -33q-86 -23 -129 -22q-100 0 -101 114z" />
<glyph unicode=";" horiz-adv-x="847" d="M-188 -211q0 33 10 68q25 74 102 137q106 90 174 186q102 150 140 193q90 104 184 104q51 0 80.5 -31.5t29.5 -78.5q0 -57 -53 -128t-174 -239q-72 -102 -178 -201q-133 -123 -217 -123q-98 0 -98 113zM133 682q0 39 12 80q51 156 277 174q92 6 297 59q35 8 55 9 q84 0 84 -95q0 -39 -14 -86q-49 -145 -187 -184q-33 -8 -82 -12q-70 -4 -81 -4q-33 -4 -134 -33q-84 -23 -129 -23q-98 0 -98 115z" />
<glyph unicode="&#x3c;" horiz-adv-x="1308" d="M10 481q0 27 10 62q31 92 111 157q94 76 256 187q205 139 262 180q150 111 318 219q250 160 311 160q86 0 86 -92q0 -70 -44 -142.5t-103 -113.5q-96 -61 -287 -183q-98 -66 -361 -258q-20 -14 -45 -34q-4 -16 74 -86q166 -143 375 -250q68 -35 67 -88q0 -82 -80.5 -170 t-164.5 -88q-96 0 -226 82q-96 63 -180 149q-70 74 -321 223q-57 35 -58 86z" />
<glyph unicode="=" horiz-adv-x="1527" d="M-33 346q0 39 17 90q47 143 188 170q104 20 256 25l250 4q102 6 254 31q129 20 256 41q25 2 39 2q96 0 96 -95q0 -39 -16 -90q-45 -139 -189 -174q-111 -27 -260 -35l-254 -8q-82 -4 -270 -33q-174 -27 -268 -26q-98 0 -99 98zM209 854q0 39 16 90q47 143 193 172 q106 20 256 27q127 2 252 6q51 4 510 65q23 4 37 5q96 0 96 -97q-1 -37 -17 -88q-45 -141 -188 -174q-111 -27 -260 -35l-254 -8q-80 -4 -270 -33q-174 -27 -269 -26q-102 0 -102 96z" />
<glyph unicode="&#x3e;" horiz-adv-x="1316" d="M-45 45q0 41 12 78q33 100 134.5 165.5t304.5 198.5q127 84 339 242q20 14 43 35q6 16 -71 86q-160 143 -375 250q-68 35 -68 88q0 82 81 171t165 89q180 0 404 -236q57 -61 153 -120q86 -51 172 -101q57 -35 58 -86q-1 -26 -13 -63q-31 -94 -108 -156q-92 -76 -258 -186 q-199 -133 -262 -181q-518 -385 -635 -385q-76 0 -76 111z" />
<glyph unicode="?" horiz-adv-x="1417" d="M-35 -66q0 39 12 80q29 84 111 131q61 33 168 52q80 10 162 20q37 6 176 49q121 37 164 37q82 0 82 -96q-1 -39 -15 -84q-43 -133 -184 -184q-29 -10 -292 -64.5t-286 -54.5q-98 0 -98 114zM229 1053q0 43 17 94q72 217 456 379q326 139 572 139q135 0 211 -69.5 t76 -188.5q0 -65 -23 -137q-80 -244 -311 -414q-150 -111 -471 -248q-31 -14 -92 -43l-5 -16q-20 -72 -99 -142.5t-152 -70.5q-78 0 -78 117q0 59 18 120q49 147 205 248q63 43 305 150q197 88 283 174q78 76 78 110q0 35 -80 35q-139 0 -301 -41q-209 -51 -281 -139 q-125 -160 -238 -160q-90 0 -90 103z" />
<glyph unicode="@" horiz-adv-x="2226" d="M-27 219q0 293 236 639q473 694 1163 694q551 0 717 -497q43 -127 43 -262q0 -129 -41 -254q-98 -307 -414 -482q-168 -92 -288 -92q-90 0 -152 49q-31 25 -98 115q-4 6 -15 16q-127 -90 -301 -90q-326 0 -325 240q0 74 30 170q78 242 256 405q197 176 433 177 q137 0 237 -52q106 -57 96 -192q-25 -123 -49 -246q-23 -141 51 -199q14 -14 35 -14q68 0 131 96q43 66 70 152q23 68 16 137q-16 203 -192 338q-170 129 -393 129q-260 0 -532.5 -218t-358.5 -478q-27 -82 -27 -144q0 -98 83 -175t83 -128q0 -25 -8 -53q-27 -82 -64 -115 q-43 -41 -123 -41q-94 0 -180 84q-80 74 -102 164q-16 59 -17 127zM823 430q0 -39 76 -39q234 0 289 174q16 47 16 80q0 57 -51 57q-70 0 -200 -102t-130 -170z" />
<glyph unicode="A" d="M-172 -16q0 29 8 53q18 53 189 246q115 125 229 252q217 248 434 495q338 381 427 438.5t183 57.5q143 0 144 -176q0 -66 -25 -195q-25 -135 -26 -174q-1 -26 -1 -55q0 -135 23 -332q31 -277 33 -381v-13q0 -31 -8 -55q-25 -76 -104 -136t-156 -60q-109 0 -109 117 q0 27 7 85t7 85q0 86 -71 86q-90 0 -371 -64q-299 -70 -354 -115q-23 -16 -160 -188q-98 -127 -178 -127q-53 0 -87 47t-34 109zM666 569q223 51 381 76q-8 132 -8 234q0 59 3 108q-129 -145 -376 -418z" />
<glyph unicode="B" horiz-adv-x="1736" d="M-43 47q0 98 63 295q10 35 39 103.5t39 103.5q2 16 8 49q-9 25 -9 53q0 48 28 103q41 78 108 114q20 41 54 123q-70 70 -70 148q0 31 12 63q33 106 146 162q162 82 379 129q203 45 372 45q211 0 310 -37q143 -51 143 -192q0 -57 -25 -131q-41 -129 -155 -240 q291 -43 291 -225q-1 -101 -93 -234q-111 -162 -417 -332q-236 -129 -488 -217q-268 -92 -477 -92q-258 0 -258 209zM303 209q10 -2 25 -2q162 0 536 115q467 140 467 250q0 24 -139 24q-379 0 -803 -119q-61 -158 -86 -268zM547 840q334 26 676 313q-39 39 -148 39 q-137 0 -409 -70q-47 -125 -119 -282z" />
<glyph unicode="C" horiz-adv-x="1599" d="M-45 254q0 180 92 387q86 195 215 336q221 244 561 401q332 154 621 154q119 0 198 -39q102 -47 103 -139q0 -31 -12 -64q-29 -92 -95 -151q-72 -66 -159 -66q-84 0 -88.5 50.5t-65.5 50.5q-100 0 -254 -44q-614 -172 -756 -606q-23 -68 -22 -118q0 -188 311 -189 q197 0 307 41q123 45 265 178q88 86 147 86q98 0 98 -119q0 -92 -57 -170q-133 -180 -420 -288q-244 -94 -467 -95q-522 0 -522 404z" />
<glyph unicode="D" horiz-adv-x="1779" d="M-56 161.5q40 125.5 150.5 367t147.5 356.5q4 12 4 22q0 16 -30 46t-30 73q0 33 17 84q72 217 502 330q301 78 600 78q236 0 348 -52q147 -67 186 -247q10 -47 10 -99q0 -78 -24 -153q-90 -276 -512 -564q-313 -215 -699 -368q-444 -178 -596 -178q-114 0 -114 114 q0 65 40 190.5zM297 258q412 115 934 449q223 141 268 276q8 27 8 49q0 131 -319 131q-285 0 -545 -90q-63 -150 -190 -446q-55 -123 -156 -369z" />
<glyph unicode="E" horiz-adv-x="1572" d="M-172 -94q0 59 28.5 148t90.5 212q53 106 104 211q88 170 256 512q14 31 23 53q-14 31 -19 93q-2 21 -2 39q0 36 8 61q31 92 142 145q135 63 334 107q31 6 333 59q90 18 183 35q106 20 178 21q192 0 192 -122q0 -26 -10 -57q-23 -70 -82 -133q-67 -73 -131 -73h-2 q-16 0 -45 9t-45 9q-117 0 -281 -33q-143 -31 -284 -63q-49 -10 -60 -15q-35 -10 -55 -28q-27 -25 -94 -191q31 2 104 21q477 118 780 118h5q102 0 102 -86q0 -27 -10 -59q-63 -195 -242 -219q-246 -31 -491 -64q-340 -53 -435 -118q-70 -49 -127 -226q-14 -45 0 -45 q8 0 60 15q219 66 440 131q270 73 424 73h4q106 0 107 -100q0 -39 -17 -90q-47 -143 -192 -172q-248 -47 -338 -68q-188 -41 -340 -88l-246 -86q-180 -61 -223 -61q-127 0 -127 125z" />
<glyph unicode="F" horiz-adv-x="1423" d="M-170 -76q0 63 33 162.5t108 259.5q25 43 60 121q2 14 8 43q14 45 47 82q57 131 160 395q6 23 6 51q0 12 -2 40t-2 44q0 39 12 74q35 109 141 162q150 72 453 131q231 39 463 80q59 10 110 10q197 0 197 -121q0 -24 -10 -55q-23 -70 -82 -135q-70 -74 -135 -74 q-18 0 -51 11.5t-52 11.5q-55 0 -340 -58q-293 -57 -321 -76q-76 -55 -152 -284l-8 -29q35 2 125 25q401 102 676 102q104 0 104 -88q0 -27 -10 -57q-63 -195 -242 -217q-309 -39 -415 -56q-317 -53 -385 -114q-45 -39 -113 -252q-45 -139 -88 -201q-72 -109 -182 -109 q-113 0 -113 121z" />
<glyph unicode="G" horiz-adv-x="1978" d="M-66 188q0 80 31 177q78 240 311 489q221 238 478 379q72 41 250 123q436 200 669 200h2q78 0 125 -38.5t47 -106.5q0 -33 -10 -70q-29 -84 -97.5 -137t-150.5 -53q-39 0 -71.5 15.5t-47.5 15.5q-29 0 -133 -33q-242 -74 -422 -168t-376 -266q-227 -199 -275 -342 q-6 -20 -6 -37q0 -88 156 -127q100 -25 237 -25q410 0 807 334q43 35 58 51q35 33 43 58q2 5 2 10q0 29 -64 29q-309 0 -553 -152q-70 -43 -104 -43q-41 0 -64 49q-20 41 -20 96q0 35 8 60q53 162 366 262q244 80 443 80q154 0 252 -45q123 -55 123 -172q-1 -78 -52 -174 q-201 -373 -622 -598q-387 -207 -787 -207q-242 0 -387 84q-166 94 -166 282z" />
<glyph unicode="H" horiz-adv-x="1425" d="M-139 -74q0 43 24 119q190 582 508 1235q76 156 209 156q111 0 111 -107q0 -35 -15 -74q-20 -66 -110 -241q-76 -150 -94 -246q88 4 282 55q188 51 238 51q16 0 20 17q51 160 64 334q2 35 16 108q23 70 82 133q68 70 135 70q53 0 86 -51q37 -57 37 -152q0 -125 -102 -448 q39 -31 39 -92t-38 -123t-93 -95q-39 -135 -123 -405q-25 -78 -100.5 -141.5t-153.5 -63.5q-88 0 -88 82q0 41 41 168q80 244 80 281q0 5 -1 6q-4 4 -24 4q-90 0 -467 -105q-80 -23 -107 -55q-20 -20 -51 -104q-6 -18 -35 -111q-45 -135 -94 -197q-74 -88 -194 -88 q-82 0 -82 80z" />
<glyph unicode="I" horiz-adv-x="1413" d="M-150 -35q0 33 13 74q25 72 81 124t126 52q25 0 70.5 -8t70.5 -8q96 0 137 86q27 82 53.5 167t91 262t93.5 265q2 8 2 24.5t4 24.5q2 12 -6 12q-51 0 -145.5 -41t-145.5 -41q-92 0 -92 115q0 100 63 168q37 39 96 66q178 78 521.5 154.5t511.5 76.5q106 0 106 -100 q0 -37 -14 -84q-39 -119 -139 -160q-55 -23 -195 -33q-129 -8 -180 -41q-29 -18 -135 -297q-74 -197 -117 -329q-29 -88 -59 -218q2 -4 6 -6l14 2q250 43 328 43q168 0 168 -118q0 -90 -80 -181.5t-168 -91.5q-16 0 -47 8.5t-47 8.5q-31 0 -93 -9q-176 -27 -352 -55 q-209 -33 -346 -33q-195 0 -195 121z" />
<glyph unicode="J" horiz-adv-x="1665" d="M-72 172q0 90 35 195q63 200 202 200h1q125 0 125 -92q0 -29 -12.5 -91t-12.5 -91q0 -115 166 -115q106 0 223 49q291 121 428 541q78 240 78 322q0 31 -14 30q-66 0 -203 -20.5t-205 -20.5q-194 0 -194 116q0 89 66.5 175t152.5 86q31 0 87 -8t87 -8q68 0 164 18 q158 31 317 64q185 34 303 34h7q151 0 151 -122q0 -86 -76 -170q-68 -74 -131 -90q-29 -6 -139 -7q-31 0 -46 -49t-41 -151.5t-42 -153.5q-115 -354 -244 -534q-178 -250 -489 -381q-178 -74 -342 -74q-190 0 -296 93t-106 255z" />
<glyph unicode="K" horiz-adv-x="1554" d="M-133 -109q0 39 24 113q35 109 121 340v10q0 85 66 164q125 324 162 408q98 231 198 399q92 152 217 152q104 0 105 -101q0 -27 -10 -57q-25 -78 -103 -223q-82 -152 -106 -224q82 41 315 203q207 150 621 441q74 49 122 49q90 0 91 -119q-1 -41 -13 -80 q-29 -90 -233 -242q-125 -94 -402 -268q-258 -162 -319 -211q597 -354 597 -535q0 -16 -5 -30q-23 -66 -88 -133q-74 -72 -140 -72q-43 0 -86 41q-281 279 -507 383q-70 31 -170 66l-9 -5l-4 -14q-8 -35 -26 -104q-8 -29 -39 -123q-45 -139 -99 -207q-78 -96 -200 -96 q-80 0 -80 75z" />
<glyph unicode="L" horiz-adv-x="1488" d="M-76 184q16 45 47 121q61 141 262 680q47 125 150 373q76 164 203 164q112 0 112 -121v-2q0 -35 -12 -72q-49 -154 -171 -460t-171 -459q-8 -29 -25 -82q27 2 91 32q47 23 94 48q166 74 373 126q217 53 366 54q123 0 123 -105q0 -39 -16 -90q-45 -137 -193 -164 q-281 -49 -397 -77q-215 -55 -400 -144q-88 -47 -174 -92q-100 -49 -176 -49q-114 0 -114 146q0 81 28 173z" />
<glyph unicode="M" horiz-adv-x="1748" d="M-209 -106q0 84 82 200q68 90 135 180q203 293 567 983q88 166 244 166q121 0 121 -96q0 -41 -20 -108q-33 -96 -39 -220q-4 -109 -7 -215q-4 -39 -8 -77q-2 -23 -2 -38q0 -25 6 -28q43 2 177 221q14 20 159 277q68 119 193 254q158 172 246 172q51 0 89 -44t38 -100 q0 -49 -56 -127q-68 -90 -80 -127q-18 -57 -26 -141q-14 -137 -15 -139q-20 -127 -57 -699q-2 -33 -10 -57q-25 -74 -90 -133q-72 -63 -144 -64q-88 0 -98 111q-6 55 -6 119q0 96 14 250q25 229 27 252q-96 -147 -191 -295q-115 -174 -208 -284t-185 -110q-135 0 -135 123 q0 31 8 70q31 134 31 278q0 64 -6 130q-111 -172 -332 -515q-172 -270 -344 -270q-78 0 -78 101z" />
<glyph unicode="N" horiz-adv-x="1439" d="M-158 -16q0 25 11 55q41 125 141 307q86 154 170 305q143 270 244 580q25 74 101.5 141.5t145.5 67.5q84 0 88 -115q10 -268 39 -428q37 -219 125 -387q23 -41 37 -41q6 0 14 25q8 18 25 63q18 55 57 166q86 266 113 430q6 49 31 145q25 76 88 138q71 69 141 69h2 q113 0 113 -153q0 -115 -70 -332q-14 -45 -47 -135t-49 -137q-23 -72 -67 -216.5t-66 -216.5q-70 -215 -99 -268q-86 -164 -217 -164q-180 0 -460 699q-74 -96 -138 -277q-72 -203 -118 -280q-92 -152 -232 -152q-123 0 -123 111z" />
<glyph unicode="O" horiz-adv-x="1773" d="M-25 350q0 96 35 205q123 377 525 655q387 270 768 271q225 0 356 -125t131 -328q0 -104 -37 -219q-96 -297 -360 -522q-182 -158 -428 -271q-262 -120 -450 -120h-3q-240 0 -388.5 122.5t-148.5 331.5zM317 481q0 -111 97 -172q86 -53 221 -53q205 0 508 190 q225 140 291 347q18 53 18 102q0 102 -72.5 162.5t-191.5 60.5q-195 0 -459 -127q-309 -152 -393 -411q-18 -53 -19 -99z" />
<glyph unicode="P" horiz-adv-x="1525" d="M-113 -53q0 45 31 137q57 174 166 432q154 362 180 426q-55 25 -55 150q0 145 147 223q178 92 518 147q276 43 515 43q147 0 215 -30q88 -37 88 -136q0 -50 -23 -120q-66 -203 -428 -424q-279 -170 -565 -267q-102 -35 -184 -55q-39 -6 -115 -29q-31 -12 -144 -360 q-29 -86 -98 -150q-77 -69 -158 -69h-2q-88 0 -88 82zM524 819q193 37 381 113q238 96 363 217q-29 2 -64 2q-193 0 -561 -84q-68 -135 -119 -248z" />
<glyph unicode="Q" horiz-adv-x="1767" d="M-39 348q0 92 33 193q125 381 526 663q389 276 774 277q227 0 356.5 -120t129.5 -323q0 -108 -39 -229q-86 -262 -281 -449q59 -51 70 -65q35 -41 35 -86q0 -25 -9 -53q-23 -66 -79 -131q-68 -76 -129 -76q-59 0 -125 65q-72 70 -113 78q-31 -16 -92 -47 q-285 -147 -514 -147q-236 0 -385 120q-158 123 -158 330zM307 481q0 -227 361 -227q76 0 116 16q-47 23 -91 48.5t-44 70.5q0 88 69.5 177t153.5 89q74 0 186.5 -56t160.5 -56q61 0 127 88q47 68 70.5 139.5t23.5 128.5q0 104 -68.5 161.5t-191.5 57.5q-233 0 -494 -145 q-289 -162 -360 -383q-18 -59 -19 -109z" />
<glyph unicode="R" horiz-adv-x="1677" d="M-137 -12q0 29 10 61q98 305 166 486q14 37 102 217q72 143 84 211q-1 12 -1 28q0 46 9 121q33 100 155 198.5t220 98.5q23 0 41 -6q445 110 946 110h9q102 0 162.5 -51t60.5 -139q-1 -47 -17 -98q-45 -139 -315 -318q-182 -121 -414 -227q246 -229 246 -508 q0 -74 -14 -117q-25 -74 -102.5 -136t-149.5 -62t-78 114q-10 217 -125 344q-123 141 -344 142q-18 0 -53 2t-53 2q-41 0 -76 -8l-15 -43q-23 -90 -75 -271q-31 -96 -107 -168q-83 -77 -174 -77h-2q-96 0 -96 94zM487 807q379 74 562 151q157 68 307 203h-21h-7 q-211 0 -734 -117q-2 -2 -107 -237z" />
<glyph unicode="S" horiz-adv-x="1583" d="M-133 92q0 43 16 92q25 76 102.5 142.5t151.5 66.5q59 0 70 -57q14 -96 18 -105q33 -57 146 -57q168 0 329 78q129 61 250 141q174 115 197 189q4 10 -23 10q-20 0 -73 -10q-305 -47 -459 -47q-444 0 -445 194q0 88 89 223q74 113 153 187q152 139 476.5 277t498.5 138 q188 0 188 -149q0 -37 -14 -82q-25 -74 -91.5 -128t-139.5 -54q-47 0 -81 20.5t-38 20.5q-82 0 -354 -111q-291 -115 -310 -176q-1 -2 -1 -4q0 -21 71 -21q207 0 436 48l430 94q16 4 31 4q109 0 108 -137q1 -91 -75 -226q-94 -164 -172 -260q-199 -242 -512.5 -406.5 t-579.5 -164.5q-154 0 -266 65q-127 76 -127 205z" />
<glyph unicode="T" horiz-adv-x="1327" d="M166 1143q0 37 16 86q47 145 195 174q139 27 518 43q150 6 514 51q20 2 35 2q98 0 98 -108q0 -31 -10 -66q-49 -147 -195 -184q-78 -18 -276 -19q-20 0 -35 2q-14 -66 -53 -198q-16 -51 -52 -150.5t-52.5 -150t-44 -149.5t-42.5 -148q-51 -152 -127 -273 q-113 -178 -233 -178q-104 0 -105 119q0 63 48 143q82 143 262 692q60 189 60 237q0 7 -1 11q-66 -2 -206 -18.5t-208 -16.5q-106 0 -106 99z" />
<glyph unicode="U" horiz-adv-x="1648" d="M-61 133q0 133 86 399q162 498 372 787q88 121 176 121q109 0 109 -129q0 -55 -33 -117q-254 -477 -354 -784q-29 -86 -29 -129q0 -90 109 -91q27 0 69 7q385 63 592 194q178 115 273 410q61 186 61 483q0 41 10 70q23 72 89.5 127t136.5 55q104 0 104 -238 q0 -262 -76 -489q-137 -426 -442 -659q-283 -219 -737 -289q-84 -12 -162 -13q-354 0 -354 285z" />
<glyph unicode="V" horiz-adv-x="1394" d="M221 1135v13q0 33 8 58q23 70 89.5 125t136.5 55q82 0 108 -100q18 -72 45 -325q29 -268 29 -396q0 -43 -4 -61q92 125 272 377l240 329q39 57 125 166q94 106 188 107q106 0 107 -109q0 -61 -49 -133q-127 -193 -373 -524q-274 -371 -381 -524q-203 -295 -402 -295 q-98 0 -98 155q0 49 10 133q14 94 15 111q2 41 2 86q0 135 -31 377q-35 256 -37 375z" />
<glyph unicode="W" horiz-adv-x="1699" d="M61 -84q0 51 29 143q72 217 96 447q14 141 17 432q0 133 12 309q25 72 91.5 131.5t135.5 59.5q86 0 103 -107q12 -72 12 -162q0 -70 -9 -212t-9 -212q35 41 73 107q33 53 66 109q51 82 100 161q61 98 111 158q98 115 219 115q111 0 111 -109q0 -20 -5 -41 q-40 -244 -40 -323q0 -72 12 -131q59 90 151 264q96 182 148 264q162 254 311 254q49 0 81 -32t32 -79q0 -61 -88 -192q-66 -93 -129 -185q-240 -377 -367 -663q-43 -111 -139 -328q-79 -155 -250 -155h-2q-125 0 -127 98q0 27 12 59q47 150 47 334q0 88 -10 195 q-4 29 -8 86q-123 -137 -240 -361q-94 -188 -190 -379q-85 -161 -228 -161h-2q-127 0 -127 106z" />
<glyph unicode="X" horiz-adv-x="1458" d="M-94 -31q0 23 10 51q35 106 158 250q55 68 213 228q115 115 125 149q1 4 1 9q0 44 -79 202q-104 207 -111 225q-7 23 -7 49q0 36 14 78q22 72 77 131q63 70 133 70q49 0 84 -51q12 -18 47 -94q47 -113 154 -330q20 8 156 139q360 342 594 432q47 18 81 19q92 0 93 -109 q-1 -41 -15 -86q-29 -90 -139 -151q-340 -186 -629 -510q-2 -12 -2 -29q0 -72 97.5 -283t97.5 -284q0 -20 -6 -35q-20 -63 -95 -127t-139 -64q-53 0 -112 121q-18 39 -91 232q-49 129 -75 139q-217 -178 -308 -315q-94 -145 -208 -146q-119 0 -119 90z" />
<glyph unicode="Y" horiz-adv-x="1439" d="M41 -63q0 27 8 49q23 72 218.5 270.5t213.5 255.5q2 5 2 12q0 41 -61 148q-123 213 -141 252q-80 162 -80 276q0 49 14 90q23 72 84 124t131 52q72 0 98 -69q20 -86 74 -248q70 -166 184 -311q31 23 99 96q127 143 254 287q152 172 264 274q84 80 153 80q100 0 101 -119 q0 -84 -70 -168q-115 -139 -319 -354q-260 -274 -328 -348q-156 -176 -313 -355q-186 -209 -328 -346q-88 -84 -149 -84q-49 0 -79 41t-30 95z" />
<glyph unicode="Z" horiz-adv-x="1290" d="M-193 -29q0 35 15 82q27 82 96 144q236 197 473 393q276 233 440 426q23 25 58 78l-27 2h-11q-86 0 -247 -27q-178 -29 -256 -29q-98 0 -98 95q0 39 16 88q47 147 244 192q45 10 334 29q78 6 379 53q20 2 34 2q96 0 97 -117q-1 -34 -13 -69q-74 -227 -344 -527 q-68 -74 -473 -467l27 3q61 0 186 15t189 15q157 0 157 -133q0 -37 -14 -78q-25 -78 -91.5 -124t-143.5 -46q-23 0 -64 9.5t-63 9.5q-150 0 -383 -39q-373 -66 -387 -68q-20 -2 -37 -2q-92 0 -93 90z" />
<glyph unicode="[" horiz-adv-x="845" d="M-195 -262q0 23 7 53q39 172 120 436q125 416 134 437q53 195 170 581q66 199 108 297q63 150 225 164q301 27 351 27q100 0 100 -95q0 -39 -16 -90q-37 -106 -109 -147q-45 -25 -145 -31q-109 -8 -154 -27q-39 -92 -221 -655q-35 -111 -87 -329t-87 -324q-2 -6 26 -8 q16 -2 37 -2l74 2q184 2 184 -99q0 -23 -8 -51q-47 -145 -137 -186q-53 -23 -215 -23q-39 0 -118 -11t-118 -11q-121 0 -121 92z" />
<glyph unicode="\" horiz-adv-x="1144" d="M283 1501q0 53 10 88q23 66 92.5 115t134.5 49q84 0 103 -158q4 -117 10 -233q27 -459 178 -1196q14 -66 31 -133q20 -96 20 -156q0 -38 -10 -67q-20 -61 -89 -107.5t-132 -46.5q-76 0 -105 104q-14 59 -22 150q-8 76 -17 153q-57 389 -172 1170q-33 233 -32 268z" />
<glyph unicode="]" horiz-adv-x="849" d="M-199 -262q0 37 17 86q37 113 131 156q57 27 164 28q96 2 111.5 16.5t152.5 440.5q135 414 203 723q14 66 41 147q2 8 -46 8q-152 0 -180 7q-96 16 -96 92q0 27 10 59q47 143 137 182q53 23 216 23q43 0 125.5 12.5t115.5 12.5q113 0 113 -101q0 -20 -6 -47 q-39 -174 -119 -436q-133 -434 -135 -438q-117 -406 -215 -709q-51 -154 -90 -215q-76 -117 -200 -117t-314 -24q-23 -4 -37 -4q-98 0 -99 98z" />
<glyph unicode="^" horiz-adv-x="1265" d="M193 940q0 43 12 80q29 88 133 156q117 76 264 213q158 147 238 202q59 41 112 41q63 0 115 -61q4 -4 72 -111q66 -80 131 -160q90 -111 90 -194q0 -26 -8 -53q-25 -72 -88 -131q-70 -68 -140 -68q-61 0 -98 74q-35 66 -96 149q-82 106 -123 107q-4 0 -117 -92 q-133 -113 -221 -174q-135 -94 -199 -95q-78 0 -77 117z" />
<glyph unicode="_" horiz-adv-x="1544" d="M-154 -119q0 37 17 86q61 190 336 191q27 0 75 -2t68 -2q106 0 436 30q137 12 412 47q25 2 39 2q94 0 94 -98q0 -39 -16 -86q-47 -147 -191 -176q-47 -8 -285 -23q-168 -6 -507 -22q-57 -2 -189 -25q-123 -20 -190 -20q-98 0 -99 98z" />
<glyph unicode="`" horiz-adv-x="1017" d="M262 1524q0 14 6 32q16 53 76 84q51 27 109 27q68 0 180 -49q84 -41 168 -80q35 -16 178 -70q123 -47 123 -125q0 -14 -6 -30q-16 -53 -74 -84q-49 -29 -102 -29q-74 0 -291 88q-176 70 -283 127q-84 45 -84 109z" />
<glyph unicode="a" horiz-adv-x="1638" d="M-197 -20q0 20 7 43q23 66 147 200q94 96 186 195q307 367 596 760q113 156 219 237q127 100 263 101q45 0 73 -5q49 -4 80 -45t31 -94q0 -25 -8 -51.5t-42 -74.5t-42 -75q-6 -16 -6 -57q0 -133 32 -348q0 -6 56 -272q45 -219 45 -301q0 -29 -4 -43q-23 -70 -113 -145 t-160 -75q-98 0 -98 187q0 16 2 47v45q0 110 -40 110h-1q-63 0 -367.5 -76.5t-363.5 -107.5q-41 -23 -162 -166q-98 -119 -186 -119q-57 0 -100.5 37t-43.5 93zM596 551q146 37 408 82q-14 131 -31 379q-131 -160 -377 -461z" />
<glyph unicode="b" horiz-adv-x="1755" d="M-27 41q0 102 74 328q27 84 68 172q-6 47 -6 85q0 54 12 91q29 84 108 135q10 6 26.5 19.5t33.5 60.5q6 27 24 82q-94 8 -94 119q0 33 12 67q35 109 150 160q176 76 465 129q266 49 457 49q454 0 454 -253q0 -55 -20 -118q-47 -145 -193 -266q162 -57 162 -194 q0 -102 -92 -234q-113 -164 -418 -334q-236 -129 -489 -215q-268 -92 -480 -92q-254 0 -254 209zM336 205l6 -4q166 2 541 114q467 143 467 250q0 23 -154 23q-360 0 -790 -117l-17 -49q-47 -143 -53 -217zM563 829q172 20 411.5 113.5t397.5 204.5q-84 45 -225 45 q-186 0 -465 -76q-59 -160 -119 -287z" />
<glyph unicode="c" horiz-adv-x="1714" d="M-35 260q0 117 47 266q168 516 774 805q403 190 760 191q125 0 207 -39q100 -49 100 -146q0 -34 -12 -73q-25 -76 -78 -138q-65 -73 -131 -73h-2q-61 0 -97 58t-89 58q-289 0 -629 -163q-393 -186 -479 -453q-25 -76 -25 -133q0 -209 348 -209q236 0 336 33 q127 43 320 209q74 63 119 63q51 0 78.5 -42t27.5 -97q0 -111 -135 -232q-102 -90 -236 -155q-297 -145 -620 -146q-584 0 -584 416z" />
<glyph unicode="d" horiz-adv-x="1816" d="M-45 205q39 117 145.5 349t145.5 351q4 12 4 23q0 18 -26.5 54t-26.5 75q0 29 12 65q29 92 141 164q137 86 486 150q301 57 493 57q229 0 381 -61q203 -80 203 -248q-1 -54 -19 -113q-92 -283 -411 -532q-342 -268 -692 -447q-428 -219 -730 -219q-163 0 -163 112 q0 42 57 220zM342 258q301 49 649 256q371 219 545 475q14 22 14 45q0 78 -237 78q-305 0 -692 -82q-145 -326 -279 -772z" />
<glyph unicode="e" horiz-adv-x="1599" d="M-104 -29q0 86 94 254q39 80 119 244q70 133 141 268q86 164 119 267q0 2 -7 34q-6 41 -6 74q0 45 13 82q49 156 178 217q117 55 315 84q160 20 318 41q92 18 182 37q109 20 180 20q193 0 193 -120q-1 -27 -11 -56q-23 -70 -82 -133q-68 -76 -133 -76q-14 0 -40.5 9.5 t-41.5 9.5q-92 0 -354 -45q-285 -47 -338 -84q-41 -29 -108 -215q29 4 90 20q524 139 803 139q104 0 104 -94q0 -33 -12 -74q-61 -190 -230 -212q-205 -25 -409 -50q-236 -33 -412 -92q-166 -55 -250 -301q35 0 121 29q565 188 825 188q106 0 107 -102q0 -43 -16 -98 q-49 -150 -193 -177q-127 -8 -256 -16q-311 -39 -651 -195q-111 -51 -178 -51q-82 0 -128 48.5t-46 125.5z" />
<glyph unicode="f" horiz-adv-x="1538" d="M-152 -70q0 68 29 156t98 231q92 184 111 232q66 137 174 418q10 27 10 59q0 16 -3 49t-3 49q0 70 49 140q72 94 369 170q102 27 407.5 82t372.5 55q182 0 183 -113q-1 -26 -11 -61q-23 -70 -84 -135q-68 -74 -133 -74q-18 0 -51 11t-51 11q-57 0 -324 -51 q-250 -49 -340 -74q-10 -2 -20 -10t-41 -82q-25 -66 -33 -90l-4 -20q8 -12 43 -13q41 0 133 27q70 18 137 39q338 82 580 82q100 0 100 -88q0 -27 -10 -60q-63 -197 -244 -215q-473 -51 -778 -149q-94 -31 -131 -60q-55 -39 -168 -389q-86 -262 -250 -262q-117 0 -117 135z " />
<glyph unicode="g" horiz-adv-x="1982" d="M-102 174q0 80 30 174q80 244 320 502q227 242 487 385q231 125 479 217q303 113 476 113q178 0 178 -148q0 -35 -15 -74q-25 -80 -95 -134t-150 -54q-49 0 -80 17.5t-45 17.5q-33 0 -137 -33q-250 -78 -441.5 -174t-394.5 -270q-236 -203 -285 -355q-6 -20 -6 -39 q0 -92 164 -133q102 -24 243 -24h11q426 0 836 338q47 37 63 55q39 37 49 63q1 5 1 10q0 33 -75 34q-326 0 -577 -154q-70 -43 -103 -43q-41 0 -63 49q-20 41 -20 98q0 33 6 56q39 119 256 217q152 68 321 100q139 29 264 29q158 0 256 -45q123 -59 123 -178q0 -83 -49 -173 q-207 -383 -641 -610q-395 -207 -809 -207q-250 0 -401 82q-176 96 -176 291z" />
<glyph unicode="h" horiz-adv-x="1501" d="M-127 -23q0 55 33 158q182 561 428 1061q78 160 209 160q110 0 110 -111q0 -31 -10 -63q-20 -66 -98 -221q-72 -139 -92 -226q66 6 176 35q129 35 174 43q164 27 340 68q14 16 35 80q52 160 52 231q0 18 -3 31q-9 41 -9 71q0 22 5 37q20 63 96 125t139 62q47 0 80 -37 q49 -58 49 -162q0 -94 -45 -229q-55 -170 -153.5 -508t-151.5 -508q-29 -88 -98 -154q-78 -70 -162 -70q-90 0 -90 82q0 39 49 189q104 321 104 371q0 6 -2 8q-6 6 -34 6q-80 0 -371 -62q-311 -66 -336 -102q-16 -25 -31 -68q-8 -27 -22.5 -78t-22.5 -75q-78 -238 -266 -238 q-82 0 -82 94z" />
<glyph unicode="i" horiz-adv-x="641" d="M-31 125q27 66 56 129q199 506 288 848q16 68 54 205q25 74 83 123t132 49q135 0 135 -127q0 -31 -10 -64q-41 -123 -135.5 -367.5t-133.5 -365.5q-25 -80 -66.5 -234.5t-66.5 -232.5q-27 -84 -102.5 -143.5t-157.5 -59.5q-108 0 -108 105q0 51 32 135z" />
<glyph unicode="j" horiz-adv-x="1822" d="M-84 176q0 84 33 180q68 209 209 209q127 0 127 -88q0 -27 -14.5 -90t-14.5 -92q0 -123 201 -123q233 0 424 117q209 127 297 352q16 41 59 178q68 207 68 268q0 31 -41 31q-61 0 -191.5 -21.5t-191.5 -21.5q-188 0 -189 117q0 88 65.5 175t151.5 87q31 0 88.5 -9 t85.5 -9q68 0 166 18q158 33 318 64q183 36 303 36h6q149 0 149 -120q0 -31 -10 -64q-78 -237 -368 -237h-2q-16 -51 -46 -161t-47 -161q-117 -358 -286 -563q-199 -240 -547 -369q-170 -61 -334 -61q-211 0 -336 90q-133 94 -133 268z" />
<glyph unicode="k" horiz-adv-x="1669" d="M-162 -109q0 33 15 74q61 193 215.5 564.5t216.5 562.5q55 172 100 243q84 137 213 138q135 0 135 -97q0 -41 -26 -96q-68 -139 -136 -276q-80 -164 -118 -279q25 14 229 172q268 205 733 586q89 73 146 73h2q49 0 80.5 -39.5t31.5 -93.5q0 -23 -6 -43 q-35 -104 -467 -434q-215 -162 -430 -323q0 -6 64 -39q422 -213 548 -394q27 -37 27 -77q0 -27 -10 -56q-20 -68 -86 -129q-69 -67 -133 -67h-2q-41 0 -86 37q-211 178 -281 227q-166 119 -328 170q-49 16 -84 16q-104 0 -159 -129q-49 -119 -99 -239q-74 -129 -223 -129 q-82 0 -82 77z" />
<glyph unicode="l" horiz-adv-x="1427" d="M-117 0q0 66 25 141q23 70 76 181q70 135 305 667q53 123 172 367q88 160 215 160q104 0 104 -113q0 -37 -12 -76q-51 -154 -156 -379q-90 -186 -180 -375q-37 -78 -100 -235q33 4 104 29q470 157 720 157h3q127 0 127 -106q0 -37 -18 -88q-45 -139 -191 -164 q-203 -35 -407 -68q-231 -49 -408 -141q-109 -57 -131 -68q-72 -30 -129 -30h-4q-115 0 -115 141z" />
<glyph unicode="m" horiz-adv-x="1908" d="M-188 -76q0 35 10 68q20 59 92 139q113 125 117 131q227 297 608 989q92 168 246 168q125 0 125 -90q0 -39 -21 -98q-45 -139 -45 -316q0 -72 8 -141q4 -29 9 -92q2 -41 2 -51q41 29 309 422q125 184 266 358q102 127 213 127q59 0 95 -35t36 -92q0 -26 -10 -57 q-6 -20 -29.5 -58.5t-30.5 -58.5q-88 -272 -102 -700v1l2 -214v-37q0 -125 -12 -166q-23 -66 -95.5 -124t-138.5 -58q-84 0 -98 108q-10 70 -10 158q0 80 10 207q14 193 16 206q0 35 11 109q-90 -102 -239.5 -331.5t-246.5 -336.5q-82 -90 -153 -90q-68 0 -106 47t-38 115 q0 23 4 43q17 90 17 241q0 90 -6 201q-90 -106 -195 -266l-176 -274q-178 -268 -342 -269q-102 0 -102 117z" />
<glyph unicode="n" horiz-adv-x="1531" d="M-141 -31q0 29 10 58q41 127 145 311q86 154 174 307q150 274 248 580q25 78 102.5 143.5t153.5 65.5q78 0 82 -115q10 -268 47 -434q43 -195 152 -383q23 -43 67 -92q102 315 179 604q18 82 63 243q82 254 209 254q72 0 106 -71q28 -50 28 -113q0 -12 -1 -24 q-8 -90 -53 -232q-18 -55 -58 -164.5t-59 -165.5q-25 -72 -68 -215t-65 -215q-70 -213 -98 -266q-86 -166 -211 -166q-47 0 -88 29q-147 109 -258 317q-16 29 -172 381q-66 -102 -160 -293q-100 -207 -152 -295q-89 -151 -215 -151h-2q-106 0 -106 102z" />
<glyph unicode="o" horiz-adv-x="1867" d="M4 319q0 115 41 240q119 365 533 666q408 297 774 297q242 0 393 -131t151 -347v-5q0 -97 -36 -205q-131 -410 -556 -698t-808 -288q-229 0 -363 134q-129 127 -129 337zM346 459q0 -115 70.5 -183.5t197.5 -68.5q225 0 527 166q311 172 393 426q20 61 20 114 q0 117 -87 179.5t-226 62.5q-225 0 -502 -166q-299 -178 -370 -395q-23 -72 -23 -135z" />
<glyph unicode="p" horiz-adv-x="1656" d="M-135 -61q0 29 10 61q70 215 170 436q59 121 117 242q70 145 102 242q6 18 4 32q-73 65 -73 121q0 33 14 72q33 100 147 160q170 86 568 151q352 59 569 60q326 0 326 -187q-1 -45 -17 -100q-74 -225 -473 -447q-285 -160 -616 -262q-127 -29 -332 -98q-35 -16 -141 -346 q-31 -94 -109 -162t-170 -68q-96 0 -96 93zM520 768q225 43 465 139q284 117 436 258l-84 -6q-279 -23 -686 -104q-47 -100 -131 -287z" />
<glyph unicode="q" horiz-adv-x="1804" d="M-43 317q0 117 41 244q90 274 315 488q203 193 473 327q291 143 512 144q250 0 398.5 -126t148.5 -341q0 -109 -39 -230q-86 -268 -333 -504l12 -12q82 -72 82 -131q0 -27 -11 -59q-23 -63 -79 -129q-66 -74 -125 -74q-55 0 -121 61.5t-101 61.5q-23 0 -178 -68 q-279 -121 -512 -121q-227 0 -358 134q-125 127 -125 335zM295 457q0 -115 72.5 -181.5t201.5 -68.5l60 -2q133 0 162 28l8 9q-78 29 -101 45q-43 31 -43 82q0 29 13 69q23 70 80 123q61 61 126 62q74 0 193 -54q23 -10 174 -90q55 2 141 129q72 106 95.5 177t23.5 130 q0 117 -82 179.5t-221 62.5q-227 0 -508 -168q-301 -180 -371 -397q-25 -72 -24 -135z" />
<glyph unicode="r" horiz-adv-x="1716" d="M-111 -96q0 41 27 121q66 205 166 454q-14 26 -14 60q0 31 12 67q35 104 125 160q33 63 88 192v9q-37 33 -37 98q0 45 18 106q35 100 144 156q166 84 534 152q332 59 533 59q397 0 397 -192q0 -35 -12 -74q-94 -289 -721 -578q6 -16 72 -137q137 -250 137 -414 q0 -53 -12 -96q-23 -63 -89.5 -113.5t-132.5 -50.5q-68 0 -94 70q-45 127 -90 252q-55 125 -156 209q-83 69 -139 69h-2q-174 0 -248 -63q-37 -33 -94 -191q-37 -106 -74 -211q-35 -80 -100 -137q-74 -59 -152 -59q-86 0 -86 82zM551 821q211 2 463 105q245 102 397 243 q-326 -6 -741 -102q-51 -98 -119 -246z" />
<glyph unicode="s" horiz-adv-x="1746" d="M-127 123q6 90 90 172t172 82q59 0 70 -55q16 -88 26 -105q41 -55 172 -55q188 0 381 80q152 61 289 143q199 119 225 205q-29 0 -92 -10q-377 -70 -567 -70q-176 0 -297 41q-170 55 -170 180q0 33 10 72q84 252 391 426q229 129 469 219q287 106 471 106t185 -145 q0 -41 -17 -92q-27 -78 -92 -127t-143 -49q-29 0 -72 19l-43 20q-106 0 -325 -78q-172 -61 -328 -139l-72 -35q-53 -29 -59 -45q-1 -2 -1 -4q0 -21 85 -21q319 0 946 139q76 16 90 17q98 0 98 -119q0 -55 -20 -121q-131 -399 -612 -692q-446 -270 -861 -270q-182 0 -286 67 q-114 73 -114 216q0 14 1 28z" />
<glyph unicode="t" horiz-adv-x="1476" d="M170 1139q0 33 10 67q49 150 199 180q127 27 301 37q147 6 295 13q184 8 586 59q23 2 34 2q100 0 101 -108q-1 -33 -13 -68q-39 -125 -165 -172q-82 -31 -252 -41q-178 -8 -234 -27q-2 -2 -53 -159q-16 -51 -53 -153.5t-53.5 -151t-41 -138.5t-38.5 -135 q-156 -477 -373 -477q-98 0 -98 117q0 63 47 145q74 125 137 322q166 507 166 604v8q-63 0 -196.5 -17.5t-199.5 -17.5q-106 0 -106 111z" />
<glyph unicode="u" horiz-adv-x="1488" d="M-45 111q0 137 82 393q172 526 362 805q86 123 172 123q111 0 111 -136q0 -53 -29 -108q-127 -260 -180 -379q-94 -209 -149 -381q-35 -104 -35 -158q0 -84 71 -84q55 0 179 37q270 80 393 192.5t205 368.5q61 190 80 494q2 37 10 61q25 72 93.5 132.5t137.5 60.5 q90 0 90 -203q0 -127 -35 -309q-26 -147 -53 -229q-258 -795 -1059 -938q-78 -14 -149 -15q-297 0 -297 273z" />
<glyph unicode="v" horiz-adv-x="1472" d="M190 1098q-1 11 -1 22q0 34 10 62q25 74 88 139q72 74 143 74q63 0 88 -82q23 -68 41 -174q14 -92 29 -183q20 -119 63 -493q37 39 221 274q123 162 244 322q147 193 260 311q98 104 193 105q104 0 104 -105q0 -59 -53 -137q-27 -37 -289 -366.5t-516 -671.5 q-221 -301 -434 -301q-98 0 -98 167q0 45 8 126t8 102v12q0 153 -47 395q-55 285 -62 402z" />
<glyph unicode="w" horiz-adv-x="1904" d="M121 -98q0 45 33 145q92 285 92 643q0 92 -6 242q-6 186 -9 244v15q0 39 9 64q23 66 92 120.5t135 54.5q82 0 104 -105q29 -137 29 -332q0 -109 -10 -286q57 72 213 288q131 184 222 287.5t212 103.5q109 0 109 -94q0 -23 -7 -53q-14 -90 -14 -180q0 -92 16 -197 q6 -33 17 -96q23 33 162 250q61 109 122 215q90 152 166 229q104 106 205 107q109 0 109 -117q0 -125 -111 -201q-303 -442 -489 -772q-45 -78 -207 -389q-90 -174 -281 -174q-96 0 -96 82q0 25 6 57q25 113 49 228q20 106 21 192q0 74 -12.5 164t-22.5 90l-33 -49 q-39 -49 -117 -150q-147 -203 -342 -565q-84 -158 -223 -158q-143 0 -143 97z" />
<glyph unicode="x" horiz-adv-x="1626" d="M-59 -29q0 25 10 54q35 109 168 254q63 72 231 227q123 115 133 145q1 2 1 5q0 26 -50 100q-86 131 -102 157q-57 90 -88 166q-14 33 -14 68q0 30 10 61q25 72 82 133q68 68 135 68q51 0 135 -127q49 -74 135 -235q68 -127 76 -127q18 0 121 92q446 401 716 495 q49 18 82 19q92 0 93 -121q-1 -35 -11 -66q-33 -102 -149.5 -160.5t-161.5 -82.5q-86 -49 -156 -101q-352 -268 -376 -340q-2 -8 -3 -18q0 -49 116 -257t116 -292q0 -20 -6 -37q-20 -66 -86 -135q-72 -78 -133 -78t-183.5 250t-142.5 254l-66 -33q-82 -66 -163 -133 q-90 -74 -146 -151q-104 -150 -221 -150q-102 0 -102 96z" />
<glyph unicode="y" horiz-adv-x="1482" d="M88 -74q0 76 78 168q25 33 147 152q88 84 103 131q4 8 4 20q0 41 -93.5 329t-93.5 433q0 63 15 109q25 72 93.5 133t139.5 61q84 0 99 -108q8 -92 36 -275q76 -336 125 -336q18 0 91 76t303 338q186 213 313 332q84 80 149 80q102 0 103 -123q0 -80 -68 -164 q-115 -141 -317 -354q-270 -287 -328 -350q-158 -178 -313 -357q-186 -207 -330 -344q-86 -84 -147 -84q-49 0 -79 40t-30 93z" />
<glyph unicode="z" horiz-adv-x="1527" d="M-168 -27q0 123 119 215q0 2 514 379q297 219 502 416q41 37 100 113q-4 -10 -18 -13q-10 -2 -27 0q-20 2 -21 2q-100 0 -299.5 -27.5t-298.5 -27.5q-102 0 -102 111q0 33 10 67q47 147 199 183q100 25 238 34q117 4 236.5 10.5t463.5 57.5q18 2 31 2q94 0 94 -106 q-1 -275 -828 -973q-59 -47 -124 -109q74 0 227 23.5t229 23.5q242 0 242 -145q0 -31 -10 -66q-25 -76 -90.5 -126t-143.5 -50q-23 0 -63.5 10.5t-63.5 10.5q-39 0 -131 -9.5t-440 -62.5q-279 -45 -440 -45q-104 0 -105 102z" />
<glyph unicode="{" horiz-adv-x="1998" d="M68 575q0 27 10 62q70 215 246 215q88 0 260 -15.5t260 -15.5q78 0 231.5 22.5t229.5 22.5q98 0 98 -98q-1 -39 -17 -90q-47 -143 -192 -170q-102 -20 -258 -21q-61 0 -182 5.5t-181 5.5q-66 0 -195.5 -3t-193.5 -3q-117 0 -116 83zM674 -45q0 29 12 65q61 190 240 209 q121 14 213 68q96 63 194 127q133 80 193 80q80 0 80 -115q-1 -43 -13 -80q-33 -100 -137 -157q-109 -49 -319 -162q-203 -121 -357 -121q-106 0 -106 86zM897 1217q0 86 70.5 174t154.5 88q41 0 172 -45q162 -55 181 -60q82 -16 165 -35q98 -20 156.5 -49.5t58.5 -89.5 q0 -24 -10 -55q-25 -72 -82 -133q-68 -74 -135 -74q-27 0 -63 14q-92 35 -301 84q-199 47 -297 88q-70 27 -70 93z" />
<glyph unicode="|" horiz-adv-x="622" d="M-143 -270q0 31 10 61q92 287 293.5 856.5t294.5 855.5q74 225 213 226q131 0 131 -109q-1 -35 -15 -80q-12 -37 -102 -274q-123 -324 -350 -973q-27 -76 -70 -227.5t-67.5 -229.5t-95 -139.5t-148.5 -61.5q-94 0 -94 95z" />
<glyph unicode="}" horiz-adv-x="2162" d="M197 143q0 25 10 56q25 72 84 135q68 74 135 74q29 0 66 -15q111 -45 282 -88q145 -39 291 -76q90 -25 90 -98q0 -86 -69.5 -174t-153.5 -88q-27 0 -174 47q-59 20 -180 55q-82 16 -164 35q-98 20 -157.5 49t-59.5 88zM449 954q0 43 12 80q29 90 123 150q12 8 176 90 q125 66 250 133q147 72 254 72q115 0 114 -97q0 -26 -10 -59q-59 -182 -240 -205q-133 -18 -337 -151q-193 -127 -265 -127q-78 0 -77 114zM686 575q0 39 16 91q49 145 197 172q102 18 258 18q59 0 177 -4t177 -4q61 0 187.5 3t189.5 3q137 0 137 -84q0 -26 -12 -63 q-70 -213 -241 -213q-90 0 -264.5 14t-264.5 14q-106 0 -420 -39q-23 -4 -37 -4q-100 0 -100 96z" />
<glyph unicode="~" horiz-adv-x="1568" d="M125 539q0 117 25 190q57 174 245.5 316.5t362.5 142.5q90 0 156.5 -57.5t70.5 -141.5q0 -27 -27.5 -125t-27.5 -141q0 -70 59 -70q35 0 82 15q59 18 68 47q0 -2 -29 35.5t-29 85.5q0 25 11 51q20 66 79 131q68 74 129 74q80 0 127 -84q41 -74 41 -177q0 -57 -14 -102 q-55 -172 -230 -309t-347 -137q-131 0 -216.5 80.5t-85.5 203.5q0 55 21 115l18 53q18 55 19 78q0 12 -4 12q-51 0 -109.5 -41t-66.5 -90q4 -45 -9 -137q-20 -63 -96 -133q-82 -74 -143 -74q-80 0 -80 189z" />
<glyph unicode="&#xa1;" horiz-adv-x="989" d="M27 -125q0 35 30 98q100 207 365 842q84 199 262 199q80 0 80 -82q-1 -40 -21 -101q-188 -580 -389 -905q-92 -150 -217 -149q-111 0 -110 98zM279 1167q0 37 16 93q45 137 186 186q31 10 293 64.5t283 54.5q98 0 98 -113q0 -39 -14 -82q-35 -106 -150 -149 q-61 -23 -145 -37q-72 -10 -144 -21q-37 -6 -167 -47q-106 -33 -166 -33q-90 0 -90 84z" />
<glyph unicode="&#xa2;" horiz-adv-x="1355" d="M57 440q0 84 31 178q117 362 578 596q16 8 45 27q18 100 39 166q76 229 247 229q96 0 97 -104q0 -47 -21 -127q-18 -66 -14 -70q-2 2 47 2q297 0 297 -157q0 -94 -77 -184.5t-169 -90.5q-84 0 -98 72l-17 2q-158 2 -356 -88q-231 -106 -278 -252q-10 -33 -11 -57 q0 -63 72 -86q43 -12 145 -13q143 0 242 54q47 25 129 96q59 53 105 53q49 0 77.5 -42t28.5 -99q0 -123 -152 -238q-115 -86 -262 -137q-25 -6 -53 -23q-4 -16 -12 -51q-115 -354 -283 -354q-115 0 -115 113q0 41 29 106q41 98 43 105q12 39 4 49q-80 20 -190 55 q-147 76 -148 270z" />
<glyph unicode="&#xa3;" horiz-adv-x="1763" d="M37 -20q0 33 12 67q31 96 135 170q94 57 187 113q102 61 125 131q8 27 -125 31q76 -2 -156 -3q-98 0 -98 95q0 35 12 75q23 68 78 115q31 27 121 80l-2 18q-14 29 -15 78q0 61 19 119q70 211 286 348q201 129 418 129q158 0 258.5 -78.5t108.5 -224.5q2 -41 -10 -76 q-23 -68 -98.5 -126t-143.5 -58q-51 0 -69.5 51t-35.5 99q-31 53 -110 53q-94 0 -166 -23q-106 -31 -106 -104q0 -43 36 -92q98 -129 314 -129q51 0 155.5 11t155.5 11q127 0 127 -90q0 -37 -18 -94q-39 -121 -154 -162q-72 -27 -221 -27q-158 -2 -209 -18q-33 -10 -90 -94 q-49 -76 -64 -117l4 -4h37q25 2 35 2h115q35 0 289 33q63 123 182 123q123 0 123 -121q-1 -29 -11 -62q-111 -338 -698 -338q-74 0 -214 8.5t-212 8.5q-35 0 -110.5 -13.5t-110.5 -13.5q-86 0 -86 99z" />
<glyph unicode="&#xa4;" horiz-adv-x="1902" d="M-29 360q0 25 9 54q31 98 116 135q59 27 170 29l31 75h-12q-106 -4 -107 103q0 25 8 51q35 104 133 143q61 23 189 25q205 240 569 401q346 156 631 156q287 0 287 -172q-1 -33 -13 -74q-31 -92 -94 -149q-70 -63 -159 -64q-72 0 -84 27q-4 23 -9.5 48.5t-60.5 25.5 q-250 0 -576 -168q43 2 211 26q131 20 209 21q109 0 109 -101q0 -25 -8 -53q-43 -127 -187.5 -160.5t-349.5 -38.5q-172 -4 -342 -8q-31 -51 -51 -98q174 8 551 57q53 8 69 8q109 0 109 -102q0 -25 -10 -51q-41 -129 -189 -162q-115 -27 -276 -33q-133 -2 -269 -6 q66 -88 283 -88q184 0 293 37q141 47 270 182q88 90 144 90q49 0 78.5 -44t29.5 -103q0 -70 -61 -146q-150 -188 -422 -292q-236 -90 -467 -91q-524 0 -520 422q-78 -14 -119 -14q-113 0 -113 102z" />
<glyph unicode="&#xa5;" horiz-adv-x="1495" d="M63 184q0 37 17 88q47 145 192 168q92 6 271 19q27 0 78 6q4 2 6 12q33 96 26 101q-55 0 -170.5 -23t-171.5 -23q-109 0 -108 113q0 31 10 66q49 150 229 188q-10 25 -100 137q-68 86 -68 156q0 29 11 59q23 74 80 133q68 70 135 70q49 0 86 -47q37 -59 113.5 -174 t205.5 -252q41 10 215 184q111 113 221 226q84 78 152 77q51 0 78.5 -35.5t27.5 -86.5q0 -29 -10 -58q-23 -68 -108 -151q-117 -113 -138 -140q129 -12 130 -82q0 -27 -11 -61q-51 -156 -151 -197q-41 -16 -234 -28q-84 -6 -104 -6q-25 -49 -53 -138q313 12 315 13 q100 0 100 -88q0 -27 -10 -60q-49 -152 -154 -190q-55 -20 -229 -21q-88 0 -125 -35q-25 -20 -45 -81q-25 -72 -51 -109q-55 -72 -146 -72q-129 0 -129 99q0 43 25 122q12 45 4 46q-43 0 -136 -12.5t-138 -12.5q-137 0 -138 100z" />
<glyph unicode="&#xa9;" horiz-adv-x="2181" d="M-8 303q0 137 47 285q102 311 367 563q233 221 557 381q348 172 604 172q281 0 459 -150.5t178 -400.5q0 -113 -41 -240q-158 -483 -656 -817q-227 -150 -473 -239q-262 -98 -479 -99q-266 0 -418 156q-145 147 -145 389zM330 438q0 -150 93 -235.5t263 -85.5 q309 0 668 221q381 238 479 539q25 76 25 143q0 152 -115 235.5t-295 83.5q-186 0 -447 -122q-248 -117 -419 -275q-164 -154 -220 -324q-33 -96 -32 -180zM530 510q0 70 29 158q82 254 365 422q258 156 520 155q186 0 186 -117q0 -22 -8 -47q-14 -49 -53 -90 q-43 -47 -88 -47q-39 0 -61.5 33t-43.5 33q-154 0 -340 -86q-215 -100 -260 -242q-12 -39 -12 -70q0 -106 182 -106q129 0 180 18q66 20 172 111q51 43 84 43q74 0 74 -90q0 -139 -231 -240q-190 -84 -353 -84q-342 0 -342 246z" />
<glyph unicode="&#xad;" horiz-adv-x="1124" d="M45 623q0 39 14 86q63 190 334 190q27 0 72 -2h65q82 0 412 51q25 4 39 4q94 0 94 -98q0 -39 -16 -88q-49 -150 -191 -174q-74 -14 -174 -17l-172 -4q-57 -2 -198 -24q-133 -23 -181 -23q-98 0 -98 99z" />
<glyph unicode="&#xae;" horiz-adv-x="2195" d="M6 303q0 137 47 285q102 311 367 563q233 221 557 381q348 172 604 172q281 0 459 -150.5t178 -400.5q0 -113 -41 -240q-158 -483 -655 -817q-227 -150 -473 -239q-262 -98 -480 -99q-266 0 -417 156q-145 147 -146 389zM344 438q0 -150 93 -235.5t263 -85.5 q260 0 572 168q-8 -2 -17 -2q-41 0 -61 45q-12 39 -25 80q-33 111 -110 176q-43 35 -70 34q-84 0 -109.5 -18t-56.5 -100q-12 -41 -43 -125q-23 -49 -69.5 -89t-96.5 -40q-57 0 -57 65q0 31 12 70q37 113 90 248q-16 45 9.5 96t66.5 80q16 31 43 92q-35 41 -8 125 q23 66 94 102q94 51 301 88q182 33 297 33q246 0 246 -121q0 -20 -8 -47q-55 -166 -397 -327q111 -190 110 -297q0 -66 -37 -109q375 236 471 533q25 76 25 143q0 152 -115 235.5t-295 83.5q-193 0 -446 -120q-236 -113 -420 -277q-162 -143 -219 -324q-33 -96 -33 -180z M958 827q131 10 252 66q43 19 197 111q-205 -14 -387 -54q-23 -45 -62 -123z" />
<glyph unicode="&#xb8;" horiz-adv-x="653" d="M-231 -530q0 51 47 99t98 48q33 0 49 -29q47 6 107.5 59.5t76.5 104.5q6 25 -36 25q-59 0 -101.5 -39t-81.5 -39q-59 0 -59 72q0 47 39 168q27 86 51 120q41 59 113 60q66 0 65 -47q0 -20 -31 -105q41 8 76 8q164 0 164 -141q0 -39 -14 -84q-43 -133 -181.5 -245.5 t-263.5 -112.5q-119 0 -118 78z" />
<glyph unicode="&#xbf;" horiz-adv-x="1421" d="M-113 47q0 66 23 137q68 205 213 338q106 96 309 195q326 158 352 172l4 16q20 72 99.5 142.5t152.5 70.5q78 0 78 -117q0 -59 -18 -120q-49 -147 -203 -248q-66 -43 -307 -152q-197 -88 -283 -172q-78 -76 -78 -110q0 -35 80 -35q139 0 301 41q211 51 281 139 q123 160 237 160q90 0 91 -103q-1 -43 -17 -94q-72 -217 -454 -379q-328 -139 -574 -139q-135 0 -211 69.5t-76 188.5zM608 1247q0 39 15 84q45 135 184 185q33 10 293 64t284 54q98 0 99 -114q-1 -39 -13 -80q-37 -109 -153 -150q-59 -23 -143 -35q-72 -8 -144 -18 q-55 -10 -141 -35q-121 -37 -144 -43q-35 -8 -55 -8q-82 0 -82 96z" />
<glyph unicode="&#xc0;" d="M-217 -16q0 29 6 53q18 53 188 246q115 125 232 252q215 248 432 495q338 381 423 435.5t169 58.5q-193 80 -299 135q-51 29 -51 67q0 39 37.5 64t78.5 25t177 -64q84 -41 170 -82q20 -8 108 -41q74 -29 74 -76q0 -39 -36 -63.5t-75 -24.5q-16 0 -53 11q31 -43 31 -125 q0 -66 -25 -195q-25 -135 -27 -174q-6 -147 23 -387q31 -276 33 -381q2 -39 -8 -68q-25 -76 -104 -136t-157 -60q-109 0 -108 117q0 27 7 85t7 85q0 86 -71 86q-90 0 -371 -64q-299 -70 -354 -115q-23 -16 -158 -188q-100 -127 -180 -127q-53 0 -86 47t-33 109zM618 569 q223 51 381 76q-12 209 -4 342q-129 -145 -377 -418z" />
<glyph unicode="&#xc1;" d="M-213 -16q0 29 8 53q16 53 189 246q115 125 229 252q199 227 397 456q315 356 426 449q-31 -6 -41 -6q-68 0 -67 49q0 74 135 114q47 14 137 43q111 41 221 82q178 61 219 62q72 0 72 -49q1 -64 -108 -105q-100 -39 -306 -108q100 -23 101 -172q0 -66 -23 -195 q-27 -135 -28 -174q-4 -147 22 -387q31 -276 35 -381q0 -39 -8 -68q-25 -76 -105 -136t-155 -60q-109 0 -109 117q0 27 7 85t7 85q0 86 -73 86q-88 0 -371 -64q-299 -70 -354 -115q-20 -16 -158 -188q-100 -127 -178 -127q-53 0 -87 47t-34 109zM623 569q225 51 381 76 q-10 209 -5 342q-127 -145 -376 -418z" />
<glyph unicode="&#xc2;" d="M-233 -16q0 29 8 53q18 53 188 246q115 125 230 252q217 248 434 495q336 381 426 438.5t182 57.5q145 0 145 -176q0 -66 -24 -195q-25 -135 -27 -174q-6 -147 21 -387q32 -277 34 -381q2 -39 -8 -68q-25 -76 -103.5 -136t-156.5 -60q-109 0 -108 117q0 27 7 85t7 85 q0 86 -74 86q-88 0 -368 -64q-299 -70 -357 -115q-20 -16 -157 -188q-98 -127 -179 -127q-53 0 -86.5 47t-33.5 109zM604 569q223 51 381 76q-12 209 -6 342q-127 -145 -375 -418zM956 1585q-8 27 0 53q14 39 66 70q59 33 134 94.5t116 85.5q29 18 55 19q35 0 62 -27 q2 -2 41 -49q37 -35 73 -72q49 -49 49 -86q0 -39 -37.5 -72.5t-76.5 -33.5q-31 0 -54 32q-74 111 -120 111q4 0 -109 -79t-158 -79q-31 0 -41 33z" />
<glyph unicode="&#xc3;" d="M-227 -16q0 29 8 53q16 53 188 246q115 125 230 252q217 248 434 495q336 381 422 436q33 20 63 33q-27 35 -26 82q0 27 10 53l8 27q14 41 6 41q-25 0 -51.5 -18.5t-28.5 -41t-6 -65.5q-10 -31 -47 -64.5t-68 -33.5q-37 0 -36 88q0 55 12 90q27 82 116 149.5t171 67.5 q43 0 73.5 -27.5t32.5 -66.5q0 -12 -13.5 -59.5t-13.5 -65.5q0 -33 29 -33q61 0 72 29l-14 17q-13 18 -13 38q0 12 4 25q10 33 40 65.5t59 32.5q37 0 58 -38t21 -85q0 -66 -53 -131q-45 -59 -108 -94q33 -43 32 -131q0 -66 -24 -195q-25 -135 -27 -174q-4 -147 23 -387 q31 -276 35 -381q0 -39 -9 -68q-27 -76 -105.5 -136t-154.5 -60q-109 0 -108 117q0 27 7 85t7 85q0 86 -74 86q-88 0 -370 -64q-299 -70 -355 -115q-23 -16 -157 -188q-100 -127 -178 -127q-53 0 -87 47t-34 109zM608 569q223 51 381 76q-10 209 -4 342q-127 -145 -377 -418 z" />
<glyph unicode="&#xc4;" d="M-231 -16q0 29 8 53q16 53 186 246q117 125 232 252q217 248 434 495q336 381 425 438.5t183 57.5q143 0 143 -176q0 -66 -24 -195q-25 -135 -27 -174q-4 -147 23 -387q30 -277 34 -381q0 -39 -8 -68q-27 -76 -105.5 -136t-156.5 -60q-109 0 -108 117q0 27 8 85t8 85 q0 86 -74 86q-88 0 -370 -64q-299 -70 -355 -115q-23 -16 -157 -188q-100 -127 -179 -127q-55 0 -87.5 47t-32.5 109zM604 569q223 51 381 76q-10 209 -4 342q-129 -145 -377 -418zM764 1630q0 27 10 56q27 80 94 108q18 8 131 29q90 14 140 14q55 0 55 -63q0 -27 -10 -56 q-33 -104 -82 -116q-68 -6 -137 -15q-125 -33 -134 -33q-68 0 -67 76zM1305 1694q0 25 10 53q25 82 92 108q18 8 133 29q88 16 139 17q55 0 56 -64q-1 -26 -11 -57q-33 -102 -82 -115q-70 -8 -137 -16q-125 -33 -133 -33q-68 0 -67 78z" />
<glyph unicode="&#xc5;" d="M-229 -16q0 29 8 53q18 53 188 246q115 125 230 252q211 242 421 483q330 371 426 442q-47 37 -47 101q0 29 11 61q35 106 147 184q106 76 211 76q68 0 106.5 -38t38.5 -99q1 -115 -114 -213q-25 -23 -56 -41q43 -43 43 -141q0 -66 -24 -195q-25 -135 -27 -174 q-6 -147 21 -387q33 -276 35 -381q2 -39 -9 -68q-25 -76 -103.5 -136t-156.5 -60q-109 0 -108 117q0 27 7 85t7 85q0 86 -74 86q-88 0 -370 -64q-297 -70 -355 -115q-20 -16 -157 -188q-98 -127 -179 -127q-53 0 -86.5 47t-33.5 109zM608 569q223 51 381 76q-12 209 -6 342 q-127 -145 -375 -418zM1165 1628q-10 -37 45 -37q33 0 90 37q35 20 43 49q12 37 -30 37q-35 0 -85 -24.5t-63 -61.5z" />
<glyph unicode="&#xc6;" horiz-adv-x="2598" d="M-268 -55q0 53 24 98q29 53 242 246q141 125 283 248q274 250 546 497q418 377 516.5 433.5t196.5 56.5q106 0 117 -80q127 39 489 102q90 18 183 35q106 20 178 21q193 0 192 -123q0 -27 -12 -60q-20 -66 -82 -129q-68 -74 -131 -73q-16 0 -45 9t-45 9q-117 0 -281 -33 q-141 -31 -284 -63q-49 -10 -60 -15q-35 -10 -55 -28q-27 -25 -94 -191q31 2 104 21q483 119 785 118q104 0 104 -86q0 -27 -12 -59q-61 -195 -242 -219q-238 -31 -477 -62q-354 -55 -449 -120q-74 -51 -137 -252q-6 -16 8 -17q16 0 62 13q219 66 440 131q272 74 428 73 q106 0 107 -100q0 -39 -17 -90q-47 -143 -192 -172q-279 -55 -322 -64q-182 -39 -323 -81q-131 -45 -263 -93q-197 -66 -239 -65q-127 0 -127 125q0 59 29 145q31 100 116 271q-104 -4 -389 -68q-307 -68 -377 -115q-43 -29 -204 -192q-119 -121 -195 -121q-96 0 -96 119z M748 610q174 37 360 66q32 201 61 305q-12 -10 -421 -371z" />
<glyph unicode="&#xc7;" horiz-adv-x="1650" d="M88 276q0 123 51 275q84 262 256 448q227 246 560 400.5t622 154.5q121 0 203 -41q98 -47 98 -143q0 -33 -12 -70q-27 -82 -100.5 -143t-153.5 -61q-68 0 -82 26q-4 23 -10.5 48.5t-59.5 25.5q-102 0 -256 -43q-614 -174 -755 -606q-20 -68 -21 -119q0 -188 309 -188 q190 0 297 36q135 45 275 183q86 86 147 86q100 0 100 -129q0 -78 -59 -160q-102 -139 -311 -242q-172 -84 -361 -118q90 -31 90 -129q0 -35 -14 -74q-43 -135 -180 -238.5t-270 -103.5q-115 0 -115 84q0 53 43 96t96 43q39 0 55 -25q49 8 107.5 47t75.5 89q8 23 -37 22 q-57 0 -99 -38t-81 -38q-61 0 -62 70q0 47 45 180q-391 49 -391 395z" />
<glyph unicode="&#xc8;" horiz-adv-x="1572" d="M-213 -94q0 59 28.5 148t90.5 212q51 106 104 211q88 170 256 512q14 31 23 53q-14 31 -21 93q-4 63 8 100q31 92 142 145q133 63 325 105q53 12 328 59q-207 80 -356 158q-51 27 -51 65q0 39 41 66q35 23 75 22q41 0 178 -61l168 -82q20 -10 109 -43q78 -29 76 -80 q76 12 135 13q190 0 190 -123q0 -25 -8 -56q-23 -70 -82 -133q-70 -74 -133 -73q-16 0 -45 9t-45 9q-117 0 -281 -33q-143 -31 -284 -63q-49 -10 -60 -15q-37 -10 -55 -28q-27 -25 -94 -191q31 2 104 21q481 119 785 118q102 0 102 -86q0 -27 -10 -59q-63 -195 -244 -219 q-244 -31 -489 -64q-340 -53 -435 -118q-70 -49 -126 -226q-14 -45 0 -45q8 0 57 15q221 66 442 131q274 74 428 73q106 0 107 -100q0 -39 -17 -90q-47 -143 -192 -172q-248 -47 -338 -68q-188 -41 -340 -88l-246 -86q-182 -61 -223 -61q-127 0 -127 125z" />
<glyph unicode="&#xc9;" horiz-adv-x="1572" d="M-213 -94q0 59 28.5 148t90.5 212q51 106 104 211q88 170 256 512q14 31 23 53q-14 31 -21 93q-4 63 8 100q31 92 142 145q133 63 330 107q25 23 65.5 45t128.5 74q104 66 207 131q168 104 211 114q18 6 35 7q59 0 57 -48q-2 -49 -80 -101t-250 -157q256 49 324 50 q190 0 190 -123q0 -25 -8 -56q-23 -70 -82 -133q-70 -74 -133 -73q-16 0 -45 9t-47 9q-115 0 -279 -33q-143 -31 -284 -63q-49 -10 -60 -15q-37 -10 -57 -28q-25 -25 -92 -191q31 2 104 21q481 119 785 118q102 0 102 -86q0 -27 -10 -59q-63 -195 -244 -219 q-244 -31 -489 -64q-340 -53 -435 -118q-70 -49 -126 -226q-14 -45 0 -45q8 0 57 15q221 66 442 131q274 74 428 73q106 0 107 -100q0 -39 -17 -90q-47 -143 -192 -172q-250 -47 -338 -68q-188 -41 -340 -88l-246 -86q-182 -61 -223 -61q-127 0 -127 125z" />
<glyph unicode="&#xca;" horiz-adv-x="1572" d="M-219 -94q0 59 28.5 148t90.5 212q51 106 104 211q88 170 256 512q14 31 23 53q-14 31 -19 93q-6 63 6 100q31 92 142 145q135 63 333 107q29 6 334 59q35 6 113 23q-6 6 -14 18q-76 111 -121 111q4 0 -108.5 -79t-160.5 -79q-29 0 -38 33q-8 27 0 53q12 39 68 71t131 93 t114 86q31 18 57 18q35 0 62 -26q2 -2 41 -49q37 -35 73 -72q49 -49 50 -86q0 -35 -37 -70q74 10 131 11q190 0 190 -123q0 -25 -8 -56q-23 -70 -82 -133q-68 -74 -133 -73q-16 0 -45 9t-45 9q-117 0 -281 -33q-143 -31 -284 -63q-49 -10 -60 -15q-37 -10 -55 -28 q-27 -25 -94 -191q31 2 104 21q481 119 785 118q102 0 102 -86q0 -27 -10 -59q-63 -195 -242 -219q-246 -31 -491 -64q-340 -53 -435 -118q-70 -49 -127 -226q-14 -45 0 -45q8 0 58 15q221 66 442 131q274 74 428 73q106 0 107 -100q0 -39 -17 -90q-47 -143 -192 -172 q-248 -47 -338 -68q-188 -41 -340 -88l-246 -86q-182 -61 -223 -61q-127 0 -127 125z" />
<glyph unicode="&#xcb;" horiz-adv-x="1572" d="M-229 -94q0 59 29.5 148t88.5 212q53 106 107 211q86 170 256 512q14 31 20 53q-14 31 -18 93q-4 63 8 100q29 92 141 145q135 63 332 107q31 6 334 59q92 18 182 35q106 20 179 21q193 0 192 -123q0 -25 -10 -56q-23 -70 -82 -133q-68 -74 -133 -73q-16 0 -45 9t-45 9 q-115 0 -281 -33q-141 -31 -285 -63q-47 -10 -59 -15q-35 -10 -55 -28q-25 -25 -92 -191q29 2 102 21q483 119 786 118q102 0 103 -86q0 -27 -10 -59q-63 -195 -244 -219q-246 -31 -492 -64q-340 -53 -434 -118q-68 -49 -125 -226q-14 -45 0 -45q6 0 58 15q221 66 440 131 q274 74 428 73q106 0 106 -100q0 -39 -16 -90q-45 -143 -193 -172q-248 -47 -337 -68q-188 -41 -340 -88q-121 -43 -244 -86q-182 -61 -225 -61q-127 0 -127 125zM621 1679q0 27 10 56q27 80 94 108q18 8 131 29q90 14 139 14q55 0 56 -63q-1 -27 -9 -56q-35 -104 -84 -116 q-68 -6 -137 -15q-125 -33 -133 -32q-68 0 -67 75zM1161 1743q0 25 10 53q27 82 95 109q16 8 131 28q88 16 139 17q55 0 55 -64q0 -26 -10 -57q-33 -102 -82 -115q-70 -8 -137 -16q-125 -33 -133 -33q-68 0 -68 78z" />
<glyph unicode="&#xcc;" horiz-adv-x="1413" d="M-188 -35q0 33 14 74q23 72 76 121q61 55 129 55q25 0 70.5 -8t70.5 -8q96 0 139 86q25 82 51.5 167t91 262t93.5 265q0 16 6 49q4 12 -6 12q-49 0 -144.5 -41t-146.5 -41q-92 0 -92 115q0 98 63 168q37 39 97 66q203 88 587 170q-199 80 -317 143q-51 27 -51 66 t36.5 63.5t79.5 24.5q41 0 177 -62l168 -82q23 -10 110 -43q63 -25 72 -63q106 14 172 14q106 0 106 -100q0 -37 -16 -84q-37 -119 -139 -160q-55 -23 -195 -33q-127 -8 -180 -41q-29 -18 -133 -297q-74 -197 -119 -329q-29 -88 -57 -218q0 -4 4 -6l16 2q248 43 328 43 q166 0 166 -118q0 -90 -80 -181.5t-166 -91.5q-18 0 -48 8.5t-48 8.5q-31 0 -92 -9q-176 -27 -351 -55q-211 -33 -348 -33q-195 0 -194 121z" />
<glyph unicode="&#xcd;" horiz-adv-x="1413" d="M-199 -35q0 33 15 74q23 72 80 124t124 52q25 0 72 -8t72 -8q94 0 137 86q25 82 52.5 167t91 262t92.5 265q0 16 6 49q4 12 -4 12q-51 0 -146.5 -41t-146.5 -41q-90 0 -90 115q0 98 63 168q37 39 96 66q104 45 293 98q20 45 103 92q43 25 129 78q104 68 207 135 q166 104 208 117q18 6 37 6q57 0 58 -45q0 -49 -82 -105q-102 -70 -307 -196q256 51 387 51q106 0 106 -100q0 -37 -16 -84q-37 -119 -138 -160q-55 -23 -196 -33q-127 -8 -178 -41q-31 -18 -135 -297q-74 -197 -117 -329q-29 -88 -60 -218q0 -4 7 -6l14 2q250 43 328 43 q168 0 167 -118q0 -90 -79.5 -181.5t-167.5 -91.5q-18 0 -48 8.5t-47 8.5q-31 0 -92 -9q-176 -27 -352 -55q-209 -33 -348 -33q-195 0 -195 121z" />
<glyph unicode="&#xce;" horiz-adv-x="1413" d="M-197 -35q0 33 13 74q25 72 81 124t126 52q25 0 70.5 -8t70.5 -8q96 0 137 86q27 82 53.5 167t90 262t92.5 265q2 16 6 49q4 12 -4 12q-51 0 -145.5 -41t-145.5 -41q-92 0 -92 115q0 100 63 168q37 39 96 66q244 106 695 190q-12 6 -25 27q-76 111 -121 110 q4 0 -108.5 -78.5t-159.5 -78.5q-29 0 -39 32q-8 27 0 54q12 39 68.5 70.5t131 93t113.5 85.5q31 18 58 19q35 0 61 -27q2 -2 39 -49q39 -35 76 -72q49 -49 49 -86q0 -47 -53 -84q158 25 248 25q106 0 106 -100q0 -37 -14 -84q-39 -119 -140 -160q-55 -23 -194 -33 q-129 -8 -180 -41q-31 -18 -135 -297q-74 -197 -117 -329q-29 -88 -60 -218q2 -4 7 -6l14 2q250 43 328 43q168 0 167 -118q0 -90 -79.5 -181.5t-167.5 -91.5q-16 0 -47 8.5t-48 8.5q-31 0 -92 -9q-176 -27 -352 -55q-209 -33 -346 -33q-195 0 -195 121z" />
<glyph unicode="&#xcf;" horiz-adv-x="1413" d="M-205 -35q0 33 15 74q23 72 80 124t124 52q25 0 71 -8t71 -8q96 0 139 86q25 82 52.5 167t91 262t91.5 265q2 8 3.5 24.5t3.5 24.5q4 12 -5 12q-51 0 -146 -41t-146 -41q-92 0 -93 115q0 100 66 168q37 39 94 66q178 78 521 154.5t513 76.5q106 0 107 -100q0 -37 -16 -84 q-37 -119 -140 -160q-53 -23 -194 -33q-127 -8 -178 -41q-31 -18 -136 -297q-74 -197 -116 -329q-29 -88 -60 -218q0 -4 4 -6l17 2q248 43 327 43q168 0 168 -118q0 -90 -80.5 -181.5t-166.5 -91.5q-18 0 -48 8.5t-49 8.5q-29 0 -90 -9q-176 -27 -352 -55q-209 -33 -348 -33 q-195 0 -195 121zM438 1604q0 27 11 53q27 82 94 110q18 8 131 29q90 14 139 14q55 0 55 -63q0 -26 -8 -57q-35 -102 -84 -115q-68 -6 -137 -14q-125 -33 -133 -33q-68 0 -68 76zM979 1665q0 27 10 55q27 82 94 109q16 8 131 29q90 16 140 16q55 0 55 -64q0 -26 -10 -57 q-33 -104 -82 -115q-68 -8 -137 -16q-125 -33 -133 -33q-68 0 -68 76z" />
<glyph unicode="&#xd0;" horiz-adv-x="1865" d="M-12 -25q0 66 39 181q29 86 137 336h-19q-100 -6 -100 94q0 41 16 90q55 170 256 182l5 14q8 18 8 35q0 20 -29 51t-29 70q0 33 17 82q70 217 502 328q301 80 598 80q236 0 350 -52q147 -67 186 -247q10 -47 10 -99q0 -78 -24 -153q-90 -276 -512 -564 q-311 -213 -699 -368q-442 -178 -598 -178q-115 0 -114 118zM381 258q401 111 936 449q223 139 268 276q8 27 8 49q0 131 -319 131q-285 0 -545 -90q-41 -92 -90 -207q47 4 172 29q111 23 170 23q96 0 96 -109q0 -35 -12 -70q-37 -115 -143 -161q-80 -35 -215 -39 q-104 -2 -207 -2q-43 -92 -119 -279z" />
<glyph unicode="&#xd1;" horiz-adv-x="1439" d="M-211 -16q0 25 8 55q41 125 142 307q86 154 172 305q143 270 243 580q23 74 99.5 141.5t148.5 67.5q82 0 88 -115q10 -268 37 -428q37 -219 125 -387q23 -41 37 -41q8 0 14 25q8 18 25 63q20 55 57 166q86 266 113 430q8 49 30 145q23 70 82 132q-41 -16 -80 -17 q-61 0 -102 38t-41 95q0 27 10 56l9 24q14 43 6 43q-23 0 -50.5 -19.5t-28.5 -42t-7 -65.5q-8 -29 -46 -63.5t-67 -34.5q-37 0 -37 90q0 55 10 90q27 82 116 149.5t171 67.5q43 0 75 -27.5t34 -66.5q0 -12 -13.5 -59.5t-13.5 -65.5q0 -33 29 -33q61 0 69 27l-13 18 q-13 19 -13 39q0 12 4 25q10 31 39.5 64.5t60.5 33.5q37 0 57.5 -38t20.5 -85q0 -88 -90 -174q20 6 41 6q115 0 115 -153q0 -115 -70 -332q-14 -45 -48 -135t-48 -137q-25 -72 -68 -216.5t-67 -216.5q-70 -215 -99 -268q-86 -164 -217 -164q-178 0 -461 699 q-72 -96 -137 -277q-72 -203 -119 -280q-92 -152 -231 -152q-121 0 -121 111z" />
<glyph unicode="&#xd2;" horiz-adv-x="1773" d="M-72 350q0 96 35 205q109 336 453 602q328 254 686 311q-201 80 -324 146q-51 27 -51 65q0 39 41 66q35 23 76 22q41 0 176 -61q86 -41 170 -82q20 -10 108 -43q76 -29 76 -76q0 -16 -10 -32q178 -29 279.5 -149t101.5 -296q0 -104 -37 -219q-98 -297 -362 -522 q-182 -156 -428 -271q-264 -121 -453 -120q-240 0 -385 120q-152 125 -152 334zM270 481q0 -111 97 -172q86 -53 221 -53q205 0 508 190q225 140 293 347q16 53 16 102q0 102 -72.5 162.5t-189.5 60.5q-197 0 -461 -127q-309 -152 -393 -411q-18 -53 -19 -99z" />
<glyph unicode="&#xd3;" horiz-adv-x="1773" d="M-68 350q0 96 35 205q94 293 373 539q266 233 586 331q-8 18 -2 41q20 61 133 95q47 14 137 43q111 41 223 82q176 63 217 63q72 0 72 -51q0 -61 -106.5 -103.5t-319.5 -113.5q215 -6 341 -131t126 -322q0 -104 -37 -219q-96 -297 -360 -522q-182 -156 -428 -271 q-264 -121 -455 -120q-238 0 -386.5 122.5t-148.5 331.5zM274 481q0 -111 97 -172q84 -53 221 -53q203 0 508 190q223 140 291 347q18 53 18 102q0 102 -73.5 162.5t-190.5 60.5q-197 0 -459 -127q-311 -152 -395 -411q-16 -53 -17 -99z" />
<glyph unicode="&#xd4;" horiz-adv-x="1773" d="M-76 350q0 96 35 205q121 373 518 651q383 270 764 275q-4 4 -10 12q-74 111 -119 111q2 0 -110.5 -79t-157.5 -79q-31 0 -41 33q-8 27 2 53q12 39 63 70q59 33 134 94t116 86q29 18 58 18q33 0 61 -26q2 -2 39 -50q37 -35 74 -71q51 -49 51 -86q0 -53 -66 -92 q188 -23 296 -144t108 -303q0 -104 -37 -219q-96 -297 -361 -522q-182 -156 -428 -271q-264 -121 -454 -120q-238 0 -386.5 122.5t-148.5 331.5zM266 481q0 -111 94 -172q86 -53 224 -53q203 0 508 190q222 140 290 347q16 53 17 102q0 102 -73 162.5t-189 60.5 q-197 0 -459 -127q-311 -152 -395 -411q-16 -53 -17 -99z" />
<glyph unicode="&#xd5;" horiz-adv-x="1773" d="M-88 350q0 96 35 205q113 348 473 619q346 260 713 301q-51 39 -52 106q0 27 9 53l8 27q14 41 8 41q-25 0 -52.5 -18.5t-28.5 -41t-5 -65.5q-10 -31 -48 -64.5t-67 -33.5q-37 0 -37 88q0 55 11 90q27 82 116.5 149.5t171.5 67.5q41 0 73 -27.5t34 -66.5 q0 -12 -13.5 -59.5t-13.5 -65.5q0 -33 29 -33q61 0 70 29l-14 17q-13 18 -13 38q0 12 4 25q10 33 40 65.5t60 32.5q37 0 57.5 -38t20.5 -85q0 -68 -55 -137q-49 -59 -117 -94q186 -25 291.5 -146t105.5 -301q1 -104 -36 -219q-96 -297 -361 -522q-182 -156 -428 -271 q-264 -121 -455 -120q-238 0 -386 122.5t-148 331.5zM254 481q0 -111 96 -172q84 -53 221 -53q203 0 508 190q223 140 291 347q18 53 19 102q0 102 -74 162.5t-191 60.5q-197 0 -458 -127q-311 -152 -396 -411q-16 -53 -16 -99z" />
<glyph unicode="&#xd6;" horiz-adv-x="1773" d="M-86 350q0 96 35 205q123 377 524 655q389 270 770 271q223 0 355.5 -125t132.5 -328q0 -104 -37 -219q-96 -297 -361 -522q-182 -156 -430 -271q-262 -121 -452 -120q-238 0 -387.5 122.5t-149.5 331.5zM258 481q0 -111 94 -172q86 -53 223 -53q203 0 506 190 q225 140 293 347q16 53 17 102q0 102 -73 162.5t-190 60.5q-197 0 -458 -127q-311 -152 -396 -411q-16 -53 -16 -99zM692 1583q0 25 8 53q27 82 95 111q18 6 133 27q88 16 139 16q55 0 55 -64q0 -26 -10 -57q-35 -102 -84 -115q-68 -8 -135 -14q-127 -35 -135 -35 q-66 0 -66 78zM1231 1645q0 27 10 55q27 80 94 108q18 8 131 29q90 14 140 14q55 0 55 -63q0 -26 -8 -55q-35 -104 -84 -117q-68 -6 -137 -14q-125 -33 -134 -33q-68 0 -67 76z" />
<glyph unicode="&#xd7;" horiz-adv-x="1277" d="M-4 145q0 88 86 189q41 49 170 160q100 88 117 129q-43 68 -86 133q-49 78 -76 139q-23 49 0 117t75 118t117 50q45 0 141.5 -142.5t96.5 -193.5q12 16 106 98q371 317 527 318q88 0 88 -105q0 -32 -10 -65q-29 -84 -129 -134q-135 -66 -207 -120q-88 -66 -133 -103 q-100 -82 -109 -106q-6 -18 74 -162q84 -154 84 -223q0 -16 -4 -31q-18 -55 -80 -117q-68 -66 -119 -65q-43 0 -121 131q-61 104 -88 176q-4 14 -16 39l-23 -17q-96 -45 -189 -174t-198 -129q-94 0 -94 90z" />
<glyph unicode="&#xd8;" horiz-adv-x="1832" d="M12 352q0 98 35 205q127 385 545 670q410 276 790 254q180 242 281 241q53 0 91 -32.5t38 -81.5q0 -68 -131 -222q168 -123 168 -358q0 -104 -37 -217q-98 -299 -360 -524q-195 -164 -437 -273q-258 -117 -463 -116q-29 0 -55 2q-86 -127 -121 -170q-92 -104 -163 -105 q-55 0 -92.5 35t-37.5 86q0 72 138 244q-188 125 -189 362zM356 483q0 -117 99 -174q213 265 639 797q-240 -47 -428 -170q-225 -145 -293 -354q-16 -53 -17 -99zM739 264q199 31 441 182q225 142 293 349q16 53 16 100q0 119 -92 180q-225 -268 -658 -811z" />
<glyph unicode="&#xd9;" horiz-adv-x="1648" d="M-104 133q0 133 86 399q162 498 372 787q90 121 176 121q109 0 109 -129q0 -55 -33 -117q-254 -477 -352 -784q-29 -86 -29 -129q0 -90 107 -91q27 0 69 7q385 63 592 194q178 115 275 410q59 186 59 483q0 41 10 70q23 72 89.5 127t136.5 55q104 0 104 -238 q0 -262 -74 -489q-139 -426 -444 -659q-283 -219 -737 -289q-84 -12 -160 -13q-356 0 -356 285zM637 1708q0 39 41 66q35 23 76 22q41 0 176 -61q86 -41 170 -82q20 -10 108 -43q76 -29 76 -76q0 -39 -37 -63.5t-76 -24.5q-45 0 -243 86q-164 70 -240 110q-51 27 -51 66z " />
<glyph unicode="&#xda;" horiz-adv-x="1648" d="M-100 133q0 133 86 399q162 498 372 787q90 121 177 121q109 0 108 -129q0 -55 -33 -117q-254 -477 -352 -784q-29 -86 -29 -129q0 -90 107 -91q27 0 72 7q383 63 589 194q178 115 275 410q59 186 61 483q0 41 8 70q23 72 89.5 127t136.5 55q104 0 104 -238 q0 -262 -74 -489q-139 -426 -442 -659q-285 -219 -737 -289q-86 -12 -162 -13q-356 0 -356 285zM831 1468q0 74 138 115q45 14 135 43q113 41 223 82q176 61 217 61q72 0 72 -49q0 -61 -104.5 -103t-313.5 -112q-254 -86 -299 -86q-68 0 -68 49z" />
<glyph unicode="&#xdb;" horiz-adv-x="1648" d="M-106 133q0 133 86 399q162 498 372 787q88 121 176 121q109 0 109 -129q0 -55 -33 -117q-254 -477 -354 -784q-27 -86 -27 -129q0 -90 107 -91q27 0 69 7q385 63 592 194q178 115 275 410q59 186 59 483q0 41 10 70q23 72 89.5 127t136.5 55q104 0 104 -238 q0 -262 -76 -489q-137 -426 -442 -659q-283 -219 -737 -289q-84 -12 -160 -13q-356 0 -356 285zM768 1491q-8 27 0 53q12 39 68.5 71t131 93t115.5 86q29 18 56 18q35 0 61 -26q2 -2 41 -49q37 -35 74 -72q49 -49 49 -86q0 -39 -39 -72.5t-76 -33.5q-31 0 -53 32 q-74 111 -121 111q4 0 -108.5 -79t-159.5 -79q-29 0 -39 33z" />
<glyph unicode="&#xdc;" horiz-adv-x="1648" d="M-113 133q0 133 88 399q160 498 373 787q88 121 176 121q109 0 109 -129q0 -55 -33 -117q-254 -477 -354 -784q-29 -86 -29 -129q0 -90 109 -91q27 0 69 7q385 63 592 194q176 115 273 410q61 186 61 483q0 41 10 70q23 72 89.5 127t135.5 55q102 0 103 -238 q0 -262 -74 -489q-137 -426 -442 -659q-283 -219 -737 -289q-84 -12 -162 -13q-356 0 -357 285zM608 1571q0 25 10 53q27 82 95 111q18 6 131 26q90 16 139 17q55 0 55 -64q0 -26 -8 -57q-35 -102 -84 -115q-68 -8 -137 -14q-125 -35 -133 -35q-68 0 -68 78zM1149 1632 q0 27 10 56q27 80 94 108q16 8 131 29q88 14 140 14q55 0 55 -63q0 -27 -10 -56q-33 -104 -82 -116q-68 -6 -137 -15q-125 -33 -133 -33q-68 0 -68 76z" />
<glyph unicode="&#xdd;" horiz-adv-x="1439" d="M8 -63q0 27 6 49q25 72 220.5 270.5t214.5 255.5q12 35 -60 160q-123 213 -141 252q-80 162 -80 276q0 49 14 90q23 72 84.5 124t130.5 52q72 0 99 -69q20 -86 73 -248q70 -166 185 -311q31 23 98 96q127 143 252 287q154 172 264 274q86 80 156 80q98 0 98 -119 q0 -84 -68 -168q-115 -139 -319 -354q-262 -274 -328 -348q-158 -176 -313 -355q-186 -209 -330 -346q-88 -84 -147 -84q-49 0 -79 41t-30 95zM768 1479q0 72 135 112q47 14 137 43l222 82q178 63 219 64q72 0 71 -51q1 -62 -108 -105q-100 -41 -309 -111q-256 -86 -299 -86 q-68 0 -68 52z" />
<glyph unicode="&#xde;" horiz-adv-x="1447" d="M-33 -25q0 20 4 45q25 150 127 461q141 438 305 826q66 156 189 155q127 0 127 -92q0 -37 -19 -94q-23 -66 -26 -92q113 23 225 43q135 25 223 24q147 0 230 -84t71 -227q-8 -74 -51 -209q-100 -309 -237 -452q-172 -182 -465 -183q-61 0 -180 11.5t-181 11.5l-4 -19 q0 -10 -6 -43q-25 -74 -93.5 -130t-142.5 -56q-96 0 -96 104zM430 508q-4 -51 303 -51q156 0 197 18q53 23 82 109l16 49q47 145 39 211q-4 47 -76 47q-68 0 -222.5 -31t-223.5 -57q-25 -10 -78 -172l-33 -103q-2 -8 -4 -20z" />
<glyph unicode="&#xdf;" horiz-adv-x="1802" d="M-147 -51q0 27 10 57q12 43 53 96q61 82 68 93q25 39 59 149q45 135 112.5 404.5t110.5 401.5t193 191q193 76 436.5 128.5t423.5 52.5q172 0 291 -60q143 -72 143 -207q0 -147 -139 -311q131 -80 131 -229q0 -47 -16 -99q-82 -250 -504 -501q-397 -240 -658 -240 q-94 0 -151.5 54.5t-57.5 140.5q0 41 13 86q27 80 90 127t145 47q51 0 70 -25q4 -6 22 -65q123 2 385 125q285 133 320 241q12 37 -53 37q-141 0 -273 -29q-76 -18 -278 -84q-49 -14 -74 -14q-61 0 -96 40t-35 101q0 31 10 62q37 117 182 145q178 35 338 90q252 88 281 174 q8 23 -57 23q-23 0 -69 -5t-69 -5q-135 0 -348 -31q-285 -39 -305 -100q-27 -86 -71 -259t-70 -259q-68 -205 -164 -379q-147 -268 -281 -269q-119 0 -118 105z" />
<glyph unicode="&#xe0;" horiz-adv-x="1638" d="M-244 -20q0 20 8 43q20 66 148 200q92 96 184 195q307 367 596 760q115 156 218.5 236.5t195.5 96.5q-190 78 -295 134q-51 27 -51 65q0 39 41 66q35 23 76 22q41 0 176 -61q86 -41 170 -82q20 -10 108 -43q76 -29 76 -76q0 -57 -72 -80q39 -61 15 -135q-8 -27 -41 -75 t-41 -75q-6 -16 -6 -57q0 -133 30 -348q2 -6 58 -272q45 -219 45 -301q0 -29 -6 -43q-23 -70 -113 -145t-160 -75q-96 0 -96 187v47v45q0 111 -41 110q-63 0 -367.5 -76.5t-363.5 -107.5q-39 -23 -160 -166q-98 -119 -186 -119q-59 0 -102.5 37t-43.5 93zM551 551 q143 37 407 82q-14 131 -30 379q-133 -160 -377 -461z" />
<glyph unicode="&#xe1;" horiz-adv-x="1638" d="M-240 -20q0 20 9 43q20 66 147 200q92 96 184 195q307 367 596 760q117 160 236 249q-16 -4 -27 -4q-68 0 -67 52q0 72 137 112q45 14 137 43q111 41 221 82q178 63 219 64q72 0 72 -52q1 -61 -108 -104q-94 -37 -295 -104q141 -8 141 -144q0 -25 -8 -51.5t-41 -74.5 t-43 -75q-4 -16 -4 -57q0 -133 30 -348q2 -6 56 -272q47 -219 47 -301q0 -29 -6 -43q-23 -70 -113 -145t-160 -75q-96 0 -96 187v47v45q0 111 -41 110q-63 0 -367.5 -76.5t-363.5 -107.5q-41 -23 -160 -166q-98 -119 -186 -119q-59 0 -102.5 37t-43.5 93zM555 551 q144 37 408 82q-14 131 -31 379q-133 -160 -377 -461z" />
<glyph unicode="&#xe2;" horiz-adv-x="1638" d="M-258 -20q0 20 6 43q20 66 148 200q92 96 186 195q305 367 596 760q113 156 219 237q127 100 260 101q47 0 74 -5q51 -4 81.5 -45t30.5 -94q0 -25 -9 -51.5t-41.5 -74.5t-41.5 -75q-6 -16 -6 -57q0 -133 31 -348q2 -6 57 -272q45 -219 45 -301q0 -29 -4 -43 q-25 -70 -114 -145t-158 -75q-98 0 -98 187v47q2 31 2 45q0 111 -43 110q-61 0 -366.5 -76.5t-363.5 -107.5q-41 -23 -161 -166q-98 -119 -187 -119q-57 0 -100 37t-43 93zM535 551q143 37 407 82q-14 131 -31 379q-133 -160 -376 -461zM905 1575q-8 27 0 53q12 39 67.5 71 t131.5 93t115 86q31 18 57 18q33 0 61 -26q2 -2 39 -49q37 -35 76 -72q49 -49 49 -86q0 -39 -39 -73t-78 -34q-31 0 -51 33q-76 111 -121 111q4 0 -109.5 -79t-158.5 -79q-31 0 -39 33z" />
<glyph unicode="&#xe3;" horiz-adv-x="1638" d="M-256 -20q0 20 8 43q20 66 148 200q92 96 184 195q307 367 596 760q115 156 219 237q88 70 164 88q-25 35 -25 78q0 27 11 55l8 25q14 43 6 43q-25 0 -51.5 -19.5t-28.5 -42t-6 -65.5q-10 -29 -47 -63.5t-68 -34.5q-37 0 -37 90q0 55 13 90q27 82 115.5 149.5t170.5 67.5 q43 0 74 -27.5t33 -66.5q0 -12 -13.5 -59.5t-13.5 -65.5q0 -33 29 -33q61 0 72 27l-13 19q-14 18 -14 38q0 12 4 25q10 31 40 64.5t58 33.5q37 0 58.5 -38t21.5 -85q0 -66 -53 -131q-44 -57 -107 -94q45 -41 46 -111q0 -25 -8.5 -51.5t-41 -74.5t-43.5 -75q-4 -16 -4 -57 q0 -133 31 -348q0 -6 55 -272q47 -219 47 -301q0 -29 -6 -43q-23 -70 -112.5 -145t-159.5 -75q-96 0 -96 187v47v45q0 111 -41 110q-63 0 -367.5 -76.5t-363.5 -107.5q-41 -23 -160 -166q-98 -119 -187 -119q-59 0 -102 37t-43 93zM539 551q143 37 407 82q-14 131 -31 379 q-133 -160 -376 -461z" />
<glyph unicode="&#xe4;" horiz-adv-x="1638" d="M-254 -20q0 20 6 43q20 66 148 200q92 96 186 195q307 367 596 760q113 156 219 237q127 100 260 101q47 0 74 -5q51 -4 82 -45t31 -94q0 -25 -9.5 -51.5t-42 -74.5t-41.5 -75q-6 -16 -6 -57q0 -133 31 -348q2 -6 57 -272q45 -219 45 -301q0 -29 -4 -43 q-25 -70 -113.5 -145t-158.5 -75q-98 0 -98 187v47q2 31 2 45q0 111 -43 110q-61 0 -366.5 -76.5t-362.5 -107.5q-41 -23 -162 -166q-98 -119 -187 -119q-57 0 -100 37t-43 93zM539 551q145 37 407 82q-14 131 -31 379q-133 -160 -376 -461zM692 1602q0 25 8 53 q27 82 95 110q18 6 133 27q88 16 139 16q55 0 55 -63q0 -26 -10 -57q-33 -102 -84 -115q-68 -8 -135 -14q-127 -35 -135 -35q-66 0 -66 78zM1233 1663q0 27 8 55q27 80 94 109q18 8 131 28q90 14 140 15q57 0 57 -64q0 -26 -10 -55q-35 -104 -84 -117q-68 -6 -135 -14 q-127 -33 -136 -33q-66 0 -65 76z" />
<glyph unicode="&#xe5;" horiz-adv-x="1638" d="M-256 -20q0 20 6 43q23 66 148 200q94 96 186 195q307 367 596 760q113 156 219 237q39 31 72 51q-39 35 -39 95q0 29 10 61q35 106 148 184q106 76 213 76q66 0 104.5 -38t38.5 -99q0 -115 -113 -213q-23 -18 -51 -37q63 -39 64 -123q0 -25 -8.5 -51.5t-42 -74.5 t-42.5 -75q-6 -16 -6 -57q0 -133 33 -348q0 -6 55 -272q45 -219 45 -301q0 -29 -4 -43q-23 -70 -112.5 -145t-159.5 -75q-98 0 -98 187q0 16 2 47v45q0 111 -41 110q-63 0 -367.5 -76.5t-363.5 -107.5q-41 -23 -162 -166q-98 -119 -187 -119q-57 0 -100 37t-43 93zM537 551 q145 37 407 82q-14 131 -31 379q-131 -160 -376 -461zM1102 1628q-12 -37 43 -37q33 0 92 37q33 20 41 49q12 37 -29 37q-37 0 -86 -24.5t-61 -61.5z" />
<glyph unicode="&#xe6;" horiz-adv-x="2557" d="M-301 -47q0 39 25 80q39 63 208 198q121 96 242 193q432 377 830 760q156 150 286 233q154 98 279 99q111 0 139 -35q127 16 385 55q92 18 184 37q106 20 179 20q193 0 192 -123q0 -26 -10 -57q-23 -66 -84 -131q-68 -74 -131 -74q-14 0 -40 9.5t-42 9.5q-92 0 -354 -45 q-285 -47 -338 -84q-41 -29 -107 -215q27 4 90 20q524 139 801 139q106 0 107 -94q0 -33 -15 -74q-61 -188 -229 -212q-205 -25 -408 -50q-240 -33 -413 -92q-166 -57 -248 -301q35 2 119 29q567 188 825 188q109 0 108 -102q0 -43 -18 -98q-49 -150 -190 -177 q-129 -8 -256 -16q-309 -39 -652 -195q-113 -51 -178 -51q-84 0 -130 48.5t-46 125.5q0 43 16.5 91.5t55.5 121.5q63 119 65 121q-518 -92 -700 -172q-53 -25 -213 -166q-131 -119 -217 -119q-51 0 -84 29t-33 76zM727 592q182 43 371 74q27 129 88 340q-272 -242 -459 -414 z" />
<glyph unicode="&#xe7;" horiz-adv-x="1718" d="M55 283q0 117 49 266q166 514 775 803q401 193 757 192q129 0 209 -41q98 -47 99 -145q-1 -37 -13 -80q-23 -68 -80 -131q-66 -72 -131 -72q-59 0 -95 58.5t-89 58.5q-289 0 -629 -164q-395 -188 -481 -453q-25 -76 -25 -133q0 -211 349 -211q236 0 337 35 q133 45 320 209q70 63 119 64q49 0 77.5 -42t28.5 -100q0 -29 -8 -55q-55 -170 -324 -309q-213 -111 -428 -148q59 -37 60 -114q0 -33 -12 -72q-43 -135 -182.5 -241.5t-270.5 -106.5q-115 0 -115 84q0 53 43 96t97 43q39 0 55 -25q49 6 107.5 49.5t74.5 90.5q8 25 -37 24 q-59 0 -100 -39t-80 -39q-61 0 -61 70q0 43 41 168q-436 51 -437 410z" />
<glyph unicode="&#xe8;" horiz-adv-x="1533" d="M-209 -29q0 86 92 254q41 80 121 244q70 133 139 268q88 164 121 267q0 2 -6 34q-8 41 -8 74q0 45 12 82q51 156 180 217q113 53 303 82q154 20 310 41q-203 80 -334 149q-51 27 -51 66t36.5 63.5t77.5 24.5t179 -61q84 -41 167 -82q20 -10 109 -43q70 -25 76 -68 q68 10 123 10q190 0 190 -120q0 -27 -10 -56q-23 -70 -80 -133q-70 -76 -133 -76q-16 0 -42 9.5t-40 9.5q-94 0 -354 -45q-287 -47 -338 -84q-43 -29 -109 -215q29 4 90 20q524 139 803 139q104 0 105 -94q0 -33 -13 -74q-63 -190 -231 -212q-203 -25 -408 -50 q-238 -33 -413 -92q-164 -55 -248 -301q35 0 121 29q565 188 823 188q109 0 109 -102q0 -43 -19 -98q-47 -150 -190 -177q-129 -8 -256 -16q-311 -39 -652 -195q-111 -51 -178 -51q-82 0 -128 48.5t-46 125.5z" />
<glyph unicode="&#xe9;" horiz-adv-x="1533" d="M-219 -29q0 86 94 254q39 80 119 244q70 133 141 268q86 164 119 267q2 2 -4 34q-8 41 -8 74q0 45 12 82q51 156 178 217q115 55 313 84q27 33 82 64q45 25 131 77q102 68 207 136q166 104 209 116q18 6 37 6q57 0 57 -45q-2 -49 -82 -104q-115 -78 -331 -211l10 2 q92 18 182 37q109 20 180 20q193 0 193 -120q0 -27 -10 -56q-23 -70 -82 -133q-68 -76 -133 -76q-14 0 -40 9.5t-42 9.5q-92 0 -355 -45q-285 -47 -337 -84q-41 -29 -107 -215q27 4 90 20q524 139 801 139q106 0 106 -94q0 -33 -14 -74q-61 -190 -229 -212 q-205 -25 -408 -50q-238 -33 -414 -92q-166 -55 -247 -301q33 0 118 29q565 188 826 188q109 0 108 -102q0 -43 -18 -98q-49 -150 -193 -177q-127 -8 -256 -16q-311 -39 -649 -195q-113 -51 -178 -51q-84 0 -130 48.5t-46 125.5z" />
<glyph unicode="&#xea;" horiz-adv-x="1533" d="M-219 -29q0 86 94 254q39 80 119 244q70 133 139 268q88 164 121 267q0 2 -6 34q-6 41 -6 74q0 45 12 82q49 156 178 217q115 55 316 84q160 20 317 41q35 6 121 25q-20 4 -37 30q-76 111 -121 111q4 0 -108.5 -79t-159.5 -79q-29 0 -39 33q-8 27 0 53q12 39 68.5 71 t131 93t115.5 86q29 18 56 18q35 0 61 -26q2 -2 41 -49q37 -35 74 -72q49 -49 49 -86q0 -53 -64 -90q104 18 174 18q190 0 191 -120q0 -27 -8 -56q-23 -70 -82 -133q-68 -76 -133 -76q-14 0 -41 9.5t-41 9.5q-92 0 -355 -45q-285 -47 -337 -84q-43 -29 -109 -215q29 4 90 20 q524 139 803 139q104 0 104 -94q0 -33 -12 -74q-61 -190 -231 -212q-203 -25 -408 -50q-238 -33 -412 -92q-166 -55 -249 -301q35 0 120 29q565 188 826 188q106 0 106 -102q0 -43 -16 -98q-49 -150 -193 -177q-127 -8 -256 -16q-311 -39 -651 -195q-111 -51 -178 -51 q-82 0 -128 48.5t-46 125.5z" />
<glyph unicode="&#xeb;" horiz-adv-x="1533" d="M-227 -29q0 86 92 254q41 80 121 244q70 133 139 268q88 164 121 267q0 2 -6 34q-6 41 -7 74q0 45 13 82q49 156 178 217q115 55 315 84q158 20 318 41q90 18 182 37q109 20 180 20q190 0 191 -120q0 -27 -8 -56q-23 -70 -82 -133q-68 -76 -134 -76q-14 0 -40.5 9.5 t-40.5 9.5q-92 0 -355 -45q-287 -47 -338 -84q-43 -29 -108 -215q29 4 90 20q524 139 803 139q104 0 104 -94q0 -33 -12 -74q-61 -190 -232 -212q-203 -25 -407 -50q-238 -33 -414 -92q-164 -55 -248 -301q35 0 121 29q565 188 826 188q106 0 106 -102q0 -43 -18 -98 q-47 -150 -191 -177q-127 -8 -256 -16q-311 -39 -651 -195q-111 -51 -178 -51q-82 0 -128 48.5t-46 125.5zM618 1679q0 27 11 56q25 80 92 108q18 8 133 29q88 14 139 14q55 0 56 -63q-1 -27 -11 -56q-33 -104 -82 -116q-70 -6 -137 -15q-125 -33 -133 -32q-68 0 -68 75z M1159 1743q0 25 8 53q27 82 95 109q18 8 133 28q88 16 139 17q55 0 55 -64q0 -26 -10 -57q-33 -102 -84 -115q-68 -8 -135 -16q-127 -33 -133 -33q-68 0 -68 78z" />
<glyph unicode="&#xec;" horiz-adv-x="641" d="M-104 -8q0 49 32 133q27 66 54 129q199 506 290 848q14 68 52 205q47 141 178 168q-160 70 -234 108q-51 27 -51 66t37 63.5t78 24.5t178 -62l168 -82q23 -10 108 -43q76 -29 76 -75q0 -39 -35.5 -64t-76.5 -25q-23 0 -86 23q23 -51 0 -121q-39 -123 -133.5 -367.5 t-135.5 -365.5q-25 -80 -65.5 -234.5t-67.5 -232.5q-27 -84 -101.5 -143.5t-156.5 -59.5q-109 0 -108 107z" />
<glyph unicode="&#xed;" horiz-adv-x="641" d="M-109 -8q0 49 33 133q27 66 56 129q199 506 288 848q16 68 54 205q20 59 63 104q-29 -6 -39 -6q-68 0 -67 49q0 74 137 115q45 14 135 43q113 41 223 82q176 61 217 61q72 0 72 -49q-1 -63 -107 -104q-133 -53 -368 -129q84 -27 84 -121q0 -31 -10 -64 q-41 -123 -135.5 -367.5t-133.5 -365.5q-25 -80 -66.5 -234.5t-66.5 -232.5q-27 -84 -102.5 -143.5t-157.5 -59.5q-109 0 -109 107z" />
<glyph unicode="&#xee;" horiz-adv-x="641" d="M-123 -8q0 49 33 133q27 66 53 129q199 506 291 848q16 68 53 205q25 74 83.5 123t131.5 49q135 0 135 -127q0 -31 -10 -64q-41 -123 -135 -367.5t-133 -365.5q-27 -80 -68 -234.5t-65 -232.5q-27 -84 -102.5 -143.5t-157.5 -59.5q-109 0 -109 107zM264 1526q-8 27 0 53 q12 39 68.5 70.5t131.5 93t114 86.5q31 18 57 18q35 0 61 -26q2 -2 41 -49q37 -35 74 -72q49 -49 49 -86q0 -39 -39 -73t-76 -34q-31 0 -53 33q-76 111 -121 111q4 0 -108.5 -79t-159.5 -79q-29 0 -39 33z" />
<glyph unicode="&#xef;" horiz-adv-x="641" d="M-127 -8q0 49 33 133q27 66 53 129q199 506 291 848q14 68 53 205q23 74 82 123t133 49q135 0 135 -127q0 -31 -12 -64q-39 -123 -133 -367.5t-135 -365.5q-25 -80 -66 -234.5t-67 -232.5q-27 -84 -102 -143.5t-156 -59.5q-109 0 -109 107zM115 1606q0 27 10 55 q27 80 94 108q18 8 131 29q90 14 139 14q55 0 56 -63q0 -26 -10 -55q-33 -104 -82 -117q-68 -6 -138 -14q-125 -33 -133 -33q-68 0 -67 76zM655 1669q0 25 11 53q25 82 92 109q18 8 133 29q88 16 139 16q55 0 55 -64q0 -26 -10 -57q-33 -102 -82 -115q-70 -8 -137 -16 q-125 -33 -133 -33q-68 0 -68 78z" />
<glyph unicode="&#xf0;" horiz-adv-x="1910" d="M-29 -12q0 51 37 166q41 127 129 321q-70 14 -69 105q0 92 66.5 169.5t158.5 84.5q29 78 29 94q0 18 -26 54t-26 75q0 29 11 65q33 96 141 164q143 86 487 152q299 55 494 55q229 0 381 -61q203 -80 203 -248q-1 -54 -21 -113q-92 -285 -410 -532q-348 -272 -692 -447 q-428 -219 -729 -219q-164 0 -164 115zM416 258q301 49 649 256q371 219 543 475q16 22 16 45q0 78 -238 78q-305 0 -694 -82q-39 -92 -78 -186q43 2 353 51q23 4 37 4q94 0 94 -108q0 -35 -11 -72q-49 -152 -196 -182q-78 -14 -199 -17q-164 -2 -196 -6l-13 -39 q-31 -92 -67 -217z" />
<glyph unicode="&#xf1;" horiz-adv-x="1531" d="M-188 -31q0 29 8 58q41 127 145 311q88 154 176 307q147 274 246 580q27 78 103.5 143.5t154.5 65.5q76 0 80 -115q10 -268 47 -434q45 -195 154 -383q23 -43 67 -92q102 315 178 604q18 82 62 243q84 254 211 254q70 0 106 -71q31 -59 25 -137q-6 -90 -51 -232 q-18 -55 -59.5 -164.5t-59.5 -165.5q-23 -72 -67 -215t-66 -215q-70 -213 -96 -266q-86 -166 -213 -166q-47 0 -89 29q-145 109 -258 317q-14 29 -172 381q-66 -102 -157 -293q-102 -207 -154 -295q-90 -152 -217 -151q-104 0 -104 102zM836 1542q0 49 8 78q25 72 101.5 130 t148.5 58q35 0 62.5 -23.5t29.5 -58.5q0 -10 -11.5 -51t-11.5 -57q0 -29 25 -29q53 0 59 25l-11 16q-11 15 -11 33q0 10 4 20q8 29 33.5 56.5t52.5 27.5q68 0 67 -104q0 -25 -6 -43q-23 -70 -94.5 -126t-140.5 -56q-53 0 -88 32.5t-35 83.5q0 23 8 48l8 20q12 37 6 37 q-18 0 -41.5 -14.5t-27.5 -27.5t-3 -33.5t-3 -33.5q-8 -27 -40 -55.5t-59 -28.5q-31 0 -30 76z" />
<glyph unicode="&#xf2;" horiz-adv-x="1867" d="M-43 319q0 115 41 240q113 348 500 643q381 289 745 318q-197 80 -311 139q-53 29 -53 67q0 39 41 66q35 23 75 23q41 0 179 -64q84 -41 167 -82q20 -8 109 -41q76 -29 76 -76q0 -33 -29 -57q164 -45 257 -164t93 -287q0 -99 -35 -210q-133 -410 -555 -697 q-428 -289 -808 -289q-231 0 -365 134q-127 127 -127 337zM299 459q0 -115 69.5 -183.5t198.5 -68.5q225 0 527 166q311 172 393 426q20 61 20 114q0 117 -87 179.5t-226 62.5q-225 0 -504 -166q-297 -178 -368 -395q-23 -72 -23 -135z" />
<glyph unicode="&#xf3;" horiz-adv-x="1867" d="M-37 319q0 115 39 240q90 274 365 528q264 244 575 361q-27 18 -14 53q18 61 133 96q45 14 137 43q111 41 221 82q176 61 217 62q72 0 72 -49q0 -63 -103.5 -103.5t-308.5 -109.5h13q242 2 393 -129t151 -349q1 -99 -36 -210q-131 -410 -556 -698t-808 -288 q-229 0 -363 134q-127 127 -127 337zM303 459q0 -115 70.5 -183.5t197.5 -68.5q225 0 527 166q311 172 393 426q20 61 20 114q0 117 -87 179.5t-226 62.5q-225 0 -502 -166q-299 -178 -370 -395q-23 -72 -23 -135z" />
<glyph unicode="&#xf4;" horiz-adv-x="1867" d="M-47 319q0 115 41 240q119 365 529.5 664t776.5 299q20 0 39 -2q-2 4 -8 12q-74 111 -119 110q2 0 -110.5 -78.5t-157.5 -78.5q-31 0 -41 33q-8 27 0 53q14 39 66 69q59 33 134 94.5t116 86.5q29 18 57 18q33 0 59 -27q4 -2 41 -49q37 -35 74 -71q51 -49 51 -86 q0 -59 -71 -95q188 -35 301.5 -158.5t113.5 -308.5q0 -99 -37 -210q-133 -410 -557 -698t-807 -288q-231 0 -362 134q-129 127 -129 337zM295 459q0 -115 70.5 -183.5t197.5 -68.5q225 0 527 166q311 172 393 426q20 61 20 114q0 117 -87 179.5t-226 62.5q-225 0 -502 -166 q-299 -178 -371 -395q-23 -72 -22 -135z" />
<glyph unicode="&#xf5;" horiz-adv-x="1867" d="M-59 319q0 115 39 240q117 354 514 653q393 291 757 308q-55 39 -55 108q0 27 10 55l8 25q14 43 7 43q-25 0 -51.5 -19.5t-28.5 -42t-6 -65.5q-10 -29 -47 -63.5t-68 -34.5q-37 0 -37 90q0 55 12 90q27 82 116 149.5t171 67.5q41 0 72.5 -27.5t34.5 -66.5 q0 -12 -13.5 -59.5t-13.5 -65.5q0 -33 29 -33q61 0 71 27l-13 18q-13 19 -13 39q0 12 4 25q10 31 39.5 64.5t58.5 33.5q37 0 58.5 -38t21.5 -85q0 -76 -68 -149q-59 -66 -135 -97q190 -33 303 -156.5t113 -308.5q0 -99 -35 -210q-133 -410 -558 -698t-808 -288 q-229 0 -362 134q-127 127 -127 337zM281 459q0 -115 70.5 -183.5t197.5 -68.5q225 0 526 166q311 172 393 426q20 61 21 114q0 117 -87 179.5t-226 62.5q-225 0 -502 -166q-299 -178 -369 -395q-25 -72 -24 -135z" />
<glyph unicode="&#xf6;" horiz-adv-x="1867" d="M-55 319q0 115 41 240q119 365 528.5 664t777.5 299q242 0 393.5 -131t151.5 -347q0 -99 -37 -210q-133 -410 -557 -698t-807 -288q-231 0 -362 134q-129 127 -129 337zM287 459q0 -115 70.5 -183.5t197.5 -68.5q225 0 526 166q312 172 394 426q20 61 20 114 q0 117 -87 179.5t-226 62.5q-225 0 -502 -166q-299 -178 -371 -395q-23 -72 -22 -135zM774 1620q0 25 10 53q27 82 95 111q18 6 131 26q90 16 139 17q55 0 55 -64q0 -26 -8 -57q-35 -102 -84 -115q-68 -8 -137 -14q-125 -35 -133 -35q-68 0 -68 78zM1315 1681q0 27 10 56 q27 80 92 108q18 8 133 29q88 14 140 14q55 0 55 -63q0 -27 -10 -56q-33 -104 -82 -116q-70 -6 -137 -15q-125 -33 -134 -32q-68 0 -67 75z" />
<glyph unicode="&#xf7;" horiz-adv-x="1200" d="M98 625q0 39 17 86q61 190 334 190q25 0 69 -2h66q82 0 411 51q25 4 39 4q94 0 94 -98q0 -39 -16 -88q-49 -150 -190 -176q-74 -12 -174 -17q-86 0 -173 -2q-57 -2 -198 -24q-131 -23 -180 -23q-98 0 -99 99zM332 289q0 31 10 61q29 88 123 121q139 47 194 47 q72 0 72 -65q0 -29 -14 -72q-35 -111 -146 -145q-119 -37 -159 -37q-80 0 -80 90zM535 1063q0 31 10 63q29 86 125 119q137 49 192 49q72 0 72 -67q0 -29 -12 -72q-37 -111 -148 -145q-119 -37 -160 -37q-80 0 -79 90z" />
<glyph unicode="&#xf8;" horiz-adv-x="1869" d="M-18 322q0 115 41 237q123 377 550.5 679t798.5 282q158 209 254 209q53 0 91 -33t38 -84q0 -61 -94 -176q211 -131 211 -394q0 -99 -35 -208q-133 -410 -555 -697q-193 -129 -399 -207q-223 -82 -408 -82q-37 0 -72 2q-150 -219 -247 -219q-55 0 -92 35t-37 86 q0 66 108 207q-154 129 -153 363zM324 459q0 -113 65 -180q231 287 690 860q-219 -47 -430 -191q-242 -164 -303 -352q-23 -72 -22 -137zM659 211q211 25 459 162q311 172 393 428q20 63 21 117q0 143 -137 204q-252 -301 -375 -452q-207 -252 -361 -459z" />
<glyph unicode="&#xf9;" horiz-adv-x="1488" d="M-84 111q0 137 84 393q170 526 362 805q84 123 170 123q111 0 111 -136q0 -53 -27 -108q-129 -260 -182 -379q-94 -209 -149 -381q-33 -104 -33 -158q0 -84 70 -84q55 0 178 37q272 80 394 192.5t206 368.5q61 190 80 494q2 37 8 61q25 72 93.5 132.5t139.5 60.5 q88 0 88 -203q0 -127 -32 -309q-27 -147 -56 -229q-256 -795 -1056 -938q-80 -14 -152 -15q-297 0 -297 273zM543 1677q0 39 41 66q35 23 75 22q41 0 179 -61l168 -82q20 -10 108 -43q76 -29 76 -76q0 -39 -36 -63.5t-77 -24.5q-43 0 -243 86q-162 70 -238 111 q-53 27 -53 65z" />
<glyph unicode="&#xfa;" horiz-adv-x="1488" d="M-86 111q0 137 84 393q170 526 362 805q84 123 170 123q111 0 111 -136q0 -53 -27 -108q-127 -260 -180 -379q-96 -209 -151 -381q-33 -104 -33 -158q0 -84 69 -84q55 0 179 37q272 80 394 192.5t206 368.5q61 190 80 494q2 37 10 61q23 72 91.5 132.5t139.5 60.5 q88 0 88 -203q0 -127 -32 -309q-27 -147 -54 -229q-258 -795 -1059 -938q-80 -14 -149 -15q-299 0 -299 273zM768 1477q0 72 137 112q45 14 137 43l222 82q178 63 219 64q72 0 71 -52q1 -61 -108 -104q-100 -41 -309 -111q-256 -86 -301 -86q-68 0 -68 52z" />
<glyph unicode="&#xfb;" horiz-adv-x="1488" d="M-98 111q0 137 84 393q170 526 362 805q84 123 170 123q111 0 111 -136q0 -53 -27 -108q-127 -260 -180 -379q-96 -209 -152 -381q-33 -104 -32 -158q0 -84 69 -84q55 0 178 37q272 80 394 192.5t206 368.5q61 190 80 494q2 37 11 61q23 72 91 132.5t140 60.5 q88 0 88 -203q0 -127 -33 -309q-26 -147 -55 -229q-256 -795 -1057 -938q-80 -14 -149 -15q-299 0 -299 273zM705 1532q-8 27 0 53q12 39 68 71t131 93t116 86q29 18 55 18q35 0 62 -26q2 -2 41 -49q37 -35 73 -72q49 -49 49 -86q0 -39 -38.5 -73t-75.5 -34q-31 0 -53 33 q-74 111 -121 111q4 0 -108.5 -79t-160.5 -79q-29 0 -38 33z" />
<glyph unicode="&#xfc;" horiz-adv-x="1488" d="M-100 111q0 137 82 393q172 526 362 805q86 123 170 123q113 0 113 -136q0 -53 -29 -108q-127 -260 -180 -379q-94 -209 -152 -381q-33 -104 -33 -158q0 -84 70 -84q57 0 180 37q270 80 392 192.5t206 368.5q61 190 80 494q2 37 10 61q23 72 92.5 132.5t139.5 60.5 q90 0 90 -203q0 -127 -35 -309q-26 -147 -53 -229q-258 -795 -1059 -938q-80 -14 -149 -15q-297 0 -297 273zM537 1604q0 27 8 53q27 82 94 110q18 8 133 29q88 14 139 14q55 0 56 -63q-1 -26 -11 -57q-33 -102 -84 -115q-68 -6 -135 -14q-127 -33 -133 -33q-68 0 -67 76z M1077 1665q0 27 8 55q27 82 95 109q18 8 133 29q88 16 139 16q55 0 55 -64q0 -26 -10 -57q-35 -104 -84 -115q-68 -8 -135 -16q-127 -33 -135 -33q-66 0 -66 76z" />
<glyph unicode="&#xfd;" horiz-adv-x="1482" d="M53 -74q0 76 76 168q27 33 150 152q88 84 102 131q2 8 2 20q0 41 -93 329t-93 433q0 63 16 109q23 72 92.5 133t138.5 61q84 0 101 -108q8 -92 37 -275q76 -336 125 -336q16 0 88.5 76t304.5 338q186 213 311 332q84 80 152 80q102 0 102 -123q0 -80 -70 -164 q-115 -141 -317 -354q-270 -287 -326 -350q-158 -178 -315 -357q-186 -207 -328 -344q-88 -84 -149 -84q-49 0 -78 40t-29 93zM762 1489q0 72 137 113q45 14 135 43q113 41 223 81q176 63 218 64q72 0 71 -51q0 -61 -104.5 -103t-313.5 -112q-256 -86 -299 -86q-68 0 -67 51 z" />
<glyph unicode="&#xfe;" horiz-adv-x="1421" d="M-63 -25q0 20 4 45q25 150 127 461q141 438 305 826q66 156 188 155q127 0 127 -92q0 -37 -18 -94q-23 -66 -27 -92q113 23 225 43q135 25 224 24q147 0 230 -84t71 -227q-8 -74 -52 -209q-100 -309 -237 -452q-172 -182 -465 -183q-61 0 -180 11.5t-180 11.5l6 -2 q-6 -18 -17 -60q-25 -74 -93.5 -130t-141.5 -56q-96 0 -96 104zM399 508q-4 -51 303 -51q156 0 197 18q53 23 82 109l16 49q47 145 39 211q-4 47 -75 47q-68 0 -222.5 -31t-224.5 -57q-25 -10 -78 -172l-33 -103q-2 -8 -4 -20z" />
<glyph unicode="&#xff;" horiz-adv-x="1482" d="M39 -74q0 76 76 168q27 33 149 152q86 84 103 131q2 8 2 20q0 41 -93.5 329t-93.5 433q0 63 17 109q23 72 92 133t139 61q84 0 100 -108q8 -92 37 -275q76 -336 125 -336q16 0 89 76t304 338q186 213 312 332q84 80 151 80q102 0 103 -123q0 -80 -70 -164 q-115 -141 -317 -354q-270 -287 -326 -350q-158 -178 -315 -357q-186 -207 -328 -344q-88 -84 -150 -84q-49 0 -77.5 40t-28.5 93zM575 1608q0 27 9 53q27 82 94 111q18 8 133 28q88 14 139 15q55 0 56 -64q-1 -26 -11 -57q-33 -102 -84 -115q-68 -6 -135 -14 q-127 -33 -135 -33q-66 0 -66 76zM1116 1669q0 27 8 55q27 82 95 109q18 8 131 29q90 16 139 16q57 0 57 -63q0 -27 -10 -58q-35 -104 -84 -115q-68 -8 -135 -16q-127 -33 -135 -33q-66 0 -66 76z" />
<glyph unicode="&#x152;" horiz-adv-x="2850" d="M18 350q0 96 35 205q123 375 525 655q389 270 770 271q217 0 350 -121q111 68 348 121q68 14 356 65q90 18 183 35q106 20 178 21q193 0 192 -123q0 -25 -10 -56q-23 -70 -82 -133q-68 -74 -133 -73q-16 0 -45 9t-45 9q-117 0 -281 -33q-141 -31 -284 -63 q-49 -10 -60 -15q-35 -10 -57.5 -30.5t-91.5 -188.5q33 2 104 21q485 119 787 118q102 0 102 -86q0 -27 -10 -59q-63 -190 -244 -219q-240 -31 -479 -62q-360 -55 -447 -120q-74 -57 -137 -252q-6 -16 8 -17q16 0 62 13q219 66 440 131q272 74 428 73q106 0 107 -100 q0 -39 -17 -90q-45 -141 -192 -172q-160 -27 -480 -98q-115 -31 -292 -92q-238 -80 -289 -96.5t-86 -16.5q-127 0 -127 125q0 72 39 180q-340 -190 -588 -190q-238 0 -387.5 122.5t-149.5 331.5zM362 481q0 -113 95 -172q86 -53 223 -53q203 0 506 190q225 140 293 347 q16 53 16 102q0 102 -72.5 162.5t-189.5 60.5q-197 0 -461 -129q-309 -150 -393 -409q-16 -53 -17 -99z" />
<glyph unicode="&#x153;" horiz-adv-x="2926" d="M10 319q0 115 39 238q121 369 537 670q408 293 774 293q256 0 407 -146q92 72 338 113q178 25 357 49q94 18 188 37q109 18 184 18q182 0 183 -112q-1 -27 -11 -62q-23 -70 -81 -133q-68 -76 -134 -76q-14 0 -40.5 9.5t-40.5 9.5q-90 0 -357 -45q-289 -47 -334 -81 t-110 -218q29 4 90 20q526 139 803 139q106 0 106 -94q0 -33 -14 -74q-61 -186 -230 -212q-205 -25 -409 -50q-242 -33 -411 -92t-249 -301q37 2 119 29q573 188 826 188q109 0 108 -102q0 -43 -18 -98q-49 -150 -193 -177q-127 -8 -256 -16q-299 -37 -649 -195 q-115 -51 -178 -51q-84 0 -130 48.5t-46 125.5q0 43 14 90q-371 -215 -692 -215q-229 0 -359.5 131.5t-130.5 341.5zM350 457q0 -115 71 -183.5t200 -68.5q223 0 524 166q311 172 395 428q18 61 19 114q0 115 -86.5 178.5t-227.5 63.5q-223 0 -502 -166q-299 -178 -368 -395 q-25 -72 -25 -137z" />
<glyph unicode="&#x178;" horiz-adv-x="1439" d="M-6 -63q0 27 6 49q25 72 220.5 270.5t213.5 255.5q12 35 -59 160q-123 213 -142 252q-80 162 -79 276q0 49 12 90q25 72 86 124t131 52q72 0 98 -69q20 -86 74 -248q70 -166 184 -311q31 23 99 96q127 143 252 287q154 172 264 274q86 80 155 80q98 0 99 -119 q0 -84 -68 -168q-115 -139 -319 -354q-262 -274 -328 -348q-158 -176 -313 -355q-186 -209 -330 -346q-88 -84 -148 -84q-49 0 -78.5 41t-29.5 95zM602 1597q0 27 10 56q27 80 95 108q18 8 131 29q90 14 139 14q55 0 55 -63q0 -26 -10 -55q-33 -104 -82 -117 q-68 -6 -137 -15q-125 -33 -133 -32q-68 0 -68 75zM1147 1661q0 25 8 53q27 82 94 109q18 8 133 28q88 16 140 17q55 0 55 -64q0 -26 -10 -57q-35 -102 -84 -115q-68 -8 -135 -16q-127 -33 -136 -33q-66 0 -65 78z" />
<glyph unicode="&#x2000;" horiz-adv-x="975" />
<glyph unicode="&#x2001;" horiz-adv-x="1950" />
<glyph unicode="&#x2002;" horiz-adv-x="975" />
<glyph unicode="&#x2003;" horiz-adv-x="1950" />
<glyph unicode="&#x2004;" horiz-adv-x="650" />
<glyph unicode="&#x2005;" horiz-adv-x="487" />
<glyph unicode="&#x2006;" horiz-adv-x="325" />
<glyph unicode="&#x2007;" horiz-adv-x="325" />
<glyph unicode="&#x2008;" horiz-adv-x="243" />
<glyph unicode="&#x2009;" horiz-adv-x="390" />
<glyph unicode="&#x200a;" horiz-adv-x="108" />
<glyph unicode="&#x2010;" horiz-adv-x="1124" d="M45 623q0 39 14 86q63 190 334 190q27 0 72 -2h65q82 0 412 51q25 4 39 4q94 0 94 -98q0 -39 -16 -88q-49 -150 -191 -174q-74 -14 -174 -17l-172 -4q-57 -2 -198 -24q-133 -23 -181 -23q-98 0 -98 99z" />
<glyph unicode="&#x2011;" horiz-adv-x="1124" d="M45 623q0 39 14 86q63 190 334 190q27 0 72 -2h65q82 0 412 51q25 4 39 4q94 0 94 -98q0 -39 -16 -88q-49 -150 -191 -174q-74 -14 -174 -17l-172 -4q-57 -2 -198 -24q-133 -23 -181 -23q-98 0 -98 99z" />
<glyph unicode="&#x2012;" horiz-adv-x="1124" d="M45 623q0 39 14 86q63 190 334 190q27 0 72 -2h65q82 0 412 51q25 4 39 4q94 0 94 -98q0 -39 -16 -88q-49 -150 -191 -174q-74 -14 -174 -17l-172 -4q-57 -2 -198 -24q-133 -23 -181 -23q-98 0 -98 99z" />
<glyph unicode="&#x2013;" horiz-adv-x="1118" d="M45 623q0 39 14 86q63 190 332 190q27 0 72 -2h64q82 0 410 51q25 4 39 4q93 0 93 -98q0 -39 -16 -88q-49 -150 -190 -174q-73 -14 -173 -17q-85 -2 -171 -4q-56 -2 -197 -24q-132 -23 -180 -23q-97 0 -97 99z" />
<glyph unicode="&#x2014;" horiz-adv-x="2142" d="M45 623q0 39 28 86q125 190 664 190q54 0 143 -2h129q163 0 820 51q49 4 77 4q187 0 187 -98q0 -39 -32 -88q-97 -150 -380 -174q-147 -14 -346 -17l-342 -4q-113 -2 -393 -24q-265 -23 -360 -23q-195 0 -195 99z" />
<glyph unicode="&#x2018;" horiz-adv-x="942" d="M303 1018q0 217 156 409q164 201 375 201q172 0 172 -125q0 -84 -74 -163.5t-158 -79.5q-10 0 -29.5 3t-29.5 3q-18 0 -37 -6q-47 -53 -47 -109q0 -49 67 -57q61 -4 123 -9q66 -14 66 -81q0 -37 -17 -93q-59 -184 -280 -184q-141 0 -217 84q-70 76 -70 207z" />
<glyph unicode="&#x2019;" horiz-adv-x="944" d="M283 856q0 86 73.5 165t157.5 79q10 0 29.5 -2t29.5 -2q18 0 37 6q47 53 47 108q0 49 -64.5 54.5t-125.5 9.5q-66 14 -66 84q0 37 17 90q61 184 280 184q141 0 217 -82q70 -78 70 -207q0 -219 -156 -409q-163 -203 -374 -203q-172 0 -172 125z" />
<glyph unicode="&#x201c;" horiz-adv-x="1564" d="M299 1028q0 84 31 176q55 174 192 299q147 137 318 137q160 0 159 -120q0 -27 -10 -56q-39 -121 -96 -159q-37 -27 -109 -27q-80 0 -116 -16q-43 -47 -43 -103q0 -51 67 -57q61 -4 123 -6q68 -14 68 -84q0 -37 -19 -90q-59 -186 -278 -187q-141 0 -217 84q-70 78 -70 209 zM938 1026q0 217 156 410q164 201 376 200q172 0 172 -125q0 -86 -74.5 -164.5t-158.5 -78.5q-10 0 -29.5 3t-29.5 3q-16 0 -37 -6q-45 -53 -45 -109q0 -51 63.5 -56t124.5 -9q68 -14 68 -82q0 -39 -19 -92q-59 -184 -280 -185q-141 0 -217 84q-70 76 -70 207z" />
<glyph unicode="&#x201d;" horiz-adv-x="1564" d="M262 856q0 86 74 165t158 79q10 0 29.5 -2t29.5 -2q18 0 37 6q47 53 47 108q0 49 -64.5 54.5t-126.5 9.5q-66 14 -65 84q0 37 16 90q61 184 281 184q141 0 217 -82q70 -78 70 -207q0 -219 -156 -409q-164 -203 -375 -203q-172 0 -172 125zM905 848q0 27 8 55 q41 121 97 162q37 25 113.5 25t113.5 18q41 45 41 100q0 51 -64.5 56.5t-126.5 9.5q-66 14 -65 82q0 37 16 92q61 184 281 184q141 0 217 -84q70 -78 70 -207q0 -84 -31 -176q-57 -176 -193 -301q-147 -135 -317 -135q-160 0 -160 119z" />
<glyph unicode="&#x2026;" horiz-adv-x="3069" d="M35 41q0 39 14 80q27 86 109 131q63 33 168 51q82 10 161 23q35 6 177 47q121 37 163 37q84 0 84 -95q0 -39 -16 -84q-49 -154 -242 -202q-160 -25 -319 -52q-51 -16 -101 -32q-61 -18 -98 -19q-100 0 -100 115zM969 37q0 39 12 80q29 86 111 131q61 33 168 51 q80 10 161 23q35 6 176 47q121 37 164 37q82 0 82 -95q0 -39 -14 -84q-49 -154 -242 -202q-160 -25 -319 -52q-51 -16 -101 -32q-61 -18 -100 -19q-98 0 -98 115zM1901 33q0 39 14 80q29 86 110 131q61 33 168 51q80 10 160 22q37 6 178 48q121 37 164 36q82 0 82 -94 q0 -39 -14 -84q-49 -154 -242 -203q-160 -25 -321 -51q-49 -16 -101 -32q-59 -18 -98 -19q-100 0 -100 115z" />
<glyph unicode="&#x202f;" horiz-adv-x="390" />
<glyph unicode="&#x205f;" horiz-adv-x="487" />
<glyph unicode="&#x20ac;" horiz-adv-x="1961" d="M25 360q0 25 8 54q31 98 117 135q59 27 169 29l31 75h-12q-106 -4 -107 103q0 25 9 51q35 104 133 143q61 23 188 25q205 240 569 401q346 156 631 156q287 0 287 -172q0 -33 -12 -74q-31 -92 -94 -149q-70 -63 -160 -64q-72 0 -84 27q-4 23 -9.5 48.5t-60.5 25.5 q-250 0 -575 -168q43 2 211 26q131 20 209 21q109 0 108 -101q0 -25 -8 -53q-43 -127 -187.5 -160.5t-349.5 -38.5q-172 -4 -342 -8q-31 -51 -51 -98q174 8 551 57q53 8 70 8q109 0 108 -102q0 -25 -10 -51q-41 -129 -188 -162q-115 -27 -277 -33q-133 -2 -268 -6 q66 -88 282 -88q184 0 293 37q141 47 271 182q88 90 143 90q49 0 78.5 -44t29.5 -103q0 -70 -61 -146q-150 -188 -422 -292q-236 -90 -467 -91q-524 0 -520 422q-78 -14 -119 -14q-113 0 -112 102z" />
<glyph unicode="&#x2122;" horiz-adv-x="2070" d="M354 1378q0 57 42 105.5t100 60.5q86 16 348 29q55 2 182 18q117 16 180 17q70 0 70 -74q0 -20 -6 -45q-29 -82 -103 -113q-47 -18 -149.5 -23t-138.5 -18q2 -14 -21 -82l-104 -321q-100 -303 -242 -303q-70 0 -70 78q0 43 31 96q45 76 105 256q29 88 69 262 q-35 0 -107.5 -10.5t-109.5 -10.5q-76 0 -76 78zM768 674q0 20 8 43q12 37 55 84q35 39 70 80q121 156 350 569q61 113 164 113q84 0 84 -66q0 -25 -10 -61q-27 -78 -27 -172q0 -61 13 -140q94 145 301 424q70 84 145 84q86 0 86 -84q0 -21 -8 -41q-4 -12 -17.5 -34.5 t-15.5 -32.5q-59 -180 -59 -525q0 -100 -6 -122q-16 -47 -65.5 -85t-94.5 -38q-57 0 -70 73q-14 98 12 351q-76 -119 -247 -346q-53 -61 -107 -62q-94 0 -94 107q0 14 2 28q16 94 8 217q-14 -18 -184 -276q-113 -170 -219 -170q-74 0 -74 82z" />
<glyph unicode="&#xe000;" horiz-adv-x="1525" d="M0 0v1526h1526v-1526h-1526z" />
</font>
</defs>
</svg>
